<svg width="33" height="33" viewBox="0 0 33 33" fill="none" xmlns="http://www.w3.org/2000/svg">
<path d="M15.5647 17.2865L15.3863 16.9806C14.6505 15.7062 14.0543 14.5012 13.7294 13.6788L13.556 13.151C13.4667 12.8699 13.3748 12.5442 13.3662 12.3559C13.3349 11.6668 13.683 11.0282 14.2583 10.6961L14.3084 10.6672C14.6906 10.463 15.6685 10.3372 15.6751 10.3487C17.2501 10.1486 20.6231 10.342 22.4136 10.8343L22.9403 10.9884C23.08 11.0319 23.2402 11.0864 23.3498 11.1377C23.7032 11.2873 23.9928 11.5576 24.1823 11.8858C24.3938 12.2521 24.4779 12.6575 24.4262 13.0588L24.2991 13.6176L24.2684 13.7389C23.8849 15.442 22.2577 18.8045 21.1787 20.1691L21.0141 20.3721C20.8123 20.6101 20.5187 20.9247 20.3084 21.0595C20.0335 21.2182 19.7339 21.3059 19.4109 21.3245C18.9963 21.3286 18.586 21.194 18.2586 20.9455C18.0397 20.7692 17.508 20.1668 17.5008 20.1544C16.9773 19.5396 16.2774 18.4968 15.5647 17.2865ZM8.59744 20.8921C8.17831 20.1661 8.42139 19.241 9.14034 18.8259L12.5075 17.2596C13.0716 16.934 13.7954 17.1317 14.1242 17.7012C14.4535 18.2716 14.2623 18.9964 13.6983 19.322L10.6582 21.455C9.93929 21.8701 9.01657 21.618 8.59744 20.8921Z" fill="white"/>
</svg>
