<svg width="70" height="70" viewBox="0 0 70 70" fill="none" xmlns="http://www.w3.org/2000/svg">
<path d="M68.945 43.4667C64.2705 62.2169 45.2796 73.6279 26.5272 68.9521C7.78264 64.2776 -3.62836 45.2856 1.0482 26.5369C5.72065 7.78467 24.7115 -3.62718 43.4581 1.04732C62.2092 5.72182 73.6195 24.716 68.9445 43.467L68.9448 43.4667H68.945Z" fill="#F3BA2F"/>
<path fill-rule="evenodd" clip-rule="evenodd" d="M34.9998 22.2127L25.9368 31.2757L25.937 31.2753L20.6638 26.002L34.9998 11.666L49.3405 26.0063L44.0672 31.2796L34.9998 22.2127ZM16.9395 29.7251L11.666 34.9994L16.9392 40.2718L22.2127 34.9982L16.9395 29.7251ZM25.9369 38.7235L35 47.786L44.0671 38.7192L49.3432 43.9898L49.3406 43.9926L35 58.3327L20.664 43.9967L20.6565 43.9892L25.9369 38.7235ZM53.0601 29.7275L47.7866 35.0011L53.06 40.2742L58.3333 35.0007L53.0601 29.7275Z" fill="white"/>
<path d="M40.3486 34.9975H40.3509L35.0003 29.6465L31.0454 33.6003V33.6003L30.591 34.0548L29.654 34.9921L29.6465 34.9993L29.654 35.007L35.0003 40.3541L40.3513 35.0031L40.3539 35.0001L40.349 34.9975" fill="white"/>
</svg>
