<svg width="34" height="34" viewBox="0 0 34 34" fill="none" xmlns="http://www.w3.org/2000/svg">
<path d="M16.1721 17.894L15.9937 17.5881C15.2579 16.3136 14.6617 15.1086 14.3368 14.2863L14.1634 13.7584C14.0741 13.4773 13.9822 13.1517 13.9736 12.9633C13.9423 12.2742 14.2904 11.6357 14.8657 11.3035L14.9158 11.2746C15.298 11.0704 16.276 10.9446 16.2826 10.9561C17.8575 10.7561 21.2305 10.9494 23.021 11.4418L23.5477 11.5959C23.6874 11.6394 23.8477 11.6938 23.9572 11.7451C24.3106 11.8947 24.6002 12.165 24.7897 12.4932C25.0012 12.8595 25.0854 13.265 25.0336 13.6662L24.9065 14.225L24.8758 14.3463C24.4924 16.0494 22.8651 19.412 21.7861 20.7765L21.6215 20.9795C21.4197 21.2176 21.1261 21.5321 20.9158 21.6669C20.6409 21.8256 20.3413 21.9133 20.0183 21.9319C19.6037 21.936 19.1934 21.8015 18.8661 21.5529C18.6471 21.3766 18.1154 20.7742 18.1082 20.7618C17.5847 20.1471 16.8849 19.1042 16.1721 17.894ZM9.20486 21.4995C8.78573 20.7735 9.02881 19.8484 9.74776 19.4333L13.115 17.867C13.679 17.5414 14.4028 17.7391 14.7316 18.3086C15.061 18.8791 14.8697 19.6038 14.3057 19.9295L11.2657 22.0624C10.5467 22.4775 9.62399 22.2254 9.20486 21.4995Z" fill="white"/>
</svg>
