<svg width="649" height="801" viewBox="0 0 649 801" fill="none" xmlns="http://www.w3.org/2000/svg">
<g clip-path="url(#clip0_501_1548)">
<path d="M167.783 702.999C167.783 702.999 513.417 463.288 515.583 455.203C517.75 447.117 338.116 69.6566 338.116 69.6566L340.853 92.0597C340.853 92.0597 507.435 447.283 506.515 452.765C505.594 458.246 170.817 694.024 170.817 694.024L167.783 702.999Z" fill="#FFC55F"/>
<path d="M198.624 370.666L213.533 306.657C213.533 306.657 215.929 292.126 244.44 262.408C272.951 232.69 313.439 198.677 338.358 144.707C363.278 90.7361 348.388 46.6228 316.811 37.6053C285.235 28.5879 275.22 61.7807 288.241 71.0556C301.254 80.3361 316.523 72.8561 318.361 62.5137C320.2 52.1714 312.72 49.4226 312.72 49.4226C312.72 49.4226 335.793 53.9273 336.27 85.6188C336.747 117.31 322.434 141.438 287.713 173.445C252.993 205.444 208.51 237.232 190.304 255.89C172.097 274.547 172.75 293.028 175.37 298.583C177.989 304.138 185.327 314.41 186.062 317.226C186.804 320.043 175.986 364.601 175.986 364.601L198.624 370.666Z" fill="#602C0A"/>
<path d="M285.543 68.1147C285.543 68.1147 277.368 59.1974 286.976 44.2593C296.584 29.3211 325.21 31.9749 339.859 54.1738C354.51 76.365 354.381 105.889 343.089 135.786C331.797 165.682 303.024 201.967 289.986 215.871C276.947 229.776 258.976 247.768 253.04 253.796C247.096 259.822 220.552 289.257 216.195 299.653C211.838 310.049 198.631 370.668 198.631 370.668L192.012 368.894L208.447 299.189C208.447 299.189 212.969 281.276 246.401 248.49C279.842 215.706 320.225 182.083 340.963 127.687C361.7 73.2915 334.143 47.4377 317.676 41.3721C301.215 35.3085 282.394 45.233 285.543 68.1147Z" fill="#331100"/>
<path d="M178.59 365.298L190.075 315.469C190.075 315.469 179.055 302.541 181.848 287.413C184.649 272.288 198.957 257.921 216.99 242.205C235.022 226.488 295.625 184.321 318.606 150.134C341.588 115.947 344.177 88.6945 338.116 69.6562C332.056 50.6178 311.236 46.5939 311.236 46.5939C311.236 46.5939 334.146 48.3137 342.633 73.6897C351.12 99.0656 335.132 144.897 296.692 182.413C258.252 219.93 207.888 258.735 197.088 276.013C186.296 293.294 195.833 312.061 195.403 314.368C194.971 316.683 183.636 366.65 183.636 366.65L178.59 365.298Z" fill="#8C4B2A"/>
<path d="M326.427 167.369C326.427 167.369 324.221 184.945 311.057 202.711C297.892 220.477 277.046 227.911 256.402 227.568C235.765 227.227 219.026 229.108 213.999 234.922C208.973 240.728 212.408 244.643 214.098 243.222C215.787 241.809 214.313 238.238 220.093 238.29C225.873 238.341 231.613 248.283 222.804 256.758C213.995 265.232 198.125 254.065 199.775 244.425C201.425 234.785 210.629 219.673 236.404 212.963C262.179 206.252 291.064 204.826 302.177 197.525C313.28 190.23 326.427 167.369 326.427 167.369Z" fill="#FFA300"/>
<path d="M180.557 311.929C180.557 311.929 187.741 301.153 203.608 297C219.475 292.848 222.93 293.209 222.93 293.209C222.93 293.209 232.278 291.794 234.489 284.915C236.708 278.038 216.561 273.761 197.217 283.897C177.881 294.035 175.36 303.442 175.36 303.442C175.36 303.442 173.734 306.271 175.789 309.629C177.853 312.981 180.557 311.929 180.557 311.929Z" fill="#FFA300"/>
<path d="M200.874 362.268L181.597 425.843C181.597 425.843 176.315 439.968 186.147 479.96C195.979 519.953 213.991 569.821 208.587 629.02C203.188 688.23 168.214 719.072 136.359 711.093C104.504 703.114 112.415 669.406 128.332 667.877C144.241 666.346 153.718 680.482 150.139 690.358C146.56 700.234 138.706 698.882 138.706 698.882C138.706 698.882 160.938 706.525 177.197 679.318C193.456 652.111 193.124 624.059 179.056 578.987C164.988 533.916 142.359 484.144 135.92 458.883C129.481 433.622 139.285 417.951 144.333 414.443C149.379 410.942 161.054 405.028 163.098 402.957C165.15 400.888 178.244 356.204 178.244 356.204L200.874 362.268Z" fill="#602C0A"/>
<path d="M124.503 669.127C124.503 669.127 112.964 672.762 113.816 690.503C114.668 708.244 140.786 720.258 164.571 708.358C188.355 696.465 203.006 670.832 208.175 639.295C213.343 607.758 206.568 561.948 202.229 543.387C197.889 524.826 191.322 500.259 189.195 492.071C187.061 483.88 178.974 444.429 180.399 433.248C181.824 422.066 200.882 362.27 200.882 362.27L194.263 360.496L173.459 429.768C173.459 429.768 168.326 447.886 180.887 492.995C193.455 538.107 211.572 587.586 202.331 645.07C193.09 702.554 156.276 711.25 138.984 708.261C121.697 705.282 110.335 687.369 124.503 669.127Z" fill="#331100"/>
<path d="M180.84 356.899L165.686 406.49C165.686 406.49 149.586 412.52 144.441 427.017C139.304 441.516 144.465 461.288 152.225 483.907C159.983 506.535 191.361 573.438 194.17 614.535C196.979 655.633 185.585 680.567 170.815 694.032C156.047 707.489 135.998 700.587 135.998 700.587C135.998 700.587 156.697 710.56 176.735 692.828C196.773 675.095 205.843 627.41 191.309 575.707C176.775 524.005 152.561 465.216 151.847 444.853C151.141 424.491 168.968 412.32 169.749 410.107C170.533 407.887 185.884 358.259 185.884 358.259L180.837 356.907L180.84 356.899Z" fill="#8C4B2A"/>
<path d="M209.536 603.611C209.536 603.611 216.414 587.287 213.896 565.319C211.378 543.351 197.042 526.489 178.992 516.464C160.949 506.442 147.393 496.443 145.946 488.894C144.497 481.354 149.43 479.68 150.183 481.756C150.938 483.824 147.877 486.179 152.908 489.025C157.939 491.87 167.881 486.13 164.49 474.386C161.098 462.643 141.771 464.379 138.38 473.552C134.989 482.726 135.404 500.415 154.371 519.115C173.337 537.814 197.638 553.491 203.612 565.37C209.581 577.24 209.536 603.611 209.536 603.611Z" fill="#FFA300"/>
<path d="M325.796 168.378L313.399 186.456C313.399 186.456 302.079 199.872 293.397 201.703C284.715 203.534 250.964 210.603 239.363 212.209C227.771 213.816 215.251 221.787 208.646 227.988C202.042 234.19 195.912 245.158 202.067 252.544C208.22 259.937 216.617 261.156 221.567 257.769C226.517 254.381 227.084 249.484 227.084 249.484C227.084 249.484 223.965 259.385 214.765 258.507C205.565 257.63 200.71 251.01 204.114 241.087C207.517 231.164 221.97 218.882 242.801 217.459C263.632 216.036 289.065 217.228 302.212 206.765C315.357 196.31 325.796 168.378 325.796 168.378Z" fill="#C97200"/>
<path d="M220.885 238.355C219.046 237.796 216.238 238.198 215.21 240.476C214.182 242.754 213.933 243.53 212.582 242.955C211.23 242.38 211.299 239.1 212.812 236.478C214.317 233.853 218.141 231.981 218.141 231.981C218.141 231.981 211.038 234.21 210.147 241.566C209.262 248.931 215.17 248.444 216.248 245.337C217.326 242.229 216.396 240.998 217.868 239.289C219.337 237.596 220.885 238.355 220.885 238.355Z" fill="#C97200"/>
<path d="M234.646 283.688C234.612 279.906 228.518 279.166 221.781 277.892C215.043 276.619 198.385 281.403 187.302 289.08C176.219 296.757 172.335 303.466 175.792 309.621C175.792 309.621 174.564 302.566 183.318 296.04C192.071 289.515 211.659 281.219 221.102 280.853C230.536 280.492 234.646 283.688 234.646 283.688Z" fill="#C97200"/>
<path d="M209.525 602.307C209.525 602.307 221.364 581.363 212.376 553.553C203.395 525.745 178.416 516.049 165.012 508.079C151.617 500.103 145.14 491.78 145.739 485.239C146.329 478.702 150.183 481.756 150.183 481.756C150.183 481.756 149.193 488.292 154.262 489.56C154.262 489.56 150.918 488.115 151.536 485.409C152.155 482.702 155.389 478.209 151.704 475.896C148.022 473.575 143.651 477.731 142.593 485.468C141.535 493.204 147.133 503.951 157.64 511.251C168.147 518.551 196.777 531.967 206.781 553.699C216.784 575.43 204.156 566.547 204.156 566.547C204.156 566.547 212.204 586.323 209.525 602.307Z" fill="#C97200"/>
<path d="M194.76 678.819C194.76 678.819 201.807 680.126 204.16 670.674C206.505 661.221 194.285 654.051 189.47 632.196C189.47 632.196 186.74 634.811 185.319 647.688C183.889 660.57 201.719 661.46 194.76 678.819Z" fill="#FFA300"/>
<path d="M351.235 94.8493C351.235 94.8493 357.992 97.2408 355.303 106.602C352.607 115.962 338.44 116.061 323.345 132.573C323.345 132.573 322.288 128.943 327.496 117.081C332.696 105.218 348.582 113.362 351.235 94.8493Z" fill="#FFA300"/>
<path d="M155.492 405.477C155.492 405.477 156.325 418.401 167.99 429.931C179.655 441.461 182.827 442.875 182.827 442.875C182.827 442.875 190.215 448.775 188.691 455.838C187.174 462.903 167.588 456.534 155.904 438.084C144.227 419.635 146.747 410.229 146.747 410.229C146.747 410.229 146.754 406.965 150.212 405.085C153.674 403.222 155.492 405.477 155.492 405.477Z" fill="#FFA300"/>
<path d="M178.026 310.228C178.026 310.228 186.927 299.945 204.15 295.558C221.372 291.171 223.689 291.931 223.689 291.931C223.689 291.931 231.135 290.284 231.178 287.497C231.221 284.71 203.381 288.593 189.93 296.617C176.488 304.636 178.026 310.228 178.026 310.228Z" fill="#FFD255"/>
<path d="M184.594 456.131C183.785 457.592 169.661 455.911 157.361 438.048C145.06 420.186 147.207 409.975 149.174 408.955C151.139 407.943 150.004 419.358 159.939 435.236C169.866 451.113 184.594 456.131 184.594 456.131Z" fill="#FFD255"/>
<path d="M155.835 486.102C156.932 489.645 162.451 487.032 163.365 479.437C164.281 471.835 156.769 465.91 149.153 467.642C141.537 469.374 137.196 476.566 137.73 485.171C138.264 493.775 142.327 503.776 154.134 514.501C154.134 514.501 140.342 500.585 139.611 486.518C138.879 472.451 150.485 470.519 154.286 472.52C158.095 474.522 158.536 477.579 156.568 481.258C154.608 484.939 155.835 486.102 155.835 486.102Z" fill="#FFD255"/>
<path d="M205.213 563.214C206.98 559.767 193.357 542.107 177.321 531.926C161.277 521.743 155.418 516.949 155.418 516.949C155.418 516.949 164.937 524.819 177.787 535.406C190.636 546.001 205.213 563.214 205.213 563.214Z" fill="#FFD255"/>
<path d="M196.719 677.863C198.987 677.767 199.98 675.283 200.457 672.097C200.934 668.91 199.301 664.225 193.982 658.455C188.662 652.684 186.818 646.494 186.818 646.494C186.818 646.494 185.234 649.261 187.707 654.326C190.179 659.392 197.241 662.478 197.226 671.787C197.217 676.736 196.719 677.863 196.719 677.863Z" fill="#FFD255"/>
<path d="M201.957 675.6C201.957 675.6 205.416 671.789 204.426 666.384C203.435 660.98 201.839 659.668 196.62 650.471C191.4 641.273 189.463 632.194 189.463 632.194C189.463 632.194 188.005 633.269 186.729 639.04C185.452 644.811 185.244 649.468 185.244 649.468C185.244 649.468 185.741 641.475 187.405 641.553C189.065 641.621 188.711 642.787 191.92 649.441C195.137 656.097 200.34 660.895 202.442 666.458C204.536 672.02 201.957 675.6 201.957 675.6Z" fill="#C97200"/>
<path d="M188.182 457.036C190.771 453.998 189.138 447.816 184.452 443.622C179.765 439.429 176.54 438.18 168.852 430.776C161.163 423.372 157.826 414.785 157.301 413.171C156.768 411.556 155.655 406.945 155.581 406.213C155.499 405.479 155.598 404.409 152.981 404.248C150.365 404.087 146.936 405.247 146.566 411.67C146.566 411.67 147.755 406.252 150.668 407.384C153.588 408.519 153.833 418.568 161.676 429.827C169.518 441.085 178.298 444.903 184.178 448.582C190.049 452.266 188.182 457.036 188.182 457.036Z" fill="#C97200"/>
<path d="M351.235 94.8493C351.235 94.8493 351.148 98.8361 346.611 104.012C342.076 109.18 336.612 108.133 330.419 112.431C324.226 116.729 322.604 129.077 323.342 132.581C323.342 132.581 323.3 128.036 327.039 122.45C330.778 116.864 331.185 115.435 338.209 112.554C345.241 109.676 350.853 106.138 352.381 101.016C353.896 95.8815 351.235 94.8493 351.235 94.8493Z" fill="#C97200"/>
<path d="M301.206 210.523C301.206 210.523 291.863 222.029 268.357 225.068C244.851 228.107 229.89 223.288 215.864 231.38C201.841 239.463 208.847 251.431 212.465 251.091C216.09 250.753 218.308 248.737 218.504 244.861C218.697 240.993 222.361 239.659 224.834 243.194C227.308 246.729 224.884 258.339 212.674 257.211C200.464 256.084 201.708 239.379 211.888 231.223C222.059 223.072 248.131 220.385 264.121 220.66C280.118 220.936 296.384 216.334 301.206 210.523Z" fill="#FFD255"/>
<path d="M354.406 100.847C354.406 100.847 356.709 105.629 350.653 111.191C344.602 116.763 335.744 120.135 330.909 123.553C326.073 126.971 324.608 130.179 324.608 130.179C324.608 130.179 326.094 126.191 329.928 121.989C333.763 117.787 337.169 116.04 344.351 112.596C351.536 109.145 353.997 103.658 354.406 100.847Z" fill="#FFD255"/>
<path d="M304.513 47.2804C304.513 47.2804 293.754 48.923 292.197 59.4389C290.641 69.947 304.769 72.9878 308.82 64.1303C312.871 55.2728 305.505 52.0389 302.836 53.8444C300.17 55.6422 300.977 48.9927 304.513 47.2804Z" fill="#FFA300"/>
<path d="M130.514 696.654C130.514 696.654 122.054 690.05 125.961 680.172C129.868 670.294 143.589 674.518 142.666 684.222C141.746 693.919 133.75 693.036 132.341 690.138C130.933 687.24 128.31 693.395 130.514 696.654Z" fill="#FFA300"/>
<path d="M307.289 49.4729C307.289 49.4729 318.984 51.4853 316.113 62.9013C313.242 74.3173 298.153 76.6981 290.913 70.8548C283.674 65.0115 286.197 54.6481 291.767 48.8572C297.336 43.0663 306.892 44.6937 306.892 44.6937C306.892 44.6937 296.903 44.3494 291.416 51.5702C285.932 58.7833 289.803 68.5851 296.206 70.219C302.61 71.853 310.293 70.36 313.698 61.8368C317.103 53.3136 307.289 49.4729 307.289 49.4729Z" fill="#8C4B2A"/>
<path d="M133.287 686.824C135.158 689.83 139.829 689.347 140.476 684.307C141.124 679.26 134.806 675.537 130.954 677.484C127.102 679.43 126.512 685.295 127.604 687.757C127.604 687.757 127.621 684.152 129.553 684.146C131.486 684.14 132.115 684.939 133.287 686.824Z" fill="#FFD255"/>
<path d="M297.448 53.096C297.448 53.096 293.241 58.9002 295.571 63.7963C297.901 68.6923 305.619 68.6571 306.953 62.6071C308.296 56.5591 301.672 55.1362 300.393 57.5594C299.113 59.9826 298.216 60.0615 297.402 59.557C296.594 59.0621 296.178 56.2173 297.448 53.096Z" fill="#FFD255"/>
<path d="M134.98 698.555C134.98 698.555 144.756 698.932 148.555 690.498C152.353 682.064 145.318 671.488 134.147 668.986C122.984 666.485 119.068 679.512 118.625 685.351C118.625 685.351 120.595 672.777 130.805 672.296C141.016 671.816 148.32 679.952 146.415 688.803C144.51 697.655 134.98 698.555 134.98 698.555Z" fill="#8C4B2A"/>
<path d="M316.936 181.292C316.936 181.292 309.957 199.578 288.702 203.163C267.448 206.747 243.15 211.334 243.15 211.334L249.081 206.515C249.081 206.515 275.739 201.367 292.063 197.614C308.387 193.862 316.936 181.292 316.936 181.292Z" fill="#331100"/>
<path d="M176.135 300.122C176.135 300.122 183.832 287.642 201.732 281.677C219.631 275.712 226.886 278.016 230.232 279.698L233.597 275.632C233.597 275.632 219.701 269.708 202.019 277.155C184.336 284.602 176.568 292.856 174.824 297.168L176.135 300.122Z" fill="#331100"/>
<path d="M176.976 437.805C176.976 437.805 167.229 431.028 162.371 423.564C157.506 416.098 155.891 407.801 155.891 407.801L159.122 405.762C159.122 405.762 159.594 414.137 166.464 422.705C173.333 431.272 178.052 422.029 178.052 422.029L176.976 437.805Z" fill="#331100"/>
<path d="M194.683 526.93C194.683 526.93 184.258 518.924 173.488 512.789C162.718 506.654 153.554 501.58 148.878 494.476C144.203 487.372 145.641 482.34 147.695 481.303C149.748 480.265 150.193 481.751 150.193 481.751C150.193 481.751 146.424 481.985 148.379 488.581C150.335 495.177 155.009 499.695 166.627 504.772C178.245 509.849 188.463 515.296 191.562 518.36C194.648 521.438 194.683 526.93 194.683 526.93Z" fill="#331100"/>
<path d="M304.513 47.2809C304.513 47.2809 298.154 48.5967 294.893 52.9519C291.638 57.3091 290.669 63.6452 294.459 66.8784C298.249 70.1117 301.049 69.2825 303.032 69.0282C303.032 69.0282 300.887 70.2212 296.556 68.8561C292.226 67.4833 289.369 63.3952 291.403 56.9677C293.449 50.5519 298.315 47.9359 304.513 47.2809Z" fill="#331100"/>
<path d="M309.701 61.6985C309.701 61.6985 310.549 59.6017 309.627 56.9976C308.704 54.3936 305.753 53.0708 304.029 53.3946C302.304 53.7261 302.152 54.6593 301.413 54.1502C300.676 53.6336 301.096 48.918 304.514 47.2805C304.514 47.2805 302.766 48.7026 302.45 50.4018C302.134 52.1011 302.909 51.9569 303.452 52.0044C303.998 52.0443 306.464 51.0273 309.327 53.7503C312.203 56.4849 309.701 61.6985 309.701 61.6985Z" fill="#331100"/>
<path d="M130.481 696.776C130.481 696.776 125.632 692.457 124.985 687.054C124.345 681.654 126.673 675.682 131.572 674.777C136.471 673.871 138.481 675.99 140.071 677.201C140.071 677.201 138.811 675.096 134.377 674.112C129.941 673.137 125.423 675.248 123.97 681.831C122.534 688.411 125.441 693.109 130.481 696.776Z" fill="#331100"/>
<path d="M142.183 686.884C142.183 686.884 141.869 689.124 139.768 690.918C137.667 692.712 134.449 692.381 133.119 691.239C131.79 690.09 132.125 689.206 131.231 689.277C130.334 689.356 128.34 693.65 130.481 696.777C130.481 696.777 129.679 694.671 130.255 693.041C130.83 691.412 131.43 691.924 131.924 692.155C132.417 692.393 134.044 694.507 137.884 693.58C141.742 692.65 142.183 686.884 142.183 686.884Z" fill="#331100"/>
<path d="M175.562 351.066C174.407 355.863 173.489 359.537 172.765 362.33C171.995 365.11 170.962 368.753 169.555 373.483C165.191 388.214 162.49 391.238 160.089 395.497C157.688 399.755 161.71 402.519 161.71 402.519L186.806 409.243C190.272 410.172 190.609 406.899 190.609 406.899L198.453 377.625L202.655 361.942L210.499 332.669C210.499 332.669 211.744 330.007 208.286 329.08L183.189 322.356C183.189 322.356 178.371 322.563 178.322 327.451C178.268 332.322 179.14 336.124 175.562 351.066Z" fill="#FFC55F"/>
<path d="M202.583 336.039C201.451 340.965 188.691 391.335 185.61 401.247C183.403 408.323 180.165 407.456 180.165 407.456L186.808 409.236C190.274 410.164 190.611 406.891 190.611 406.891L198.455 377.617L202.657 361.935L210.501 332.661C210.501 332.661 211.746 329.999 208.288 329.073L200.286 326.929C204.655 328.091 203.715 331.113 202.583 336.039Z" fill="#E2A034"/>
<path d="M170.552 403.292C173.185 403.515 175.92 401.277 180.459 385.775C184.997 370.272 194.31 335.974 194.413 331.894C194.509 327.811 192.766 326.313 189.085 325.425C185.403 324.537 181.706 325.78 181.342 333.064C180.978 340.348 183.928 340.852 179.15 361.798C174.38 382.746 167.146 391.267 164.862 395.606C162.579 399.945 166.991 402.993 170.552 403.292Z" fill="#FFEDA1"/>
<path d="M499.202 452.05C499.202 452.05 524.817 484.691 526.986 484.871C529.156 485.052 520.676 457.665 515.98 455.277C511.284 452.889 499.202 452.05 499.202 452.05Z" fill="#FFED83"/>
<path d="M523.473 477.612C523.149 474.85 518.232 460.766 515.534 457.825C512.838 454.877 504.543 454.103 504.543 454.103L523.473 477.612Z" fill="#FFF8B3"/>
<path d="M510.746 455.143C510.746 455.143 536.361 487.784 538.53 487.964C540.7 488.145 532.22 460.757 527.524 458.37C522.828 455.982 510.746 455.143 510.746 455.143Z" fill="#FFED83"/>
<path d="M535.017 480.705C534.693 477.942 529.776 463.859 527.078 460.918C524.382 457.97 516.087 457.196 516.087 457.196L535.017 480.705Z" fill="#FFF8B3"/>
<path d="M521.234 456.406C521.234 456.406 546.849 489.048 549.019 489.228C551.188 489.408 542.708 462.021 538.012 459.633C533.317 457.246 521.234 456.406 521.234 456.406Z" fill="#FFED83"/>
<path d="M545.505 481.969C545.181 479.206 540.264 465.122 537.566 462.182C534.87 459.233 526.573 458.467 526.573 458.467L545.505 481.969Z" fill="#FFF8B3"/>
<path d="M501.654 448.672C501.654 448.672 540.158 433.211 542.126 434.139C544.095 435.068 523.058 454.546 517.798 454.266C512.537 453.986 501.654 448.672 501.654 448.672Z" fill="#FFED83"/>
<path d="M535.455 438.67C533.793 440.9 522.493 450.639 518.686 451.836C514.879 453.034 507.307 449.565 507.307 449.565L535.455 438.67Z" fill="#FFF8B3"/>
<path d="M513.198 451.765C513.198 451.765 551.701 436.305 553.67 437.233C555.639 438.162 534.602 457.64 529.342 457.36C524.081 457.08 513.198 451.765 513.198 451.765Z" fill="#FFED83"/>
<path d="M546.999 441.763C545.337 443.994 534.037 453.732 530.23 454.93C526.421 456.135 518.85 452.658 518.85 452.658L546.999 441.763Z" fill="#FFF8B3"/>
<path d="M522.912 455.915C522.912 455.915 561.416 440.454 563.385 441.383C565.354 442.311 544.317 461.789 539.056 461.509C533.796 461.229 522.912 455.915 522.912 455.915Z" fill="#FFED83"/>
<path d="M556.713 445.912C555.052 448.143 543.752 457.882 539.945 459.079C536.136 460.285 528.565 456.807 528.565 456.807L556.713 445.912Z" fill="#FFF8B3"/>
<path d="M134.759 355.715L548.951 466.697L550.338 461.521L136.146 350.538L134.759 355.715Z" fill="#602C0A"/>
<path d="M134.936 355.051L549.129 466.033L549.626 464.178L135.434 353.195L134.936 355.051Z" fill="#8C4B2A"/>
<path d="M136.085 352.019L549.812 462.877L550.309 461.022L136.582 350.164L136.085 352.019Z" fill="#331100"/>
<path d="M154.034 374.268L90.6743 340.236L153.232 357.195L154.034 374.268Z" fill="#FFD255"/>
<path d="M162.668 342.047L90.6747 340.236L153.233 357.195L162.668 342.047Z" fill="#C97200"/>
<path d="M90.6742 340.236L153.232 357.195L154.026 374.266L100.682 345.61L147.983 368.08C147.983 368.08 148.077 360.953 147.858 360.239C147.65 359.521 90.6742 340.236 90.6742 340.236Z" fill="#FFFCC0"/>
<circle cx="452" cy="654" r="9" fill="white" fill-opacity="0.13"/>
</g>
<defs>
<clipPath id="clip0_501_1548">
<rect width="482.98" height="699.488" fill="white" transform="translate(467.24 800.964) rotate(-165)"/>
</clipPath>
</defs>
</svg>
