<svg width="452" height="466" viewBox="0 0 452 466" fill="none" xmlns="http://www.w3.org/2000/svg">
<g filter="url(#filter0_di_501_1190)">
<path d="M22.2597 230C22.2597 262.238 31.5525 293.793 49.0252 320.886C66.4979 347.978 91.4098 369.46 120.777 382.758C150.145 396.056 182.723 400.607 214.611 395.866C246.499 391.125 276.344 377.292 300.572 356.025C324.8 334.758 342.385 306.958 351.219 275.954C360.054 244.95 359.764 212.056 350.385 181.213C341.005 150.369 322.934 122.883 298.335 102.046C273.736 81.2086 243.652 67.904 211.685 63.7252L203.388 127.199C223.151 129.782 241.751 138.008 256.96 150.891C272.168 163.774 283.341 180.767 289.14 199.837C294.939 218.906 295.118 239.243 289.656 258.411C284.194 277.58 273.322 294.768 258.343 307.916C243.364 321.065 224.912 329.617 205.197 332.548C185.482 335.48 165.34 332.666 147.183 324.444C129.026 316.222 113.624 302.941 102.821 286.191C92.0188 269.441 86.2734 249.932 86.2734 230L22.2597 230Z" fill="url(#paint0_linear_501_1190)"/>
</g>
<g filter="url(#filter1_di_501_1190)">
<path d="M14.9999 230C14.9999 204.487 20.5801 179.283 31.3491 156.154C42.1182 133.025 57.8157 112.532 77.3411 96.1101C96.8665 79.6884 119.747 67.7359 144.38 61.0906C169.012 54.4452 194.8 53.2677 219.935 57.6407L205.635 139.837C192.486 137.55 178.997 138.166 166.111 141.642C153.226 145.118 141.256 151.371 131.042 159.961C120.828 168.551 112.617 179.272 106.984 191.371C101.35 203.47 98.431 216.654 98.431 230L14.9999 230Z" fill="url(#paint1_linear_501_1190)"/>
</g>
<path d="M14.9999 230C14.9999 196.393 24.68 163.496 42.8825 135.245L113.017 180.433C103.495 195.211 98.431 212.42 98.431 230L14.9999 230Z" fill="url(#paint2_linear_501_1190)" fill-opacity="0.5"/>
<path d="M42.8772 135.253C61.0782 107.001 87.0316 84.5885 117.634 70.6968L152.12 146.667C136.112 153.934 122.535 165.658 113.014 180.437L42.8772 135.253Z" fill="url(#paint3_linear_501_1190)" fill-opacity="0.3"/>
<path d="M117.717 70.6593C137.514 61.6848 158.81 56.4782 180.515 55.3062L185.014 138.616C173.66 139.229 162.519 141.953 152.163 146.647L117.717 70.6593Z" fill="url(#paint4_linear_501_1190)" fill-opacity="0.2"/>
<path d="M22.2597 230C22.2597 267.18 34.6159 303.305 57.3857 332.697C80.1555 362.089 112.048 383.08 148.048 392.37L164.043 330.387C141.786 324.643 122.068 311.665 107.99 293.494C93.9128 275.322 86.2734 252.987 86.2734 230L22.2597 230Z" fill="url(#paint5_linear_501_1190)" fill-opacity="0.1"/>
<path d="M350.376 181.183C342.054 153.835 326.879 129.069 306.292 109.236L261.88 155.336C274.608 167.598 283.99 182.91 289.135 199.818L350.376 181.183Z" fill="url(#paint6_linear_501_1190)" fill-opacity="0.7"/>
<path d="M357.126 216.903C356.177 204.785 353.913 192.806 350.374 181.178L289.134 199.815C291.322 207.004 292.721 214.411 293.308 221.903L357.126 216.903Z" fill="url(#paint7_linear_501_1190)" fill-opacity="0.5"/>
<path d="M350.009 280.006C356.38 259.612 358.796 238.189 357.125 216.888L293.308 221.894C294.34 235.063 292.847 248.308 288.908 260.917L350.009 280.006Z" fill="url(#paint8_linear_501_1190)" fill-opacity="0.4"/>
<path d="M252.976 385.394C275.929 376.085 296.535 361.806 313.313 343.583C330.09 325.361 342.623 303.648 350.009 280.006L288.908 260.916C284.341 275.534 276.593 288.958 266.22 300.224C255.847 311.49 243.107 320.318 228.916 326.074L252.976 385.394Z" fill="url(#paint9_linear_501_1190)" fill-opacity="0.3"/>
<path d="M148.068 392.375C182.93 401.367 219.76 398.9 253.111 385.34L228.999 326.04C208.38 334.424 185.609 335.949 164.056 330.39L148.068 392.375Z" fill="url(#paint10_linear_501_1190)" fill-opacity="0.2"/>
<path d="M372.161 7.436V20H369.641V11.828L366.275 20H364.367L360.983 11.828V20H358.463V7.436H361.325L365.321 16.778L369.317 7.436H372.161ZM374.004 14.978C374.004 13.97 374.202 13.076 374.598 12.296C375.006 11.516 375.552 10.916 376.236 10.496C376.932 10.076 377.706 9.866 378.558 9.866C379.302 9.866 379.95 10.016 380.502 10.316C381.066 10.616 381.516 10.994 381.852 11.45V10.028H384.39V20H381.852V18.542C381.528 19.01 381.078 19.4 380.502 19.712C379.938 20.012 379.284 20.162 378.54 20.162C377.7 20.162 376.932 19.946 376.236 19.514C375.552 19.082 375.006 18.476 374.598 17.696C374.202 16.904 374.004 15.998 374.004 14.978ZM381.852 15.014C381.852 14.402 381.732 13.88 381.492 13.448C381.252 13.004 380.928 12.668 380.52 12.44C380.112 12.2 379.674 12.08 379.206 12.08C378.738 12.08 378.306 12.194 377.91 12.422C377.514 12.65 377.19 12.986 376.938 13.43C376.698 13.862 376.578 14.378 376.578 14.978C376.578 15.578 376.698 16.106 376.938 16.562C377.19 17.006 377.514 17.348 377.91 17.588C378.318 17.828 378.75 17.948 379.206 17.948C379.674 17.948 380.112 17.834 380.52 17.606C380.928 17.366 381.252 17.03 381.492 16.598C381.732 16.154 381.852 15.626 381.852 15.014ZM389.371 11.576C389.695 11.048 390.115 10.634 390.631 10.334C391.159 10.034 391.759 9.884 392.431 9.884V12.53H391.765C390.973 12.53 390.373 12.716 389.965 13.088C389.569 13.46 389.371 14.108 389.371 15.032V20H386.851V10.028H389.371V11.576ZM400.033 20L396.649 15.752V20H394.129V6.68H396.649V14.258L399.997 10.028H403.273L398.881 15.032L403.309 20H400.033ZM413.91 14.798C413.91 15.158 413.886 15.482 413.838 15.77H406.548C406.608 16.49 406.86 17.054 407.304 17.462C407.748 17.87 408.294 18.074 408.942 18.074C409.878 18.074 410.544 17.672 410.94 16.868H413.658C413.37 17.828 412.818 18.62 412.002 19.244C411.186 19.856 410.184 20.162 408.996 20.162C408.036 20.162 407.172 19.952 406.404 19.532C405.648 19.1 405.054 18.494 404.622 17.714C404.202 16.934 403.992 16.034 403.992 15.014C403.992 13.982 404.202 13.076 404.622 12.296C405.042 11.516 405.63 10.916 406.386 10.496C407.142 10.076 408.012 9.866 408.996 9.866C409.944 9.866 410.79 10.07 411.534 10.478C412.29 10.886 412.872 11.468 413.28 12.224C413.7 12.968 413.91 13.826 413.91 14.798ZM411.3 14.078C411.288 13.43 411.054 12.914 410.598 12.53C410.142 12.134 409.584 11.936 408.924 11.936C408.3 11.936 407.772 12.128 407.34 12.512C406.92 12.884 406.662 13.406 406.566 14.078H411.3ZM418.684 12.098V16.922C418.684 17.258 418.762 17.504 418.918 17.66C419.086 17.804 419.362 17.876 419.746 17.876H420.916V20H419.332C417.208 20 416.146 18.968 416.146 16.904V12.098H414.958V10.028H416.146V7.562H418.684V10.028H420.916V12.098H418.684ZM424.006 8.84C423.562 8.84 423.19 8.702 422.89 8.426C422.602 8.138 422.458 7.784 422.458 7.364C422.458 6.944 422.602 6.596 422.89 6.32C423.19 6.032 423.562 5.888 424.006 5.888C424.45 5.888 424.816 6.032 425.104 6.32C425.404 6.596 425.554 6.944 425.554 7.364C425.554 7.784 425.404 8.138 425.104 8.426C424.816 8.702 424.45 8.84 424.006 8.84ZM425.248 10.028V20H422.728V10.028H425.248ZM433.264 9.884C434.452 9.884 435.412 10.262 436.144 11.018C436.876 11.762 437.242 12.806 437.242 14.15V20H434.722V14.492C434.722 13.7 434.524 13.094 434.128 12.674C433.732 12.242 433.192 12.026 432.508 12.026C431.812 12.026 431.26 12.242 430.852 12.674C430.456 13.094 430.258 13.7 430.258 14.492V20H427.738V10.028H430.258V11.27C430.594 10.838 431.02 10.502 431.536 10.262C432.064 10.01 432.64 9.884 433.264 9.884ZM443.544 9.866C444.288 9.866 444.942 10.016 445.506 10.316C446.07 10.604 446.514 10.982 446.838 11.45V10.028H449.376V20.072C449.376 20.996 449.19 21.818 448.818 22.538C448.446 23.27 447.888 23.846 447.144 24.266C446.4 24.698 445.5 24.914 444.444 24.914C443.028 24.914 441.864 24.584 440.952 23.924C440.052 23.264 439.542 22.364 439.422 21.224H441.924C442.056 21.68 442.338 22.04 442.77 22.304C443.214 22.58 443.748 22.718 444.372 22.718C445.104 22.718 445.698 22.496 446.154 22.052C446.61 21.62 446.838 20.96 446.838 20.072V18.524C446.514 18.992 446.064 19.382 445.488 19.694C444.924 20.006 444.276 20.162 443.544 20.162C442.704 20.162 441.936 19.946 441.24 19.514C440.544 19.082 439.992 18.476 439.584 17.696C439.188 16.904 438.99 15.998 438.99 14.978C438.99 13.97 439.188 13.076 439.584 12.296C439.992 11.516 440.538 10.916 441.222 10.496C441.918 10.076 442.692 9.866 443.544 9.866ZM446.838 15.014C446.838 14.402 446.718 13.88 446.478 13.448C446.238 13.004 445.914 12.668 445.506 12.44C445.098 12.2 444.66 12.08 444.192 12.08C443.724 12.08 443.292 12.194 442.896 12.422C442.5 12.65 442.176 12.986 441.924 13.43C441.684 13.862 441.564 14.378 441.564 14.978C441.564 15.578 441.684 16.106 441.924 16.562C442.176 17.006 442.5 17.348 442.896 17.588C443.304 17.828 443.736 17.948 444.192 17.948C444.66 17.948 445.098 17.834 445.506 17.606C445.914 17.366 446.238 17.03 446.478 16.598C446.718 16.154 446.838 15.626 446.838 15.014Z" fill="white"/>
<path d="M426.689 43.2V41.523H429.822V51H427.95V43.2H426.689ZM437.99 43.096H433.778V45.319C433.96 45.0937 434.22 44.9117 434.558 44.773C434.896 44.6257 435.255 44.552 435.637 44.552C436.33 44.552 436.898 44.7037 437.34 45.007C437.782 45.3103 438.102 45.7003 438.302 46.177C438.501 46.645 438.601 47.1477 438.601 47.685C438.601 48.6817 438.315 49.4833 437.743 50.09C437.179 50.6967 436.373 51 435.325 51C434.337 51 433.548 50.753 432.959 50.259C432.369 49.765 432.036 49.1193 431.958 48.322H433.726C433.804 48.6687 433.977 48.946 434.246 49.154C434.523 49.362 434.874 49.466 435.299 49.466C435.81 49.466 436.196 49.3057 436.456 48.985C436.716 48.6643 436.846 48.2397 436.846 47.711C436.846 47.1737 436.711 46.7663 436.443 46.489C436.183 46.203 435.797 46.06 435.286 46.06C434.922 46.06 434.618 46.151 434.376 46.333C434.133 46.515 433.96 46.7577 433.856 47.061H432.114V41.497H437.99V43.096ZM439.778 43.85C439.778 43.1913 439.969 42.6757 440.35 42.303C440.74 41.9303 441.238 41.744 441.845 41.744C442.452 41.744 442.946 41.9303 443.327 42.303C443.717 42.6757 443.912 43.1913 443.912 43.85C443.912 44.5173 443.717 45.0373 443.327 45.41C442.946 45.7827 442.452 45.969 441.845 45.969C441.238 45.969 440.74 45.7827 440.35 45.41C439.969 45.0373 439.778 44.5173 439.778 43.85ZM448.124 41.9L443.015 51H441.247L446.343 41.9H448.124ZM441.832 42.836C441.355 42.836 441.117 43.174 441.117 43.85C441.117 44.5347 441.355 44.877 441.832 44.877C442.066 44.877 442.248 44.7947 442.378 44.63C442.508 44.4567 442.573 44.1967 442.573 43.85C442.573 43.174 442.326 42.836 441.832 42.836ZM445.485 49.037C445.485 48.3697 445.676 47.854 446.057 47.49C446.447 47.1173 446.945 46.931 447.552 46.931C448.159 46.931 448.648 47.1173 449.021 47.49C449.402 47.854 449.593 48.3697 449.593 49.037C449.593 49.7043 449.402 50.2243 449.021 50.597C448.648 50.9697 448.159 51.156 447.552 51.156C446.937 51.156 446.438 50.9697 446.057 50.597C445.676 50.2243 445.485 49.7043 445.485 49.037ZM447.539 48.023C447.045 48.023 446.798 48.361 446.798 49.037C446.798 49.7217 447.045 50.064 447.539 50.064C448.024 50.064 448.267 49.7217 448.267 49.037C448.267 48.361 448.024 48.023 447.539 48.023Z" fill="white" fill-opacity="0.8"/>
<circle cx="263.221" cy="80" r="21" fill="white" fill-opacity="0.1"/>
<circle cx="263.221" cy="80" r="7.5" fill="#F1426D" stroke="white" stroke-width="3"/>
<path d="M269.721 74L312.721 31H450.221" stroke="white" stroke-width="2"/>
<defs>
<filter id="filter0_di_501_1190" x="3.84961" y="63.7256" width="391.692" height="402.19" filterUnits="userSpaceOnUse" color-interpolation-filters="sRGB">
<feFlood flood-opacity="0" result="BackgroundImageFix"/>
<feColorMatrix in="SourceAlpha" type="matrix" values="0 0 0 0 0 0 0 0 0 0 0 0 0 0 0 0 0 0 127 0" result="hardAlpha"/>
<feMorphology radius="3.24885" operator="erode" in="SourceAlpha" result="effect1_dropShadow_501_1190"/>
<feOffset dx="9.74655" dy="40.0692"/>
<feGaussianBlur stdDeviation="15.7028"/>
<feComposite in2="hardAlpha" operator="out"/>
<feColorMatrix type="matrix" values="0 0 0 0 0 0 0 0 0 0 0 0 0 0 0 0 0 0 0.25 0"/>
<feBlend mode="normal" in2="BackgroundImageFix" result="effect1_dropShadow_501_1190"/>
<feBlend mode="normal" in="SourceGraphic" in2="effect1_dropShadow_501_1190" result="shape"/>
<feColorMatrix in="SourceAlpha" type="matrix" values="0 0 0 0 0 0 0 0 0 0 0 0 0 0 0 0 0 0 127 0" result="hardAlpha"/>
<feOffset dx="17.3272" dy="4.3318"/>
<feGaussianBlur stdDeviation="9.74655"/>
<feComposite in2="hardAlpha" operator="arithmetic" k2="-1" k3="1"/>
<feColorMatrix type="matrix" values="0 0 0 0 0.274677 0 0 0 0 0.0546701 0 0 0 0 0.279167 0 0 0 0.38 0"/>
<feBlend mode="normal" in2="shape" result="effect2_innerShadow_501_1190"/>
</filter>
<filter id="filter1_di_501_1190" x="-17.4885" y="0.90424" width="270.996" height="251.838" filterUnits="userSpaceOnUse" color-interpolation-filters="sRGB">
<feFlood flood-opacity="0" result="BackgroundImageFix"/>
<feColorMatrix in="SourceAlpha" type="matrix" values="0 0 0 0 0 0 0 0 0 0 0 0 0 0 0 0 0 0 127 0" result="hardAlpha"/>
<feMorphology radius="19.4931" operator="erode" in="SourceAlpha" result="effect1_dropShadow_501_1190"/>
<feOffset dx="9.74655" dy="-1.08295"/>
<feGaussianBlur stdDeviation="21.659"/>
<feComposite in2="hardAlpha" operator="out"/>
<feColorMatrix type="matrix" values="0 0 0 0 0 0 0 0 0 0 0 0 0 0 0 0 0 0 0.37 0"/>
<feBlend mode="normal" in2="BackgroundImageFix" result="effect1_dropShadow_501_1190"/>
<feBlend mode="normal" in="SourceGraphic" in2="effect1_dropShadow_501_1190" result="shape"/>
<feColorMatrix in="SourceAlpha" type="matrix" values="0 0 0 0 0 0 0 0 0 0 0 0 0 0 0 0 0 0 127 0" result="hardAlpha"/>
<feMorphology radius="19.4931" operator="dilate" in="SourceAlpha" result="effect2_innerShadow_501_1190"/>
<feOffset dx="-32.4885" dy="-54.1475"/>
<feGaussianBlur stdDeviation="49.2742"/>
<feComposite in2="hardAlpha" operator="arithmetic" k2="-1" k3="1"/>
<feColorMatrix type="matrix" values="0 0 0 0 0.941667 0 0 0 0 0.368819 0 0 0 0 0.81564 0 0 0 0.25 0"/>
<feBlend mode="normal" in2="shape" result="effect2_innerShadow_501_1190"/>
</filter>
<linearGradient id="paint0_linear_501_1190" x1="295.699" y1="562.949" x2="-137.835" y2="450.907" gradientUnits="userSpaceOnUse">
<stop stop-color="#913DF4"/>
<stop offset="1" stop-color="#BF38E1"/>
</linearGradient>
<linearGradient id="paint1_linear_501_1190" x1="68.3934" y1="254.993" x2="199.572" y2="138.077" gradientUnits="userSpaceOnUse">
<stop stop-color="#2CFCF0"/>
<stop offset="1" stop-color="#1ABCFF"/>
</linearGradient>
<linearGradient id="paint2_linear_501_1190" x1="68.3934" y1="254.993" x2="199.572" y2="138.077" gradientUnits="userSpaceOnUse">
<stop stop-color="#00FFF0"/>
<stop offset="1" stop-color="#3EFFE8"/>
</linearGradient>
<linearGradient id="paint3_linear_501_1190" x1="68.3934" y1="254.993" x2="199.572" y2="138.077" gradientUnits="userSpaceOnUse">
<stop stop-color="#00FFF0"/>
<stop offset="1" stop-color="#3EFFE8"/>
</linearGradient>
<linearGradient id="paint4_linear_501_1190" x1="68.3934" y1="254.993" x2="199.572" y2="138.077" gradientUnits="userSpaceOnUse">
<stop stop-color="#00FFF0"/>
<stop offset="1" stop-color="#3EFFE8"/>
</linearGradient>
<linearGradient id="paint5_linear_501_1190" x1="93.0378" y1="315.66" x2="55.4749" y2="192.958" gradientUnits="userSpaceOnUse">
<stop stop-color="white"/>
<stop offset="1" stop-color="#B43AE6"/>
</linearGradient>
<linearGradient id="paint6_linear_501_1190" x1="93.0378" y1="315.66" x2="55.4749" y2="192.958" gradientUnits="userSpaceOnUse">
<stop stop-color="white"/>
<stop offset="1" stop-color="#B43AE6"/>
</linearGradient>
<linearGradient id="paint7_linear_501_1190" x1="93.0378" y1="315.66" x2="55.4749" y2="192.958" gradientUnits="userSpaceOnUse">
<stop stop-color="white"/>
<stop offset="1" stop-color="#B43AE6"/>
</linearGradient>
<linearGradient id="paint8_linear_501_1190" x1="93.0378" y1="315.66" x2="55.4749" y2="192.958" gradientUnits="userSpaceOnUse">
<stop stop-color="white"/>
<stop offset="1" stop-color="#B43AE6"/>
</linearGradient>
<linearGradient id="paint9_linear_501_1190" x1="93.0378" y1="315.66" x2="55.4749" y2="192.958" gradientUnits="userSpaceOnUse">
<stop stop-color="white"/>
<stop offset="1" stop-color="#B43AE6"/>
</linearGradient>
<linearGradient id="paint10_linear_501_1190" x1="93.0378" y1="315.66" x2="55.4749" y2="192.958" gradientUnits="userSpaceOnUse">
<stop stop-color="white"/>
<stop offset="1" stop-color="#B43AE6"/>
</linearGradient>
</defs>
</svg>
