<svg width="200" height="64" viewBox="0 0 200 64" fill="none" xmlns="http://www.w3.org/2000/svg">
<path fill-rule="evenodd" clip-rule="evenodd" d="M32.0358 1.04544L70.829 0L88.836 1.71072L143.485 0.494209L167.964 1.04544L174.17 1.9008L190.597 10.2073L195.146 16.1568L200 32.2756L197.468 41.3615L190.597 54.3249L174.76 62.7455L167.964 63.3917L149.139 64L129.742 62.2513L75.4925 63.4868L68.678 61.9661L59.3319 63.4868L33.0066 63.962L22.328 62.3653L9.40326 54.3249L2.81717 43.2623L0 32.2756L2.18902 23.2658L9.40326 10.1123L19.606 3.51648L32.0358 1.04544Z" fill="#A1A1A1"/>
<path fill-rule="evenodd" clip-rule="evenodd" d="M32.7206 5.39819L21.6804 7.58411L13.305 13.7237L5.36744 24.5583L3.6543 31.6483L6.75699 41.5514L12.6197 51.9678L23.5648 58.7917L33.3488 58.8107L58.7604 60.1983L68.8299 58.6777L76.0061 59.5901L129.913 57.1L149.291 58.8297L167.621 58.2595L173.236 57.7083L186.77 50.5232L193.927 39.5366L195.907 32.4276L192.233 18.9319L186.713 12.5262L173.389 6.48165L167.85 5.01803L143.77 4.4668L88.4549 7.5461L70.4479 6.02545L32.7206 5.39819Z" fill="#A1A1A1"/>
<path fill-rule="evenodd" clip-rule="evenodd" d="M3.65471 31.6482L5.36785 24.5582L2.18902 23.2656L0 32.2754L3.65471 31.6482Z" fill="url(#paint0_radial_494_3422)"/>
<path fill-rule="evenodd" clip-rule="evenodd" d="M5.36829 24.5584L13.3059 13.7238L9.40369 10.1123L2.18945 23.2659L5.36829 24.5584Z" fill="url(#paint1_radial_494_3422)"/>
<path fill-rule="evenodd" clip-rule="evenodd" d="M9.40332 10.1124L13.3055 13.7239L21.6809 7.58432L19.606 3.5166L9.40332 10.1124Z" fill="url(#paint2_radial_494_3422)"/>
<path fill-rule="evenodd" clip-rule="evenodd" d="M21.6813 7.58417L32.7215 5.39825L32.0363 1.04541L19.6064 3.51645L21.6813 7.58417Z" fill="url(#paint3_radial_494_3422)"/>
<path fill-rule="evenodd" clip-rule="evenodd" d="M32.0361 1.04544L32.7214 5.39828L70.4486 6.02554L70.8293 0L32.0361 1.04544Z" fill="url(#paint4_radial_494_3422)"/>
<path fill-rule="evenodd" clip-rule="evenodd" d="M70.8289 0L70.4482 6.02554L88.4553 7.54618L88.836 1.71072L70.8289 0Z" fill="url(#paint5_radial_494_3422)"/>
<path fill-rule="evenodd" clip-rule="evenodd" d="M88.8358 1.71065L88.4551 7.54612L143.771 4.46682L143.485 0.494141L88.8358 1.71065Z" fill="url(#paint6_radial_494_3422)"/>
<path fill-rule="evenodd" clip-rule="evenodd" d="M143.485 0.494141L143.771 4.46682L167.85 5.01805L167.964 1.04537L143.485 0.494141Z" fill="url(#paint7_radial_494_3422)"/>
<path fill-rule="evenodd" clip-rule="evenodd" d="M167.964 1.04541L167.85 5.01809L173.389 6.4817L174.169 1.90077L167.964 1.04541Z" fill="url(#paint8_radial_494_3422)"/>
<path fill-rule="evenodd" clip-rule="evenodd" d="M174.169 1.90088L173.389 6.48181L186.713 12.5264L190.596 10.2074L174.169 1.90088Z" fill="url(#paint9_radial_494_3422)"/>
<path fill-rule="evenodd" clip-rule="evenodd" d="M190.597 10.2075L186.714 12.5265L192.234 18.9322L195.146 16.157L190.597 10.2075Z" fill="url(#paint10_radial_494_3422)"/>
<path fill-rule="evenodd" clip-rule="evenodd" d="M195.146 16.1567L192.233 18.9319L195.907 32.4276L200 32.2755L195.146 16.1567Z" fill="url(#paint11_radial_494_3422)"/>
<path fill-rule="evenodd" clip-rule="evenodd" d="M200 32.2754L195.907 32.4275L193.928 39.5365L197.468 41.3612L200 32.2754Z" fill="url(#paint12_radial_494_3422)"/>
<path fill-rule="evenodd" clip-rule="evenodd" d="M197.468 41.3614L193.928 39.5366L186.771 50.5233L190.597 54.3249L197.468 41.3614Z" fill="url(#paint13_radial_494_3422)"/>
<path fill-rule="evenodd" clip-rule="evenodd" d="M186.771 50.5234L173.237 57.7085L174.76 62.7456L190.597 54.325L186.771 50.5234Z" fill="url(#paint14_radial_494_3422)"/>
<path fill-rule="evenodd" clip-rule="evenodd" d="M173.237 57.7085L167.622 58.2597L149.291 58.83L149.139 64.0001L167.964 63.3919L174.76 62.7456L173.237 57.7085Z" fill="url(#paint15_radial_494_3422)"/>
<path fill-rule="evenodd" clip-rule="evenodd" d="M149.139 64L149.291 58.8298L129.913 57.1001L129.742 62.2513L149.139 64Z" fill="url(#paint16_radial_494_3422)"/>
<path fill-rule="evenodd" clip-rule="evenodd" d="M129.742 62.2513L129.913 57.1001L76.0061 59.5901L75.4922 63.4868L129.742 62.2513Z" fill="url(#paint17_radial_494_3422)"/>
<path fill-rule="evenodd" clip-rule="evenodd" d="M75.4922 63.4868L76.0062 59.5901L68.83 58.6777L68.6777 61.9661L75.4922 63.4868Z" fill="url(#paint18_radial_494_3422)"/>
<path fill-rule="evenodd" clip-rule="evenodd" d="M68.6779 61.9661L68.8302 58.6777L58.7607 60.1984L59.3318 63.4868L68.6779 61.9661Z" fill="url(#paint19_radial_494_3422)"/>
<path fill-rule="evenodd" clip-rule="evenodd" d="M59.3321 63.487L58.7611 60.1986L33.3495 58.811L33.0068 63.9622L59.3321 63.487Z" fill="url(#paint20_radial_494_3422)"/>
<path fill-rule="evenodd" clip-rule="evenodd" d="M33.0067 63.9622L33.3493 58.811L23.5654 58.792L22.3281 62.3655L33.0067 63.9622Z" fill="url(#paint21_radial_494_3422)"/>
<path fill-rule="evenodd" clip-rule="evenodd" d="M22.328 62.3652L23.5653 58.7917L12.6202 51.9678L9.40332 54.3248L22.328 62.3652Z" fill="url(#paint22_radial_494_3422)"/>
<path fill-rule="evenodd" clip-rule="evenodd" d="M12.6204 51.9682L6.75761 41.5518L2.81738 43.2625L9.40347 54.3251L12.6204 51.9682Z" fill="url(#paint23_radial_494_3422)"/>
<path fill-rule="evenodd" clip-rule="evenodd" d="M6.7574 41.5516L3.65471 31.6484L0 32.2757L2.81717 43.2623L6.7574 41.5516Z" fill="url(#paint24_radial_494_3422)"/>
<path fill-rule="evenodd" clip-rule="evenodd" d="M6.47209 40.6772C6.66244 40.8672 6.81471 40.9813 7.00506 41.0383C7.95681 41.3424 19.2445 36.6665 21.1099 35.9822C29.5044 32.8839 38.051 30.0517 46.9594 27.8277C50.8806 25.2617 54.9731 22.8096 59.808 21.0229C61.6544 20.1675 69.6681 9.14286 69.1731 7.60321C69.0209 7.109 69.078 6.59579 68.6021 6.00654L32.7213 5.39828L21.681 7.5842L13.3056 13.7238L5.36806 24.5584L3.65492 31.6484L6.47209 40.6772ZM72.0665 6.1586C71.248 6.42471 70.4485 6.93793 69.8965 7.86932C68.1453 10.8536 65.6517 15.5866 62.8726 19.1601C60.8549 21.7452 60.8739 21.0799 63.0629 21.7072C67.993 23.1328 85.467 29.9756 99.3816 36.4764C103.341 38.3202 111.278 42.2738 117.979 46.4176C118.873 46.9688 120.015 47.406 121.139 46.8738C129.99 42.673 140.097 38.9474 150.014 37.7309C152.508 37.4268 153.041 36.9326 153.898 34.1384C156.01 27.3335 158.847 20.6237 162.159 14.313C163.644 13.8188 171.676 8.9908 172.438 6.50075C172.571 6.06356 168.345 5.11316 167.869 4.9801L143.771 4.46689L88.4555 7.54619L72.0665 6.1586ZM155.42 37.7309C165.813 39.9168 183.592 48.1663 185.705 49.3448C186.181 49.6109 186.961 49.3638 187.818 48.9076L193.928 39.5367L195.908 32.4277L192.234 18.932L186.733 12.5263L175.255 7.31809C174.665 6.99495 173.637 7.03297 172.495 7.79329C171.809 8.23047 171.219 8.7627 170.725 9.19988C170.039 9.78913 169.354 10.3594 168.631 10.9296C166.822 12.3552 164.862 13.6668 162.749 14.8833C158.713 21.441 156.201 28.436 154.278 35.3929C153.688 37.3888 153.403 37.3127 155.42 37.7309ZM184.944 51.4927C185.191 51.0746 185.191 50.7514 185.02 50.4853C183.269 47.6721 158.561 38.4342 153.574 38.1871C142.895 38.3202 131.17 42.654 121.386 47.5771C120.567 47.9953 122.642 49.4969 123.118 49.839C125.783 51.7778 128.2 53.7737 130.808 55.6175C132.369 56.7199 136.995 57.3092 142.591 58.2216C138.365 57.8414 134.139 57.4612 129.895 57.0811C125.383 57.2902 120.872 57.4993 116.38 57.7084C118.949 57.4993 128.258 56.834 128.334 56.0166C128.372 55.6365 128.124 55.1803 127.553 54.61C120.339 47.482 108.195 41.3424 98.9628 36.8946C85.2767 30.2798 68.9638 24.2162 61.1404 22.2204C59.6366 21.8402 58.7039 22.2204 57.3715 22.8096C54.0594 24.2923 51.1471 26.2691 48.4441 28.493C39.2122 30.6219 30.1896 33.4161 21.2622 36.5334C19.2826 37.2177 8.03295 40.9243 7.29059 41.9507C7.23348 42.0267 7.19541 42.1028 7.13831 42.2168L12.6204 51.9489L23.5655 58.7538L33.3494 58.7728C30.8939 58.8488 27.8102 58.7348 25.4499 59.0009C23.87 59.172 23.337 60.5215 22.5376 61.681C22.6137 61.2819 23.1848 59.0389 22.6708 58.6778C19.7585 56.7389 16.789 54.9142 13.8005 53.1084C12.3348 52.215 11.3641 53.2034 9.97451 53.8497C10.6217 53.2034 12.1635 52.177 11.5544 51.0175C10.1078 48.2233 8.56593 45.4862 7.0241 42.749C6.41498 41.6656 4.45438 42.654 3.4836 42.9011C4.26403 42.3879 6.2627 41.4375 6.11042 40.7342C5.61551 38.2441 4.64473 35.8871 3.84526 33.4921C3.16001 31.4393 2.51282 32.0855 0.495117 32.1426C1.33265 31.8955 2.17019 31.7244 2.98869 31.4203C3.9214 31.0781 4.32114 26.2121 4.41631 25.3187C4.43535 25.0716 4.43535 24.7675 4.26403 24.5964C3.8072 24.1212 3.17904 23.8171 2.64606 23.4369C3.35036 23.5509 4.03561 23.741 4.73991 23.798C5.93911 23.8931 12.5252 14.256 11.7257 13.0015C11.1737 12.0891 10.4123 11.2908 9.72706 10.4164C10.8311 11.1577 11.8019 12.1271 13.0201 12.6403C14.2193 13.1536 21.0338 7.83131 20.6912 6.25364C20.5008 5.39828 20.0821 4.63796 19.7585 3.82061C20.4247 4.71399 21.0338 5.6834 21.7762 6.51975C22.4614 7.28007 31.7505 5.89249 31.9599 4.10573C32.055 3.23137 32.055 2.357 32.1121 1.48263C32.4548 2.50906 32.5309 3.68756 33.1591 4.58094C33.654 5.32225 65.29 5.09415 68.6592 5.32225C69.0589 5.34126 69.9155 5.09415 70.163 4.27681C70.5246 3.06029 70.5817 1.78676 70.7911 0.532227C70.8673 1.80576 70.8673 3.0793 71.0005 4.35284C71.0766 5.15118 71.5715 5.51233 71.9903 5.56935C77.0917 6.1586 82.2311 6.48174 87.3515 6.8619C87.6751 6.88091 88.2081 6.78586 88.2842 6.4057C88.5317 5.05614 88.6269 3.66855 88.7982 2.29997C88.8933 3.68756 88.9314 5.07514 89.1027 6.44372C89.1789 6.97595 89.5405 7.08999 89.9974 7.05198C107.452 5.39828 124.926 4.2578 142.381 4.20077C142.876 4.20077 143.371 3.66855 143.409 3.21236C143.486 2.43303 143.466 1.63469 143.505 0.855363C143.714 1.71072 143.847 2.6041 144.114 3.44045C144.209 3.72557 144.628 4.04871 144.932 4.0297C152.451 3.57351 159.627 3.87764 166.632 4.61895C166.879 4.63796 167.355 4.63796 167.489 4.16276C167.755 3.23137 167.793 2.24295 167.945 1.27354C168.041 2.26196 168.079 3.25037 168.212 4.21978C168.231 4.42887 168.231 4.79002 168.726 4.92308C169.906 5.24622 171.067 5.56935 172.266 5.77844C173.675 6.04455 173.827 3.23137 174.113 2.20493C174.056 2.96525 173.37 6.19662 174.227 6.48174C178.548 7.83131 182.564 9.56104 186.276 11.7089C187.323 12.3172 189.265 10.9106 190.235 10.4354C189.512 11.0247 188.751 11.5379 188.065 12.1841C187.78 12.4503 187.723 13.0585 188.008 13.3056C189.493 14.5792 190.73 16.0428 191.739 17.6775C191.929 18.0006 192.519 18.1146 192.862 17.9246C193.49 17.5824 194.023 17.0882 194.594 16.67C194.061 17.3733 193.452 18.0386 192.995 18.7989C192.862 19.008 192.786 19.2931 192.881 19.5212C194.309 23.3799 195.337 27.1815 195.946 30.9451C196.174 32.3707 198.021 32.1426 199.182 32.3136C197.354 32.7888 195.927 32.3897 195.679 34.4425C195.508 35.7731 195.013 37.1607 194.556 38.5673C194.499 38.7764 194.575 39.0045 194.632 39.1945C194.689 39.3846 194.728 39.5747 194.88 39.7078C195.356 40.1449 195.927 40.4681 196.46 40.8482C195.87 40.6772 195.318 40.392 194.709 40.316C194.48 40.297 194.214 40.392 194.08 40.5631C191.701 43.5474 189.645 46.7027 187.856 49.9531C187.647 50.3142 187.742 51.0175 187.97 51.3407C188.56 52.139 189.226 52.8613 189.855 53.6406C188.979 52.9754 188.16 52.253 187.228 51.6638C186.923 51.4737 186.067 51.3787 185.743 51.5498C181.955 53.4315 178.205 55.4084 174.493 57.4422C173.37 58.0505 174.189 60.5215 174.341 61.51C173.427 59.5711 173.599 58.1836 171.277 58.1645C170.039 58.1455 168.821 58.2406 167.584 58.2786L173.18 57.7274L184.944 51.4927Z" fill="url(#paint25_radial_494_3422)"/>
<path fill-rule="evenodd" clip-rule="evenodd" d="M6.47147 40.6773C6.66182 40.8674 6.8141 40.9815 7.00444 41.0385C7.95619 41.3426 19.2439 36.6666 21.1093 35.9823C29.5037 32.884 38.0504 30.0518 46.9588 27.8279C50.88 25.2618 54.9725 22.8098 59.8073 21.023C61.6537 20.1677 69.6674 9.14302 69.1725 7.60337C69.0202 7.10916 69.0773 6.59594 68.6015 6.00669L32.7206 5.39844L21.6804 7.58436L13.305 13.724L5.36744 24.5585L3.6543 31.6485L6.47147 40.6773Z" fill="url(#paint26_radial_494_3422)"/>
<path fill-rule="evenodd" clip-rule="evenodd" d="M21.2616 36.5525C19.282 37.2368 8.03234 40.9434 7.28997 41.9698C7.23287 42.0459 7.1948 42.1219 7.1377 42.2359L12.6198 51.968L23.5648 58.7729L33.3488 58.7919L58.7604 60.1795L68.8299 58.6589L76.0061 59.5712L116.398 57.7085C118.968 57.4994 128.276 56.8341 128.352 56.0167C128.39 55.6366 128.143 55.1804 127.572 54.6101C120.357 47.4821 108.213 41.3426 98.9812 36.8947C85.2951 30.2799 68.9822 24.2163 61.1588 22.2205C59.6551 21.8403 58.7224 22.2205 57.3899 22.8097C54.0778 24.2924 51.1655 26.2692 48.4625 28.4931C39.2306 30.622 30.189 33.4352 21.2616 36.5525Z" fill="url(#paint27_radial_494_3422)"/>
<path fill-rule="evenodd" clip-rule="evenodd" d="M63.0628 21.7261C67.9929 23.1517 85.4669 29.9946 99.3815 36.4953C103.341 38.3391 111.278 42.2928 117.979 46.4365C118.873 46.9877 120.015 47.4249 121.138 46.8927C129.99 42.6919 140.097 38.9664 150.014 37.7498C152.508 37.4457 153.041 36.9515 153.897 34.1573C156.01 27.3525 158.847 20.6426 162.159 14.332C163.643 13.8378 171.676 9.00971 172.438 6.51966C172.495 6.3676 171.943 6.12049 171.2 5.8924L167.85 4.99902L143.771 4.4668L88.4554 7.5461L72.0663 6.17752C71.2478 6.44363 70.4484 6.95685 69.8964 7.88824C68.1452 10.8725 65.6516 15.6055 62.8725 19.179C60.8357 21.7641 60.8738 21.0988 63.0628 21.7261Z" fill="url(#paint28_radial_494_3422)"/>
<path fill-rule="evenodd" clip-rule="evenodd" d="M153.573 38.187C142.895 38.3201 131.169 42.6539 121.385 47.577C120.567 47.9952 122.642 49.4968 123.118 49.8389C125.782 51.7777 128.2 53.7736 130.808 55.6174C132.369 56.7198 136.994 57.3091 142.59 58.2215L149.253 58.8107L167.602 58.2215L173.198 57.6702L184.905 51.4356C185.152 51.0174 185.152 50.6943 184.981 50.4282C183.268 47.653 158.561 38.4341 153.573 38.187Z" fill="url(#paint29_radial_494_3422)"/>
<path fill-rule="evenodd" clip-rule="evenodd" d="M154.24 35.3929C153.688 37.3888 153.403 37.3127 155.42 37.7309C165.813 39.9168 183.592 48.1663 185.705 49.3448C186.181 49.6109 186.961 49.3638 187.818 48.9076L193.928 39.5367L195.908 32.4277L192.234 18.932L186.733 12.5263L175.255 7.31809L175.064 7.24206C174.455 7.01396 173.523 7.12801 172.495 7.79329C171.809 8.23047 171.219 8.7627 170.724 9.19988C170.039 9.78913 169.354 10.3594 168.631 10.9296C166.822 12.3552 164.862 13.6668 162.749 14.8833C158.694 21.441 156.182 28.455 154.24 35.3929Z" fill="url(#paint30_radial_494_3422)"/>
<path opacity="0.75" fill-rule="evenodd" clip-rule="evenodd" d="M167.641 53.7354C155.801 53.2602 138.517 52.747 126.335 52.9751C107.547 54.2867 88.3982 54.4007 68.8113 54.0016C64.6997 53.9255 60.5501 54.1156 57.1809 55.009C49.3385 54.1156 40.6586 52.5569 32.5497 52.8421C24.7073 53.1082 16.2368 47.0636 12.7344 41.5703C15.8371 47.4248 24.7264 54.3437 32.9495 54.0396C41.934 53.0131 50.3664 55.2941 57.5236 56.7577C61.0831 55.2371 64.9091 55.142 69.0016 55.2371C88.4553 55.6362 107.243 55.085 125.935 53.7354C138.041 53.4883 155.477 54.4577 167.241 54.952C171.162 53.8685 176.739 51.7396 180.737 48.6603C182.088 47.6149 183.325 46.3413 184.429 44.9347C185.02 44.1744 185.572 43.281 186.085 42.3116C185.724 42.9199 185.324 43.4711 184.924 43.9843C183.82 45.3719 182.564 46.6074 181.213 47.6149C177.196 50.6181 171.581 52.671 167.641 53.7354Z" fill="url(#paint31_radial_494_3422)"/>
<path fill-rule="evenodd" clip-rule="evenodd" d="M32.55 9.95998C41.7248 10.2641 56.001 10.5492 68.2024 10.3021C91.92 10.7773 120.758 9.50379 144.723 8.07819C151.918 9.5228 170.458 10.4922 175.94 11.8038C179.424 13.0583 183.783 17.3731 186.733 22.0681C186.923 22.3912 187.114 22.7144 187.304 23.0565C187.018 22.4673 186.733 21.916 186.409 21.4028C183.478 16.6128 179.119 12.2029 175.655 10.9294C170.192 9.59883 151.709 9.0476 144.552 6.78564C120.872 9.19966 91.939 9.88395 68.3357 9.40875C56.1914 9.65586 41.9533 9.35173 32.8165 9.0476C24.2317 9.42776 15.8754 14.3128 12.2207 22.1251C16.0467 14.8641 24.1746 10.3211 32.55 9.95998Z" fill="url(#paint32_radial_494_3422)"/>
<path opacity="0.5" fill-rule="evenodd" clip-rule="evenodd" d="M70.7335 1.55866C77.0151 2.26195 83.4298 3.68756 88.6264 5.24621C105.986 3.68756 125.573 2.88922 143.656 2.49005C151.746 2.22394 160.026 2.39501 167.926 3.04128C170.058 2.75616 172.037 3.00327 173.903 3.66855C179.042 5.66439 184.505 8.40154 188.693 11.3858C190.558 12.6974 192.728 15.4345 193.718 17.5634C195.831 21.6691 197.963 27.9228 199.067 32.3326C199.105 33.6822 199.029 35.0508 198.896 36.4194L200.038 32.2946L195.165 16.1758L190.616 10.2263L174.169 1.9008L167.964 1.04544L143.485 0.494208L88.8357 1.71072L70.8287 0L32.0355 1.04544L19.5867 3.51648L9.403 10.1123L2.16973 23.2658L0.551758 30.0327C1.52254 27.9418 2.49332 25.8509 3.7877 23.9121C5.95768 19.7873 8.24187 15.7006 11.3636 11.918C14.0475 9.37095 16.9789 6.99495 20.3481 4.96109C24.3835 3.99168 28.4189 3.42144 32.4543 3.66855C44.808 2.05287 58.8177 1.53965 70.7335 1.55866Z" fill="#EDF5F7"/>
<path opacity="0.5" fill-rule="evenodd" clip-rule="evenodd" d="M164.328 29.9188C163.757 29.8618 163.091 30.0899 162.729 30.527C161.968 31.4584 161.416 32.5989 161.169 33.7774C160.902 35.0129 163.015 36.1914 164.043 36.2294C164.861 36.2675 165.813 35.9443 166.289 35.2981C167.05 34.2526 165.927 30.0899 164.328 29.9188Z" fill="#BDC8C9"/>
<path fill-rule="evenodd" clip-rule="evenodd" d="M163.986 29.5384C163.415 29.4814 162.748 29.7095 162.387 30.1467C161.625 31.0781 161.073 32.2185 160.826 33.397C160.559 34.6326 162.672 35.8111 163.7 35.8491C164.519 35.8871 165.47 35.564 165.946 34.9177C166.708 33.8722 165.565 29.6905 163.986 29.5384Z" fill="url(#paint33_radial_494_3422)"/>
<path opacity="0.5" fill-rule="evenodd" clip-rule="evenodd" d="M27.6006 19.9585C26.2301 20.1486 24.8215 20.5668 23.7365 21.4411C22.4422 22.4676 20.5767 25.927 21.281 27.5997C21.6808 28.5311 22.5944 29.4055 23.6033 29.5576C25.1451 29.8047 26.8583 29.5195 28.1907 28.7022C29.4661 27.9229 30.2275 26.6874 31.2553 25.6039C31.9216 24.9006 32.702 24.2353 33.254 23.437C34.2058 22.1064 33.0256 20.4907 32.0358 20.2246C30.3797 19.7874 29.3138 19.7114 27.6006 19.9585Z" fill="#BDC8C9"/>
<path fill-rule="evenodd" clip-rule="evenodd" d="M27.3536 19.6162C25.983 19.8063 24.5745 20.2245 23.4895 21.0989C22.1951 22.1253 20.3297 25.5847 21.034 27.2575C21.4337 28.1888 22.3474 29.0632 23.3562 29.2153C24.8981 29.4624 26.6112 29.1773 27.9436 28.3599C29.219 27.5806 29.9804 26.3451 31.0083 25.2616C31.6745 24.5583 32.4549 23.893 33.0069 23.0947C33.9587 21.7641 32.7785 20.1485 31.7887 19.8823C30.1327 19.4452 29.0667 19.3691 27.3536 19.6162Z" fill="url(#paint34_radial_494_3422)"/>
<path opacity="0.5" fill-rule="evenodd" clip-rule="evenodd" d="M171.486 29.1013C170.096 28.0749 169.068 26.8584 167.831 25.6609C166.803 24.6725 165.166 23.8931 164.709 22.5436C164.119 20.8328 165.756 19.0461 168.383 18.837C170.572 18.6659 173.351 19.0081 174.398 19.3502C176.815 20.1486 179.347 21.3081 180.565 23.551C181.498 25.2617 180.946 28.4551 179.138 29.3484C177.272 30.2798 173.275 30.4319 171.486 29.1013Z" fill="#BDC8C9"/>
<path fill-rule="evenodd" clip-rule="evenodd" d="M171.676 28.5501C170.286 27.5236 169.259 26.3071 168.021 25.1096C166.993 24.1212 165.356 23.3419 164.9 21.9923C164.31 20.2816 165.947 18.4948 168.573 18.2857C170.762 18.1147 173.541 18.4568 174.588 18.799C177.006 19.5973 179.537 20.7568 180.756 22.9807C181.688 24.6914 181.136 27.8848 179.328 28.7782C177.482 29.7286 173.484 29.8806 171.676 28.5501Z" fill="url(#paint35_radial_494_3422)"/>
<path fill-rule="evenodd" clip-rule="evenodd" d="M32.55 9.96044C21.0339 10.4737 9.93652 18.8562 9.93652 31.4205C9.93652 34.4618 11.1928 38.9287 11.7448 39.765C14.3146 45.6385 23.813 53.1657 32.55 52.8615C40.6589 52.5764 49.3198 54.1351 57.1812 55.0285C60.5504 54.1161 64.7191 53.926 68.8116 54.021C88.3795 54.4202 107.529 54.3062 126.335 52.9946C138.517 52.7665 155.801 53.2797 167.641 53.7549C171.581 52.6905 177.196 50.6376 181.213 47.6343C182.564 46.6269 183.821 45.3914 184.925 44.0038C187.951 40.2592 190.064 32.8081 190.064 31.4395C190.064 30.223 188.789 25.3379 186.733 22.0876C183.783 17.3926 179.404 13.0778 175.94 11.8232C170.458 10.5117 151.918 9.54227 144.723 8.09766C120.758 9.50425 91.92 10.7778 68.2024 10.3216C56.0201 10.5687 41.7249 10.2646 32.55 9.96044ZM32.6642 12.5455C27.3344 12.7736 21.662 14.1992 17.8551 17.6967C12.1446 22.9619 9.91749 31.7817 13.439 39.1378C16.713 45.9806 25.0122 50.2384 32.6452 50.5806C40.5637 50.9227 49.1485 52.2533 57.067 52.5194C58.723 52.0822 64.7571 51.8161 68.6593 51.588C86.1143 52.6334 106.025 52.9566 124.755 51.55C137.623 51.9872 153.498 51.8541 167.374 51.2459C171.505 51.0558 176.416 49.212 179.861 46.9501C184.848 43.6807 187.551 38.0163 187.551 31.4015C187.551 23.076 181.955 16.9174 174.893 14.1422C169.24 11.9183 150.852 10.6637 144.704 10.5307C118.854 9.96044 92.9479 11.5381 67.2317 12.0893C55.5442 12.3364 44.3326 12.0323 32.6642 12.5455Z" fill="url(#paint36_linear_494_3422)"/>
<path fill-rule="evenodd" clip-rule="evenodd" d="M32.664 12.5454C27.3342 12.7735 21.6618 14.1991 17.8548 17.6966C12.1443 22.9618 9.91726 31.7815 13.4387 39.1376C16.7127 45.9805 25.012 50.2383 32.645 50.5804C40.5635 50.9226 49.1483 52.2531 57.0668 52.5193C58.7228 52.0821 64.7569 51.816 68.659 51.5879C86.1141 52.6333 106.025 52.9564 124.755 51.5499C137.623 51.987 153.498 51.854 167.374 51.2457C171.505 51.0556 176.416 49.2119 179.861 46.9499C184.848 43.6805 187.551 38.0161 187.551 31.4014C187.551 23.0758 181.955 16.9172 174.893 14.1421C169.24 11.9181 150.852 10.6636 144.704 10.5305C118.854 9.9603 92.9476 11.538 67.2314 12.0892C55.544 12.3363 44.3324 12.0322 32.664 12.5454Z" fill="url(#paint37_linear_494_3422)"/>
<defs>
<radialGradient id="paint0_radial_494_3422" cx="0" cy="0" r="1" gradientUnits="userSpaceOnUse" gradientTransform="translate(-9.37394 17.4688) scale(39.0309 38.9757)">
<stop stop-color="#9DA9AB"/>
<stop offset="1" stop-color="#555763"/>
</radialGradient>
<radialGradient id="paint1_radial_494_3422" cx="0" cy="0" r="1" gradientUnits="userSpaceOnUse" gradientTransform="translate(-9.03545 5.29662) scale(27.2021 27.1636)">
<stop stop-color="#E4ECF0"/>
<stop offset="1" stop-color="#828D94"/>
</radialGradient>
<radialGradient id="paint2_radial_494_3422" cx="0" cy="0" r="1" gradientUnits="userSpaceOnUse" gradientTransform="translate(7.32737 -5.17082) scale(22.1719 22.1405)">
<stop stop-color="#E4ECF0"/>
<stop offset="1" stop-color="#828D94"/>
</radialGradient>
<radialGradient id="paint3_radial_494_3422" cx="0" cy="0" r="1" gradientUnits="userSpaceOnUse" gradientTransform="translate(14.6202 -31.4123) scale(40.77 40.7123)">
<stop stop-color="#E4ECF0"/>
<stop offset="1" stop-color="#A6B4BD"/>
</radialGradient>
<radialGradient id="paint4_radial_494_3422" cx="0" cy="0" r="1" gradientUnits="userSpaceOnUse" gradientTransform="translate(53.5298 -43.593) scale(52.0126 51.939)">
<stop stop-color="#E4ECF0"/>
<stop offset="1" stop-color="#9BA8B0"/>
</radialGradient>
<radialGradient id="paint5_radial_494_3422" cx="0" cy="0" r="1" gradientUnits="userSpaceOnUse" gradientTransform="translate(87.3383 -43.5362) scale(50.777 50.7052)">
<stop stop-color="#E4ECF0"/>
<stop offset="1" stop-color="#929EA6"/>
</radialGradient>
<radialGradient id="paint6_radial_494_3422" cx="0" cy="0" r="1" gradientUnits="userSpaceOnUse" gradientTransform="translate(141.815 -59.1758) scale(68.1806 68.0843)">
<stop stop-color="#E4ECF0"/>
<stop offset="1" stop-color="#929EA6"/>
</radialGradient>
<radialGradient id="paint7_radial_494_3422" cx="0" cy="0" r="1" gradientUnits="userSpaceOnUse" gradientTransform="translate(156.248 -33.7298) scale(43.4763 43.4149)">
<stop stop-color="#BDCACF"/>
<stop offset="1" stop-color="#828599"/>
</radialGradient>
<radialGradient id="paint8_radial_494_3422" cx="0" cy="0" r="1" gradientUnits="userSpaceOnUse" gradientTransform="translate(172.579 -9.32708) scale(21.9242 21.8932)">
<stop stop-color="#E4ECF0"/>
<stop offset="1" stop-color="#A6B4BD"/>
</radialGradient>
<radialGradient id="paint9_radial_494_3422" cx="0" cy="0" r="1" gradientUnits="userSpaceOnUse" gradientTransform="translate(187.583 -27.3542) scale(40.2456 40.1887)">
<stop stop-color="#E4ECF0"/>
<stop offset="1" stop-color="#A6B4BD"/>
</radialGradient>
<radialGradient id="paint10_radial_494_3422" cx="0" cy="0" r="1" gradientUnits="userSpaceOnUse" gradientTransform="translate(201.593 -16.3254) scale(36.3585 36.307)">
<stop stop-color="#E4ECF0"/>
<stop offset="1" stop-color="#929EA6"/>
</radialGradient>
<radialGradient id="paint11_radial_494_3422" cx="0" cy="0" r="1" gradientUnits="userSpaceOnUse" gradientTransform="translate(199.261 11.1407) scale(37.0698 37.0174)">
<stop stop-color="#9DA9AB"/>
<stop offset="1" stop-color="#555763"/>
</radialGradient>
<radialGradient id="paint12_radial_494_3422" cx="0" cy="0" r="1" gradientUnits="userSpaceOnUse" gradientTransform="translate(203.956 28.1995) scale(20.4251 20.3962)">
<stop stop-color="#9DA9AB"/>
<stop offset="1" stop-color="#555763"/>
</radialGradient>
<radialGradient id="paint13_radial_494_3422" cx="0" cy="0" r="1" gradientUnits="userSpaceOnUse" gradientTransform="translate(182.919 28.8897) scale(34.9243 34.875)">
<stop stop-color="#9DA9AB"/>
<stop offset="1" stop-color="#555763"/>
</radialGradient>
<radialGradient id="paint14_radial_494_3422" cx="0" cy="0" r="1" gradientUnits="userSpaceOnUse" gradientTransform="translate(163.908 31.3158) scale(39.1459 39.0906)">
<stop stop-color="#9DA9AB"/>
<stop offset="1" stop-color="#555763"/>
</radialGradient>
<radialGradient id="paint15_radial_494_3422" cx="0" cy="0" r="1" gradientUnits="userSpaceOnUse" gradientTransform="translate(169.11 90.0059) scale(49.5667 49.4966)">
<stop stop-color="#9DA9AB"/>
<stop offset="1" stop-color="#555763"/>
</radialGradient>
<radialGradient id="paint16_radial_494_3422" cx="0" cy="0" r="1" gradientUnits="userSpaceOnUse" gradientTransform="translate(122.734 77.8316) scale(33.0743 33.0276)">
<stop stop-color="#9DA9AB"/>
<stop offset="1" stop-color="#555763"/>
</radialGradient>
<radialGradient id="paint17_radial_494_3422" cx="0" cy="0" r="1" gradientUnits="userSpaceOnUse" gradientTransform="translate(121.239 91.7207) scale(73.3777 73.274)">
<stop stop-color="#9DA9AB"/>
<stop offset="1" stop-color="#555763"/>
</radialGradient>
<radialGradient id="paint18_radial_494_3422" cx="0" cy="0" r="1" gradientUnits="userSpaceOnUse" gradientTransform="translate(76.0136 39.7902) scale(33.3555 33.3083)">
<stop stop-color="#9DA9AB"/>
<stop offset="1" stop-color="#555763"/>
</radialGradient>
<radialGradient id="paint19_radial_494_3422" cx="0" cy="0" r="1" gradientUnits="userSpaceOnUse" gradientTransform="translate(62.926 39.2666) scale(24.4441 24.4095)">
<stop stop-color="#9DA9AB"/>
<stop offset="1" stop-color="#555763"/>
</radialGradient>
<radialGradient id="paint20_radial_494_3422" cx="0" cy="0" r="1" gradientUnits="userSpaceOnUse" gradientTransform="translate(49.1441 90.368) scale(42.2275 42.1678)">
<stop stop-color="#9DA9AB"/>
<stop offset="1" stop-color="#555763"/>
</radialGradient>
<radialGradient id="paint21_radial_494_3422" cx="0" cy="0" r="1" gradientUnits="userSpaceOnUse" gradientTransform="translate(19.8007 81.9761) scale(40.5358 40.4786)">
<stop stop-color="#9DA9AB"/>
<stop offset="1" stop-color="#555763"/>
</radialGradient>
<radialGradient id="paint22_radial_494_3422" cx="0" cy="0" r="1" gradientUnits="userSpaceOnUse" gradientTransform="translate(25.579 34.4735) scale(28.729 28.6884)">
<stop stop-color="#9DA9AB"/>
<stop offset="1" stop-color="#555763"/>
</radialGradient>
<radialGradient id="paint23_radial_494_3422" cx="0" cy="0" r="1" gradientUnits="userSpaceOnUse" gradientTransform="translate(-12.9089 45.6662) scale(43.7908 43.7289)">
<stop stop-color="#9DA9AB"/>
<stop offset="1" stop-color="#555763"/>
</radialGradient>
<radialGradient id="paint24_radial_494_3422" cx="0" cy="0" r="1" gradientUnits="userSpaceOnUse" gradientTransform="translate(-5.88884 32.3894) scale(30.1264 30.0838)">
<stop stop-color="#9DA9AB"/>
<stop offset="1" stop-color="#555763"/>
</radialGradient>
<radialGradient id="paint25_radial_494_3422" cx="0" cy="0" r="1" gradientUnits="userSpaceOnUse" gradientTransform="translate(34.0343 -55.1098) scale(218.594 218.285)">
<stop stop-color="#E2F1F7"/>
<stop offset="1" stop-color="#9A9DB5"/>
</radialGradient>
<radialGradient id="paint26_radial_494_3422" cx="0" cy="0" r="1" gradientUnits="userSpaceOnUse" gradientTransform="translate(29.4362 57.7883) scale(91.543 91.4136)">
<stop stop-color="#AAB4B8"/>
<stop offset="1" stop-color="#828599"/>
</radialGradient>
<radialGradient id="paint27_radial_494_3422" cx="0" cy="0" r="1" gradientUnits="userSpaceOnUse" gradientTransform="translate(55.0437 99.6763) scale(143.455 143.252)">
<stop stop-color="#717485"/>
<stop offset="1" stop-color="#9DA9AB"/>
</radialGradient>
<radialGradient id="paint28_radial_494_3422" cx="0" cy="0" r="1" gradientUnits="userSpaceOnUse" gradientTransform="translate(89.5149 81.892) scale(139.93 139.732)">
<stop stop-color="#AAB4B8"/>
<stop offset="1" stop-color="#828599"/>
</radialGradient>
<radialGradient id="paint29_radial_494_3422" cx="0" cy="0" r="1" gradientUnits="userSpaceOnUse" gradientTransform="translate(128.936 -6.06423) scale(85.7554 85.6342)">
<stop stop-color="#9DA9AB"/>
<stop offset="1" stop-color="#717485"/>
</radialGradient>
<radialGradient id="paint30_radial_494_3422" cx="0" cy="0" r="1" gradientUnits="userSpaceOnUse" gradientTransform="translate(135.947 39.5861) scale(71.0633 70.9628)">
<stop stop-color="#9DA9AB"/>
<stop offset="1" stop-color="#717485"/>
</radialGradient>
<radialGradient id="paint31_radial_494_3422" cx="0" cy="0" r="1" gradientUnits="userSpaceOnUse" gradientTransform="translate(71.4394 4.83959) scale(135.617 135.425)">
<stop stop-color="#E2F1F7"/>
<stop offset="1" stop-color="#9A9DB5"/>
</radialGradient>
<radialGradient id="paint32_radial_494_3422" cx="0" cy="0" r="1" gradientUnits="userSpaceOnUse" gradientTransform="translate(68.0614 3.27753) scale(120.389 120.219)">
<stop stop-color="#E2F1F7"/>
<stop offset="1" stop-color="#9A9DB5"/>
</radialGradient>
<radialGradient id="paint33_radial_494_3422" cx="0" cy="0" r="1" gradientUnits="userSpaceOnUse" gradientTransform="translate(167.225 38.3323) scale(9.57303 9.55952)">
<stop stop-color="#9DA9AB"/>
<stop offset="1" stop-color="#717485"/>
</radialGradient>
<radialGradient id="paint34_radial_494_3422" cx="0" cy="0" r="1" gradientUnits="userSpaceOnUse" gradientTransform="translate(31.4543 30.6897) rotate(5.78854) scale(15.7803 15.7585)">
<stop stop-color="#9DA9AB"/>
<stop offset="1" stop-color="#717485"/>
</radialGradient>
<radialGradient id="paint35_radial_494_3422" cx="0" cy="0" r="1" gradientUnits="userSpaceOnUse" gradientTransform="translate(171.752 32.7742) scale(14.615 14.5944)">
<stop stop-color="#A3AAB0"/>
<stop offset="0.126" stop-color="#9DA4AB"/>
<stop offset="1" stop-color="#777A8C"/>
</radialGradient>
<linearGradient id="paint36_linear_494_3422" x1="100.002" y1="55.0231" x2="100.002" y2="8.07998" gradientUnits="userSpaceOnUse">
<stop stop-color="#5B666B"/>
<stop offset="1" stop-color="#4A555C"/>
</linearGradient>
<linearGradient id="paint37_linear_494_3422" x1="16" y1="13.5001" x2="166.5" y2="61.5001" gradientUnits="userSpaceOnUse">
<stop stop-color="#4090FF"/>
<stop offset="0.9862" stop-color="#12417F"/>
</linearGradient>
</defs>
</svg>
