<svg width="1144" height="547" viewBox="0 0 1144 547" fill="none" xmlns="http://www.w3.org/2000/svg">
<path d="M100.954 533.268C100.954 531.192 101.326 529.566 102.07 528.39C102.826 527.214 104.074 526.626 105.814 526.626C107.554 526.626 108.796 527.214 109.54 528.39C110.296 529.566 110.674 531.192 110.674 533.268C110.674 535.356 110.296 536.994 109.54 538.182C108.796 539.37 107.554 539.964 105.814 539.964C104.074 539.964 102.826 539.37 102.07 538.182C101.326 536.994 100.954 535.356 100.954 533.268ZM108.19 533.268C108.19 532.38 108.13 531.636 108.01 531.036C107.902 530.424 107.674 529.926 107.326 529.542C106.99 529.158 106.486 528.966 105.814 528.966C105.142 528.966 104.632 529.158 104.284 529.542C103.948 529.926 103.72 530.424 103.6 531.036C103.492 531.636 103.438 532.38 103.438 533.268C103.438 534.18 103.492 534.948 103.6 535.572C103.708 536.184 103.936 536.682 104.284 537.066C104.632 537.438 105.142 537.624 105.814 537.624C106.486 537.624 106.996 537.438 107.344 537.066C107.692 536.682 107.92 536.184 108.028 535.572C108.136 534.948 108.19 534.18 108.19 533.268Z" fill="white"/>
<path d="M130 533.5H1143.5" stroke="white"/>
<path d="M13.056 9.248V11.96H8.592V26H5.232V11.96H0.768V9.248H13.056ZM21.4116 26.216C20.1316 26.216 18.9796 25.936 17.9556 25.376C16.9316 24.8 16.1236 23.992 15.5316 22.952C14.9556 21.912 14.6676 20.712 14.6676 19.352C14.6676 17.992 14.9636 16.792 15.5556 15.752C16.1636 14.712 16.9876 13.912 18.0276 13.352C19.0676 12.776 20.2276 12.488 21.5076 12.488C22.7876 12.488 23.9476 12.776 24.9876 13.352C26.0276 13.912 26.8436 14.712 27.4356 15.752C28.0436 16.792 28.3476 17.992 28.3476 19.352C28.3476 20.712 28.0356 21.912 27.4116 22.952C26.8036 23.992 25.9716 24.8 24.9156 25.376C23.8756 25.936 22.7076 26.216 21.4116 26.216ZM21.4116 23.288C22.0196 23.288 22.5876 23.144 23.1156 22.856C23.6596 22.552 24.0916 22.104 24.4116 21.512C24.7316 20.92 24.8916 20.2 24.8916 19.352C24.8916 18.088 24.5556 17.12 23.8836 16.448C23.2276 15.76 22.4196 15.416 21.4596 15.416C20.4996 15.416 19.6916 15.76 19.0356 16.448C18.3956 17.12 18.0756 18.088 18.0756 19.352C18.0756 20.616 18.3876 21.592 19.0116 22.28C19.6516 22.952 20.4516 23.288 21.4116 23.288ZM38.6843 26L34.1723 20.336V26H30.8123V8.24H34.1723V18.344L38.6363 12.704H43.0043L37.1483 19.376L43.0523 26H38.6843ZM57.1879 19.064C57.1879 19.544 57.1559 19.976 57.0919 20.36H47.3719C47.4519 21.32 47.7879 22.072 48.3799 22.616C48.9719 23.16 49.6999 23.432 50.5639 23.432C51.8119 23.432 52.6999 22.896 53.2279 21.824H56.8519C56.4679 23.104 55.7319 24.16 54.6439 24.992C53.5559 25.808 52.2199 26.216 50.6359 26.216C49.3559 26.216 48.2039 25.936 47.1799 25.376C46.1719 24.8 45.3799 23.992 44.8039 22.952C44.2439 21.912 43.9639 20.712 43.9639 19.352C43.9639 17.976 44.2439 16.768 44.8039 15.728C45.3639 14.688 46.1479 13.888 47.1559 13.328C48.1639 12.768 49.3239 12.488 50.6359 12.488C51.8999 12.488 53.0279 12.76 54.0199 13.304C55.0279 13.848 55.8039 14.624 56.3479 15.632C56.9079 16.624 57.1879 17.768 57.1879 19.064ZM53.7079 18.104C53.6919 17.24 53.3799 16.552 52.7719 16.04C52.1639 15.512 51.4199 15.248 50.5399 15.248C49.7079 15.248 49.0039 15.504 48.4279 16.016C47.8679 16.512 47.5239 17.208 47.3959 18.104H53.7079ZM67.0084 12.512C68.5924 12.512 69.8724 13.016 70.8484 14.024C71.8244 15.016 72.3124 16.408 72.3124 18.2V26H68.9524V18.656C68.9524 17.6 68.6884 16.792 68.1604 16.232C67.6324 15.656 66.9124 15.368 66.0004 15.368C65.0724 15.368 64.3364 15.656 63.7924 16.232C63.2644 16.792 63.0004 17.6 63.0004 18.656V26H59.6404V12.704H63.0004V14.36C63.4484 13.784 64.0164 13.336 64.7044 13.016C65.4084 12.68 66.1764 12.512 67.0084 12.512ZM89.8663 26L86.1703 19.472H84.5863V26H81.2263V9.248H87.5143C88.8103 9.248 89.9143 9.48 90.8263 9.944C91.7383 10.392 92.4183 11.008 92.8663 11.792C93.3303 12.56 93.5623 13.424 93.5623 14.384C93.5623 15.488 93.2423 16.488 92.6023 17.384C91.9623 18.264 91.0103 18.872 89.7463 19.208L93.7543 26H89.8663ZM84.5863 16.952H87.3943C88.3063 16.952 88.9863 16.736 89.4343 16.304C89.8823 15.856 90.1063 15.24 90.1063 14.456C90.1063 13.688 89.8823 13.096 89.4343 12.68C88.9863 12.248 88.3063 12.032 87.3943 12.032H84.5863V16.952ZM108.961 19.064C108.961 19.544 108.929 19.976 108.865 20.36H99.1453C99.2253 21.32 99.5613 22.072 100.153 22.616C100.745 23.16 101.473 23.432 102.337 23.432C103.585 23.432 104.473 22.896 105.001 21.824H108.625C108.241 23.104 107.505 24.16 106.417 24.992C105.329 25.808 103.993 26.216 102.409 26.216C101.129 26.216 99.9773 25.936 98.9533 25.376C97.9453 24.8 97.1533 23.992 96.5773 22.952C96.0173 21.912 95.7373 20.712 95.7373 19.352C95.7373 17.976 96.0173 16.768 96.5773 15.728C97.1373 14.688 97.9213 13.888 98.9293 13.328C99.9373 12.768 101.097 12.488 102.409 12.488C103.673 12.488 104.801 12.76 105.793 13.304C106.801 13.848 107.577 14.624 108.121 15.632C108.681 16.624 108.961 17.768 108.961 19.064ZM105.481 18.104C105.465 17.24 105.153 16.552 104.545 16.04C103.937 15.512 103.193 15.248 102.313 15.248C101.481 15.248 100.777 15.504 100.201 16.016C99.6413 16.512 99.2973 17.208 99.1693 18.104H105.481ZM114.774 8.24V26H111.414V8.24H114.774ZM130.454 19.064C130.454 19.544 130.422 19.976 130.358 20.36H120.638C120.718 21.32 121.054 22.072 121.646 22.616C122.238 23.16 122.966 23.432 123.83 23.432C125.078 23.432 125.966 22.896 126.494 21.824H130.118C129.734 23.104 128.998 24.16 127.91 24.992C126.822 25.808 125.486 26.216 123.902 26.216C122.622 26.216 121.47 25.936 120.446 25.376C119.438 24.8 118.646 23.992 118.07 22.952C117.51 21.912 117.229 20.712 117.229 19.352C117.229 17.976 117.51 16.768 118.07 15.728C118.63 14.688 119.414 13.888 120.422 13.328C121.43 12.768 122.59 12.488 123.902 12.488C125.166 12.488 126.294 12.76 127.286 13.304C128.294 13.848 129.07 14.624 129.614 15.632C130.174 16.624 130.454 17.768 130.454 19.064ZM126.974 18.104C126.958 17.24 126.646 16.552 126.038 16.04C125.43 15.512 124.686 15.248 123.806 15.248C122.974 15.248 122.27 15.504 121.694 16.016C121.134 16.512 120.79 17.208 120.662 18.104H126.974ZM132.042 19.304C132.042 17.96 132.306 16.768 132.834 15.728C133.378 14.688 134.106 13.888 135.018 13.328C135.946 12.768 136.978 12.488 138.114 12.488C139.106 12.488 139.97 12.688 140.706 13.088C141.458 13.488 142.058 13.992 142.506 14.6V12.704H145.89V26H142.506V24.056C142.074 24.68 141.474 25.2 140.706 25.616C139.954 26.016 139.082 26.216 138.09 26.216C136.97 26.216 135.946 25.928 135.018 25.352C134.106 24.776 133.378 23.968 132.834 22.928C132.306 21.872 132.042 20.664 132.042 19.304ZM142.506 19.352C142.506 18.536 142.346 17.84 142.026 17.264C141.706 16.672 141.274 16.224 140.73 15.92C140.186 15.6 139.602 15.44 138.978 15.44C138.354 15.44 137.778 15.592 137.25 15.896C136.722 16.2 136.29 16.648 135.954 17.24C135.634 17.816 135.474 18.504 135.474 19.304C135.474 20.104 135.634 20.808 135.954 21.416C136.29 22.008 136.722 22.464 137.25 22.784C137.794 23.104 138.37 23.264 138.978 23.264C139.602 23.264 140.186 23.112 140.73 22.808C141.274 22.488 141.706 22.04 142.026 21.464C142.346 20.872 142.506 20.168 142.506 19.352ZM154.26 26.216C153.172 26.216 152.196 26.024 151.332 25.64C150.468 25.24 149.78 24.704 149.268 24.032C148.772 23.36 148.5 22.616 148.452 21.8H151.836C151.9 22.312 152.148 22.736 152.58 23.072C153.028 23.408 153.58 23.576 154.236 23.576C154.876 23.576 155.372 23.448 155.724 23.192C156.092 22.936 156.276 22.608 156.276 22.208C156.276 21.776 156.052 21.456 155.604 21.248C155.172 21.024 154.476 20.784 153.516 20.528C152.524 20.288 151.708 20.04 151.068 19.784C150.444 19.528 149.9 19.136 149.436 18.608C148.988 18.08 148.764 17.368 148.764 16.472C148.764 15.736 148.972 15.064 149.388 14.456C149.82 13.848 150.428 13.368 151.212 13.016C152.012 12.664 152.948 12.488 154.02 12.488C155.604 12.488 156.868 12.888 157.812 13.688C158.756 14.472 159.276 15.536 159.372 16.88H156.156C156.108 16.352 155.884 15.936 155.484 15.632C155.1 15.312 154.58 15.152 153.924 15.152C153.316 15.152 152.844 15.264 152.508 15.488C152.188 15.712 152.028 16.024 152.028 16.424C152.028 16.872 152.252 17.216 152.7 17.456C153.148 17.68 153.844 17.912 154.788 18.152C155.748 18.392 156.54 18.64 157.164 18.896C157.788 19.152 158.324 19.552 158.772 20.096C159.236 20.624 159.476 21.328 159.492 22.208C159.492 22.976 159.276 23.664 158.844 24.272C158.428 24.88 157.82 25.36 157.02 25.712C156.236 26.048 155.316 26.216 154.26 26.216ZM174.61 19.064C174.61 19.544 174.578 19.976 174.514 20.36H164.794C164.874 21.32 165.21 22.072 165.802 22.616C166.394 23.16 167.122 23.432 167.986 23.432C169.234 23.432 170.122 22.896 170.65 21.824H174.274C173.89 23.104 173.154 24.16 172.066 24.992C170.978 25.808 169.642 26.216 168.058 26.216C166.778 26.216 165.626 25.936 164.602 25.376C163.594 24.8 162.802 23.992 162.226 22.952C161.666 21.912 161.386 20.712 161.386 19.352C161.386 17.976 161.666 16.768 162.226 15.728C162.786 14.688 163.57 13.888 164.578 13.328C165.586 12.768 166.746 12.488 168.058 12.488C169.322 12.488 170.45 12.76 171.442 13.304C172.45 13.848 173.226 14.624 173.77 15.632C174.33 16.624 174.61 17.768 174.61 19.064ZM171.13 18.104C171.114 17.24 170.802 16.552 170.194 16.04C169.586 15.512 168.842 15.248 167.962 15.248C167.13 15.248 166.426 15.504 165.85 16.016C165.29 16.512 164.946 17.208 164.818 18.104H171.13Z" fill="white"/>
<path d="M9.746 435.156C10.898 434.196 11.816 433.398 12.5 432.762C13.184 432.114 13.754 431.442 14.21 430.746C14.666 430.05 14.894 429.366 14.894 428.694C14.894 428.082 14.75 427.602 14.462 427.254C14.174 426.906 13.73 426.732 13.13 426.732C12.53 426.732 12.068 426.936 11.744 427.344C11.42 427.74 11.252 428.286 11.24 428.982H8.792C8.84 427.542 9.266 426.45 10.07 425.706C10.886 424.962 11.918 424.59 13.166 424.59C14.534 424.59 15.584 424.956 16.316 425.688C17.048 426.408 17.414 427.362 17.414 428.55C17.414 429.486 17.162 430.38 16.658 431.232C16.154 432.084 15.578 432.828 14.93 433.464C14.282 434.088 13.436 434.844 12.392 435.732H17.702V437.82H8.81V435.948L9.746 435.156ZM28.1099 427.056H22.2779V430.134C22.5299 429.822 22.8899 429.57 23.3579 429.378C23.8259 429.174 24.3239 429.072 24.8519 429.072C25.8119 429.072 26.5979 429.282 27.2099 429.702C27.8219 430.122 28.2659 430.662 28.5419 431.322C28.8179 431.97 28.9559 432.666 28.9559 433.41C28.9559 434.79 28.5599 435.9 27.7679 436.74C26.9879 437.58 25.8719 438 24.4199 438C23.0519 438 21.9599 437.658 21.1439 436.974C20.3279 436.29 19.8659 435.396 19.7579 434.292H22.2059C22.3139 434.772 22.5539 435.156 22.9259 435.444C23.3099 435.732 23.7959 435.876 24.3839 435.876C25.0919 435.876 25.6259 435.654 25.9859 435.21C26.3459 434.766 26.5259 434.178 26.5259 433.446C26.5259 432.702 26.3399 432.138 25.9679 431.754C25.6079 431.358 25.0739 431.16 24.3659 431.16C23.8619 431.16 23.4419 431.286 23.1059 431.538C22.7699 431.79 22.5299 432.126 22.3859 432.546H19.9739V424.842H28.1099V427.056ZM30.8739 431.268C30.8739 429.192 31.2459 427.566 31.9899 426.39C32.7459 425.214 33.9939 424.626 35.7339 424.626C37.4739 424.626 38.7159 425.214 39.4599 426.39C40.2159 427.566 40.5939 429.192 40.5939 431.268C40.5939 433.356 40.2159 434.994 39.4599 436.182C38.7159 437.37 37.4739 437.964 35.7339 437.964C33.9939 437.964 32.7459 437.37 31.9899 436.182C31.2459 434.994 30.8739 433.356 30.8739 431.268ZM38.1099 431.268C38.1099 430.38 38.0499 429.636 37.9299 429.036C37.8219 428.424 37.5939 427.926 37.2459 427.542C36.9099 427.158 36.4059 426.966 35.7339 426.966C35.0619 426.966 34.5519 427.158 34.2039 427.542C33.8679 427.926 33.6399 428.424 33.5199 429.036C33.4119 429.636 33.3579 430.38 33.3579 431.268C33.3579 432.18 33.4119 432.948 33.5199 433.572C33.6279 434.184 33.8559 434.682 34.2039 435.066C34.5519 435.438 35.0619 435.624 35.7339 435.624C36.4059 435.624 36.9159 435.438 37.2639 435.066C37.6119 434.682 37.8399 434.184 37.9479 433.572C38.0559 432.948 38.1099 432.18 38.1099 431.268ZM42.5106 431.268C42.5106 429.192 42.8826 427.566 43.6266 426.39C44.3826 425.214 45.6306 424.626 47.3706 424.626C49.1106 424.626 50.3526 425.214 51.0966 426.39C51.8526 427.566 52.2306 429.192 52.2306 431.268C52.2306 433.356 51.8526 434.994 51.0966 436.182C50.3526 437.37 49.1106 437.964 47.3706 437.964C45.6306 437.964 44.3826 437.37 43.6266 436.182C42.8826 434.994 42.5106 433.356 42.5106 431.268ZM49.7466 431.268C49.7466 430.38 49.6866 429.636 49.5666 429.036C49.4586 428.424 49.2306 427.926 48.8826 427.542C48.5466 427.158 48.0426 426.966 47.3706 426.966C46.6986 426.966 46.1886 427.158 45.8406 427.542C45.5046 427.926 45.2766 428.424 45.1566 429.036C45.0486 429.636 44.9946 430.38 44.9946 431.268C44.9946 432.18 45.0486 432.948 45.1566 433.572C45.2646 434.184 45.4926 434.682 45.8406 435.066C46.1886 435.438 46.6986 435.624 47.3706 435.624C48.0426 435.624 48.5526 435.438 48.9006 435.066C49.2486 434.682 49.4766 434.184 49.5846 433.572C49.6926 432.948 49.7466 432.18 49.7466 431.268ZM54.1474 431.268C54.1474 429.192 54.5194 427.566 55.2634 426.39C56.0194 425.214 57.2674 424.626 59.0074 424.626C60.7474 424.626 61.9894 425.214 62.7334 426.39C63.4894 427.566 63.8674 429.192 63.8674 431.268C63.8674 433.356 63.4894 434.994 62.7334 436.182C61.9894 437.37 60.7474 437.964 59.0074 437.964C57.2674 437.964 56.0194 437.37 55.2634 436.182C54.5194 434.994 54.1474 433.356 54.1474 431.268ZM61.3834 431.268C61.3834 430.38 61.3234 429.636 61.2034 429.036C61.0954 428.424 60.8674 427.926 60.5194 427.542C60.1834 427.158 59.6794 426.966 59.0074 426.966C58.3354 426.966 57.8254 427.158 57.4774 427.542C57.1414 427.926 56.9134 428.424 56.7934 429.036C56.6854 429.636 56.6314 430.38 56.6314 431.268C56.6314 432.18 56.6854 432.948 56.7934 433.572C56.9014 434.184 57.1294 434.682 57.4774 435.066C57.8254 435.438 58.3354 435.624 59.0074 435.624C59.6794 435.624 60.1894 435.438 60.5374 435.066C60.8854 434.682 61.1134 434.184 61.2214 433.572C61.3294 432.948 61.3834 432.18 61.3834 431.268ZM65.7841 431.268C65.7841 429.192 66.1561 427.566 66.9001 426.39C67.6561 425.214 68.9041 424.626 70.6441 424.626C72.3841 424.626 73.6261 425.214 74.3701 426.39C75.1261 427.566 75.5041 429.192 75.5041 431.268C75.5041 433.356 75.1261 434.994 74.3701 436.182C73.6261 437.37 72.3841 437.964 70.6441 437.964C68.9041 437.964 67.6561 437.37 66.9001 436.182C66.1561 434.994 65.7841 433.356 65.7841 431.268ZM73.0201 431.268C73.0201 430.38 72.9601 429.636 72.8401 429.036C72.7321 428.424 72.5041 427.926 72.1561 427.542C71.8201 427.158 71.3161 426.966 70.6441 426.966C69.9721 426.966 69.4621 427.158 69.1141 427.542C68.7781 427.926 68.5501 428.424 68.4301 429.036C68.3221 429.636 68.2681 430.38 68.2681 431.268C68.2681 432.18 68.3221 432.948 68.4301 433.572C68.5381 434.184 68.7661 434.682 69.1141 435.066C69.4621 435.438 69.9721 435.624 70.6441 435.624C71.3161 435.624 71.8261 435.438 72.1741 435.066C72.5221 434.682 72.7501 434.184 72.8581 433.572C72.9661 432.948 73.0201 432.18 73.0201 431.268ZM77.4208 431.268C77.4208 429.192 77.7928 427.566 78.5368 426.39C79.2928 425.214 80.5408 424.626 82.2808 424.626C84.0208 424.626 85.2628 425.214 86.0068 426.39C86.7628 427.566 87.1408 429.192 87.1408 431.268C87.1408 433.356 86.7628 434.994 86.0068 436.182C85.2628 437.37 84.0208 437.964 82.2808 437.964C80.5408 437.964 79.2928 437.37 78.5368 436.182C77.7928 434.994 77.4208 433.356 77.4208 431.268ZM84.6568 431.268C84.6568 430.38 84.5968 429.636 84.4768 429.036C84.3688 428.424 84.1408 427.926 83.7928 427.542C83.4568 427.158 82.9528 426.966 82.2808 426.966C81.6088 426.966 81.0988 427.158 80.7508 427.542C80.4148 427.926 80.1868 428.424 80.0668 429.036C79.9588 429.636 79.9048 430.38 79.9048 431.268C79.9048 432.18 79.9588 432.948 80.0668 433.572C80.1748 434.184 80.4028 434.682 80.7508 435.066C81.0988 435.438 81.6088 435.624 82.2808 435.624C82.9528 435.624 83.4628 435.438 83.8108 435.066C84.1588 434.682 84.3868 434.184 84.4948 433.572C84.6028 432.948 84.6568 432.18 84.6568 431.268ZM89.0575 431.268C89.0575 429.192 89.4295 427.566 90.1735 426.39C90.9295 425.214 92.1775 424.626 93.9175 424.626C95.6575 424.626 96.8995 425.214 97.6435 426.39C98.3995 427.566 98.7775 429.192 98.7775 431.268C98.7775 433.356 98.3995 434.994 97.6435 436.182C96.8995 437.37 95.6575 437.964 93.9175 437.964C92.1775 437.964 90.9295 437.37 90.1735 436.182C89.4295 434.994 89.0575 433.356 89.0575 431.268ZM96.2935 431.268C96.2935 430.38 96.2335 429.636 96.1135 429.036C96.0055 428.424 95.7775 427.926 95.4295 427.542C95.0935 427.158 94.5895 426.966 93.9175 426.966C93.2455 426.966 92.7355 427.158 92.3875 427.542C92.0515 427.926 91.8235 428.424 91.7035 429.036C91.5955 429.636 91.5415 430.38 91.5415 431.268C91.5415 432.18 91.5955 432.948 91.7035 433.572C91.8115 434.184 92.0395 434.682 92.3875 435.066C92.7355 435.438 93.2455 435.624 93.9175 435.624C94.5895 435.624 95.0995 435.438 95.4475 435.066C95.7955 434.682 96.0235 434.184 96.1315 433.572C96.2395 432.948 96.2935 432.18 96.2935 431.268ZM100.694 431.268C100.694 429.192 101.066 427.566 101.81 426.39C102.566 425.214 103.814 424.626 105.554 424.626C107.294 424.626 108.536 425.214 109.28 426.39C110.036 427.566 110.414 429.192 110.414 431.268C110.414 433.356 110.036 434.994 109.28 436.182C108.536 437.37 107.294 437.964 105.554 437.964C103.814 437.964 102.566 437.37 101.81 436.182C101.066 434.994 100.694 433.356 100.694 431.268ZM107.93 431.268C107.93 430.38 107.87 429.636 107.75 429.036C107.642 428.424 107.414 427.926 107.066 427.542C106.73 427.158 106.226 426.966 105.554 426.966C104.882 426.966 104.372 427.158 104.024 427.542C103.688 427.926 103.46 428.424 103.34 429.036C103.232 429.636 103.178 430.38 103.178 431.268C103.178 432.18 103.232 432.948 103.34 433.572C103.448 434.184 103.676 434.682 104.024 435.066C104.372 435.438 104.882 435.624 105.554 435.624C106.226 435.624 106.736 435.438 107.084 435.066C107.432 434.682 107.66 434.184 107.768 433.572C107.876 432.948 107.93 432.18 107.93 431.268Z" fill="white"/>
<path d="M16.774 325.056H10.942V328.134C11.194 327.822 11.554 327.57 12.022 327.378C12.49 327.174 12.988 327.072 13.516 327.072C14.476 327.072 15.262 327.282 15.874 327.702C16.486 328.122 16.93 328.662 17.206 329.322C17.482 329.97 17.62 330.666 17.62 331.41C17.62 332.79 17.224 333.9 16.432 334.74C15.652 335.58 14.536 336 13.084 336C11.716 336 10.624 335.658 9.808 334.974C8.992 334.29 8.53 333.396 8.422 332.292H10.87C10.978 332.772 11.218 333.156 11.59 333.444C11.974 333.732 12.46 333.876 13.048 333.876C13.756 333.876 14.29 333.654 14.65 333.21C15.01 332.766 15.19 332.178 15.19 331.446C15.19 330.702 15.004 330.138 14.632 329.754C14.272 329.358 13.738 329.16 13.03 329.16C12.526 329.16 12.106 329.286 11.77 329.538C11.434 329.79 11.194 330.126 11.05 330.546H8.638V322.842H16.774V325.056ZM19.538 329.268C19.538 327.192 19.91 325.566 20.654 324.39C21.41 323.214 22.658 322.626 24.398 322.626C26.138 322.626 27.38 323.214 28.124 324.39C28.88 325.566 29.258 327.192 29.258 329.268C29.258 331.356 28.88 332.994 28.124 334.182C27.38 335.37 26.138 335.964 24.398 335.964C22.658 335.964 21.41 335.37 20.654 334.182C19.91 332.994 19.538 331.356 19.538 329.268ZM26.774 329.268C26.774 328.38 26.714 327.636 26.594 327.036C26.486 326.424 26.258 325.926 25.91 325.542C25.574 325.158 25.07 324.966 24.398 324.966C23.726 324.966 23.216 325.158 22.868 325.542C22.532 325.926 22.304 326.424 22.184 327.036C22.076 327.636 22.022 328.38 22.022 329.268C22.022 330.18 22.076 330.948 22.184 331.572C22.292 332.184 22.52 332.682 22.868 333.066C23.216 333.438 23.726 333.624 24.398 333.624C25.07 333.624 25.58 333.438 25.928 333.066C26.276 332.682 26.504 332.184 26.612 331.572C26.72 330.948 26.774 330.18 26.774 329.268ZM31.1747 329.268C31.1747 327.192 31.5467 325.566 32.2907 324.39C33.0467 323.214 34.2947 322.626 36.0347 322.626C37.7747 322.626 39.0167 323.214 39.7607 324.39C40.5167 325.566 40.8947 327.192 40.8947 329.268C40.8947 331.356 40.5167 332.994 39.7607 334.182C39.0167 335.37 37.7747 335.964 36.0347 335.964C34.2947 335.964 33.0467 335.37 32.2907 334.182C31.5467 332.994 31.1747 331.356 31.1747 329.268ZM38.4107 329.268C38.4107 328.38 38.3507 327.636 38.2307 327.036C38.1227 326.424 37.8947 325.926 37.5467 325.542C37.2107 325.158 36.7067 324.966 36.0347 324.966C35.3627 324.966 34.8527 325.158 34.5047 325.542C34.1687 325.926 33.9407 326.424 33.8207 327.036C33.7127 327.636 33.6587 328.38 33.6587 329.268C33.6587 330.18 33.7127 330.948 33.8207 331.572C33.9287 332.184 34.1567 332.682 34.5047 333.066C34.8527 333.438 35.3627 333.624 36.0347 333.624C36.7067 333.624 37.2167 333.438 37.5647 333.066C37.9127 332.682 38.1407 332.184 38.2487 331.572C38.3567 330.948 38.4107 330.18 38.4107 329.268ZM42.8114 329.268C42.8114 327.192 43.1834 325.566 43.9274 324.39C44.6834 323.214 45.9314 322.626 47.6714 322.626C49.4114 322.626 50.6534 323.214 51.3974 324.39C52.1534 325.566 52.5314 327.192 52.5314 329.268C52.5314 331.356 52.1534 332.994 51.3974 334.182C50.6534 335.37 49.4114 335.964 47.6714 335.964C45.9314 335.964 44.6834 335.37 43.9274 334.182C43.1834 332.994 42.8114 331.356 42.8114 329.268ZM50.0474 329.268C50.0474 328.38 49.9874 327.636 49.8674 327.036C49.7594 326.424 49.5314 325.926 49.1834 325.542C48.8474 325.158 48.3434 324.966 47.6714 324.966C46.9994 324.966 46.4894 325.158 46.1414 325.542C45.8054 325.926 45.5774 326.424 45.4574 327.036C45.3494 327.636 45.2954 328.38 45.2954 329.268C45.2954 330.18 45.3494 330.948 45.4574 331.572C45.5654 332.184 45.7934 332.682 46.1414 333.066C46.4894 333.438 46.9994 333.624 47.6714 333.624C48.3434 333.624 48.8534 333.438 49.2014 333.066C49.5494 332.682 49.7774 332.184 49.8854 331.572C49.9934 330.948 50.0474 330.18 50.0474 329.268ZM54.4481 329.268C54.4481 327.192 54.8201 325.566 55.5641 324.39C56.3201 323.214 57.5681 322.626 59.3081 322.626C61.0481 322.626 62.2901 323.214 63.0341 324.39C63.7901 325.566 64.1681 327.192 64.1681 329.268C64.1681 331.356 63.7901 332.994 63.0341 334.182C62.2901 335.37 61.0481 335.964 59.3081 335.964C57.5681 335.964 56.3201 335.37 55.5641 334.182C54.8201 332.994 54.4481 331.356 54.4481 329.268ZM61.6841 329.268C61.6841 328.38 61.6241 327.636 61.5041 327.036C61.3961 326.424 61.1681 325.926 60.8201 325.542C60.4841 325.158 59.9801 324.966 59.3081 324.966C58.6361 324.966 58.1261 325.158 57.7781 325.542C57.4421 325.926 57.2141 326.424 57.0941 327.036C56.9861 327.636 56.9321 328.38 56.9321 329.268C56.9321 330.18 56.9861 330.948 57.0941 331.572C57.2021 332.184 57.4301 332.682 57.7781 333.066C58.1261 333.438 58.6361 333.624 59.3081 333.624C59.9801 333.624 60.4901 333.438 60.8381 333.066C61.1861 332.682 61.4141 332.184 61.5221 331.572C61.6301 330.948 61.6841 330.18 61.6841 329.268ZM66.0849 329.268C66.0849 327.192 66.4569 325.566 67.2009 324.39C67.9569 323.214 69.2049 322.626 70.9449 322.626C72.6849 322.626 73.9269 323.214 74.6709 324.39C75.4269 325.566 75.8049 327.192 75.8049 329.268C75.8049 331.356 75.4269 332.994 74.6709 334.182C73.9269 335.37 72.6849 335.964 70.9449 335.964C69.2049 335.964 67.9569 335.37 67.2009 334.182C66.4569 332.994 66.0849 331.356 66.0849 329.268ZM73.3209 329.268C73.3209 328.38 73.2609 327.636 73.1409 327.036C73.0329 326.424 72.8049 325.926 72.4569 325.542C72.1209 325.158 71.6169 324.966 70.9449 324.966C70.2729 324.966 69.7629 325.158 69.4149 325.542C69.0789 325.926 68.8509 326.424 68.7309 327.036C68.6229 327.636 68.5689 328.38 68.5689 329.268C68.5689 330.18 68.6229 330.948 68.7309 331.572C68.8389 332.184 69.0669 332.682 69.4149 333.066C69.7629 333.438 70.2729 333.624 70.9449 333.624C71.6169 333.624 72.1269 333.438 72.4749 333.066C72.8229 332.682 73.0509 332.184 73.1589 331.572C73.2669 330.948 73.3209 330.18 73.3209 329.268ZM77.7216 329.268C77.7216 327.192 78.0936 325.566 78.8376 324.39C79.5936 323.214 80.8416 322.626 82.5816 322.626C84.3216 322.626 85.5636 323.214 86.3076 324.39C87.0636 325.566 87.4416 327.192 87.4416 329.268C87.4416 331.356 87.0636 332.994 86.3076 334.182C85.5636 335.37 84.3216 335.964 82.5816 335.964C80.8416 335.964 79.5936 335.37 78.8376 334.182C78.0936 332.994 77.7216 331.356 77.7216 329.268ZM84.9576 329.268C84.9576 328.38 84.8976 327.636 84.7776 327.036C84.6696 326.424 84.4416 325.926 84.0936 325.542C83.7576 325.158 83.2536 324.966 82.5816 324.966C81.9096 324.966 81.3996 325.158 81.0516 325.542C80.7156 325.926 80.4876 326.424 80.3676 327.036C80.2596 327.636 80.2056 328.38 80.2056 329.268C80.2056 330.18 80.2596 330.948 80.3676 331.572C80.4756 332.184 80.7036 332.682 81.0516 333.066C81.3996 333.438 81.9096 333.624 82.5816 333.624C83.2536 333.624 83.7636 333.438 84.1116 333.066C84.4596 332.682 84.6876 332.184 84.7956 331.572C84.9036 330.948 84.9576 330.18 84.9576 329.268ZM89.3583 329.268C89.3583 327.192 89.7303 325.566 90.4743 324.39C91.2303 323.214 92.4783 322.626 94.2183 322.626C95.9583 322.626 97.2003 323.214 97.9443 324.39C98.7003 325.566 99.0783 327.192 99.0783 329.268C99.0783 331.356 98.7003 332.994 97.9443 334.182C97.2003 335.37 95.9583 335.964 94.2183 335.964C92.4783 335.964 91.2303 335.37 90.4743 334.182C89.7303 332.994 89.3583 331.356 89.3583 329.268ZM96.5943 329.268C96.5943 328.38 96.5343 327.636 96.4143 327.036C96.3063 326.424 96.0783 325.926 95.7303 325.542C95.3943 325.158 94.8903 324.966 94.2183 324.966C93.5463 324.966 93.0363 325.158 92.6883 325.542C92.3523 325.926 92.1243 326.424 92.0043 327.036C91.8963 327.636 91.8423 328.38 91.8423 329.268C91.8423 330.18 91.8963 330.948 92.0043 331.572C92.1123 332.184 92.3403 332.682 92.6883 333.066C93.0363 333.438 93.5463 333.624 94.2183 333.624C94.8903 333.624 95.4003 333.438 95.7483 333.066C96.0963 332.682 96.3243 332.184 96.4323 331.572C96.5403 330.948 96.5943 330.18 96.5943 329.268ZM100.995 329.268C100.995 327.192 101.367 325.566 102.111 324.39C102.867 323.214 104.115 322.626 105.855 322.626C107.595 322.626 108.837 323.214 109.581 324.39C110.337 325.566 110.715 327.192 110.715 329.268C110.715 331.356 110.337 332.994 109.581 334.182C108.837 335.37 107.595 335.964 105.855 335.964C104.115 335.964 102.867 335.37 102.111 334.182C101.367 332.994 100.995 331.356 100.995 329.268ZM108.231 329.268C108.231 328.38 108.171 327.636 108.051 327.036C107.943 326.424 107.715 325.926 107.367 325.542C107.031 325.158 106.527 324.966 105.855 324.966C105.183 324.966 104.673 325.158 104.325 325.542C103.989 325.926 103.761 326.424 103.641 327.036C103.533 327.636 103.479 328.38 103.479 329.268C103.479 330.18 103.533 330.948 103.641 331.572C103.749 332.184 103.977 332.682 104.325 333.066C104.673 333.438 105.183 333.624 105.855 333.624C106.527 333.624 107.037 333.438 107.385 333.066C107.733 332.682 107.961 332.184 108.069 331.572C108.177 330.948 108.231 330.18 108.231 329.268Z" fill="white"/>
<path d="M18.306 222.786L13.518 234H10.962L15.786 223.074H9.63V220.914H18.306V222.786ZM28.6353 223.056H22.8033V226.134C23.0553 225.822 23.4153 225.57 23.8833 225.378C24.3513 225.174 24.8493 225.072 25.3773 225.072C26.3373 225.072 27.1233 225.282 27.7353 225.702C28.3473 226.122 28.7913 226.662 29.0673 227.322C29.3433 227.97 29.4813 228.666 29.4813 229.41C29.4813 230.79 29.0853 231.9 28.2933 232.74C27.5133 233.58 26.3973 234 24.9453 234C23.5773 234 22.4853 233.658 21.6693 232.974C20.8533 232.29 20.3913 231.396 20.2833 230.292H22.7313C22.8393 230.772 23.0793 231.156 23.4513 231.444C23.8353 231.732 24.3213 231.876 24.9093 231.876C25.6173 231.876 26.1513 231.654 26.5113 231.21C26.8713 230.766 27.0513 230.178 27.0513 229.446C27.0513 228.702 26.8653 228.138 26.4933 227.754C26.1333 227.358 25.5993 227.16 24.8913 227.16C24.3873 227.16 23.9673 227.286 23.6313 227.538C23.2953 227.79 23.0553 228.126 22.9113 228.546H20.4993V220.842H28.6353V223.056ZM31.3993 227.268C31.3993 225.192 31.7713 223.566 32.5153 222.39C33.2713 221.214 34.5193 220.626 36.2593 220.626C37.9993 220.626 39.2413 221.214 39.9853 222.39C40.7413 223.566 41.1193 225.192 41.1193 227.268C41.1193 229.356 40.7413 230.994 39.9853 232.182C39.2413 233.37 37.9993 233.964 36.2593 233.964C34.5193 233.964 33.2713 233.37 32.5153 232.182C31.7713 230.994 31.3993 229.356 31.3993 227.268ZM38.6353 227.268C38.6353 226.38 38.5753 225.636 38.4553 225.036C38.3473 224.424 38.1193 223.926 37.7713 223.542C37.4353 223.158 36.9313 222.966 36.2593 222.966C35.5873 222.966 35.0773 223.158 34.7293 223.542C34.3933 223.926 34.1653 224.424 34.0453 225.036C33.9373 225.636 33.8833 226.38 33.8833 227.268C33.8833 228.18 33.9373 228.948 34.0453 229.572C34.1533 230.184 34.3813 230.682 34.7293 231.066C35.0773 231.438 35.5873 231.624 36.2593 231.624C36.9313 231.624 37.4413 231.438 37.7893 231.066C38.1373 230.682 38.3653 230.184 38.4733 229.572C38.5813 228.948 38.6353 228.18 38.6353 227.268ZM43.036 227.268C43.036 225.192 43.408 223.566 44.152 222.39C44.908 221.214 46.156 220.626 47.896 220.626C49.636 220.626 50.878 221.214 51.622 222.39C52.378 223.566 52.756 225.192 52.756 227.268C52.756 229.356 52.378 230.994 51.622 232.182C50.878 233.37 49.636 233.964 47.896 233.964C46.156 233.964 44.908 233.37 44.152 232.182C43.408 230.994 43.036 229.356 43.036 227.268ZM50.272 227.268C50.272 226.38 50.212 225.636 50.092 225.036C49.984 224.424 49.756 223.926 49.408 223.542C49.072 223.158 48.568 222.966 47.896 222.966C47.224 222.966 46.714 223.158 46.366 223.542C46.03 223.926 45.802 224.424 45.682 225.036C45.574 225.636 45.52 226.38 45.52 227.268C45.52 228.18 45.574 228.948 45.682 229.572C45.79 230.184 46.018 230.682 46.366 231.066C46.714 231.438 47.224 231.624 47.896 231.624C48.568 231.624 49.078 231.438 49.426 231.066C49.774 230.682 50.002 230.184 50.11 229.572C50.218 228.948 50.272 228.18 50.272 227.268ZM54.6728 227.268C54.6728 225.192 55.0448 223.566 55.7888 222.39C56.5448 221.214 57.7928 220.626 59.5328 220.626C61.2728 220.626 62.5148 221.214 63.2588 222.39C64.0148 223.566 64.3928 225.192 64.3928 227.268C64.3928 229.356 64.0148 230.994 63.2588 232.182C62.5148 233.37 61.2728 233.964 59.5328 233.964C57.7928 233.964 56.5448 233.37 55.7888 232.182C55.0448 230.994 54.6728 229.356 54.6728 227.268ZM61.9088 227.268C61.9088 226.38 61.8488 225.636 61.7288 225.036C61.6208 224.424 61.3928 223.926 61.0448 223.542C60.7088 223.158 60.2048 222.966 59.5328 222.966C58.8608 222.966 58.3508 223.158 58.0028 223.542C57.6668 223.926 57.4388 224.424 57.3188 225.036C57.2108 225.636 57.1568 226.38 57.1568 227.268C57.1568 228.18 57.2108 228.948 57.3188 229.572C57.4268 230.184 57.6548 230.682 58.0028 231.066C58.3508 231.438 58.8608 231.624 59.5328 231.624C60.2048 231.624 60.7148 231.438 61.0628 231.066C61.4108 230.682 61.6388 230.184 61.7468 229.572C61.8548 228.948 61.9088 228.18 61.9088 227.268ZM66.3095 227.268C66.3095 225.192 66.6815 223.566 67.4255 222.39C68.1815 221.214 69.4295 220.626 71.1695 220.626C72.9095 220.626 74.1515 221.214 74.8955 222.39C75.6515 223.566 76.0295 225.192 76.0295 227.268C76.0295 229.356 75.6515 230.994 74.8955 232.182C74.1515 233.37 72.9095 233.964 71.1695 233.964C69.4295 233.964 68.1815 233.37 67.4255 232.182C66.6815 230.994 66.3095 229.356 66.3095 227.268ZM73.5455 227.268C73.5455 226.38 73.4855 225.636 73.3655 225.036C73.2575 224.424 73.0295 223.926 72.6815 223.542C72.3455 223.158 71.8415 222.966 71.1695 222.966C70.4975 222.966 69.9875 223.158 69.6395 223.542C69.3035 223.926 69.0755 224.424 68.9555 225.036C68.8475 225.636 68.7935 226.38 68.7935 227.268C68.7935 228.18 68.8475 228.948 68.9555 229.572C69.0635 230.184 69.2915 230.682 69.6395 231.066C69.9875 231.438 70.4975 231.624 71.1695 231.624C71.8415 231.624 72.3515 231.438 72.6995 231.066C73.0475 230.682 73.2755 230.184 73.3835 229.572C73.4915 228.948 73.5455 228.18 73.5455 227.268ZM77.9462 227.268C77.9462 225.192 78.3182 223.566 79.0622 222.39C79.8182 221.214 81.0662 220.626 82.8062 220.626C84.5462 220.626 85.7882 221.214 86.5322 222.39C87.2882 223.566 87.6662 225.192 87.6662 227.268C87.6662 229.356 87.2882 230.994 86.5322 232.182C85.7882 233.37 84.5462 233.964 82.8062 233.964C81.0662 233.964 79.8182 233.37 79.0622 232.182C78.3182 230.994 77.9462 229.356 77.9462 227.268ZM85.1822 227.268C85.1822 226.38 85.1222 225.636 85.0022 225.036C84.8942 224.424 84.6662 223.926 84.3182 223.542C83.9822 223.158 83.4782 222.966 82.8062 222.966C82.1342 222.966 81.6242 223.158 81.2762 223.542C80.9402 223.926 80.7122 224.424 80.5922 225.036C80.4842 225.636 80.4302 226.38 80.4302 227.268C80.4302 228.18 80.4842 228.948 80.5922 229.572C80.7002 230.184 80.9282 230.682 81.2762 231.066C81.6242 231.438 82.1342 231.624 82.8062 231.624C83.4782 231.624 83.9882 231.438 84.3362 231.066C84.6842 230.682 84.9122 230.184 85.0202 229.572C85.1282 228.948 85.1822 228.18 85.1822 227.268ZM89.5829 227.268C89.5829 225.192 89.9549 223.566 90.6989 222.39C91.4549 221.214 92.7029 220.626 94.4429 220.626C96.1829 220.626 97.4249 221.214 98.1689 222.39C98.9249 223.566 99.3029 225.192 99.3029 227.268C99.3029 229.356 98.9249 230.994 98.1689 232.182C97.4249 233.37 96.1829 233.964 94.4429 233.964C92.7029 233.964 91.4549 233.37 90.6989 232.182C89.9549 230.994 89.5829 229.356 89.5829 227.268ZM96.8189 227.268C96.8189 226.38 96.7589 225.636 96.6389 225.036C96.5309 224.424 96.3029 223.926 95.9549 223.542C95.6189 223.158 95.1149 222.966 94.4429 222.966C93.7709 222.966 93.2609 223.158 92.9129 223.542C92.5769 223.926 92.3489 224.424 92.2289 225.036C92.1209 225.636 92.0669 226.38 92.0669 227.268C92.0669 228.18 92.1209 228.948 92.2289 229.572C92.3369 230.184 92.5649 230.682 92.9129 231.066C93.2609 231.438 93.7709 231.624 94.4429 231.624C95.1149 231.624 95.6249 231.438 95.9729 231.066C96.3209 230.682 96.5489 230.184 96.6569 229.572C96.7649 228.948 96.8189 228.18 96.8189 227.268ZM101.22 227.268C101.22 225.192 101.592 223.566 102.336 222.39C103.092 221.214 104.34 220.626 106.08 220.626C107.82 220.626 109.062 221.214 109.806 222.39C110.562 223.566 110.94 225.192 110.94 227.268C110.94 229.356 110.562 230.994 109.806 232.182C109.062 233.37 107.82 233.964 106.08 233.964C104.34 233.964 103.092 233.37 102.336 232.182C101.592 230.994 101.22 229.356 101.22 227.268ZM108.456 227.268C108.456 226.38 108.396 225.636 108.276 225.036C108.168 224.424 107.94 223.926 107.592 223.542C107.256 223.158 106.752 222.966 106.08 222.966C105.408 222.966 104.898 223.158 104.55 223.542C104.214 223.926 103.986 224.424 103.866 225.036C103.758 225.636 103.704 226.38 103.704 227.268C103.704 228.18 103.758 228.948 103.866 229.572C103.974 230.184 104.202 230.682 104.55 231.066C104.898 231.438 105.408 231.624 106.08 231.624C106.752 231.624 107.262 231.438 107.61 231.066C107.958 230.682 108.186 230.184 108.294 229.572C108.402 228.948 108.456 228.18 108.456 227.268Z" fill="white"/>
<path d="M0.648 121.2V118.878H4.986V132H2.394V121.2H0.648ZM7.47548 125.268C7.47548 123.192 7.84748 121.566 8.59148 120.39C9.34748 119.214 10.5955 118.626 12.3355 118.626C14.0755 118.626 15.3175 119.214 16.0615 120.39C16.8175 121.566 17.1955 123.192 17.1955 125.268C17.1955 127.356 16.8175 128.994 16.0615 130.182C15.3175 131.37 14.0755 131.964 12.3355 131.964C10.5955 131.964 9.34748 131.37 8.59148 130.182C7.84748 128.994 7.47548 127.356 7.47548 125.268ZM14.7115 125.268C14.7115 124.38 14.6515 123.636 14.5315 123.036C14.4235 122.424 14.1955 121.926 13.8475 121.542C13.5115 121.158 13.0075 120.966 12.3355 120.966C11.6635 120.966 11.1535 121.158 10.8055 121.542C10.4695 121.926 10.2415 122.424 10.1215 123.036C10.0135 123.636 9.95948 124.38 9.95948 125.268C9.95948 126.18 10.0135 126.948 10.1215 127.572C10.2295 128.184 10.4575 128.682 10.8055 129.066C11.1535 129.438 11.6635 129.624 12.3355 129.624C13.0075 129.624 13.5175 129.438 13.8655 129.066C14.2135 128.682 14.4415 128.184 14.5495 127.572C14.6575 126.948 14.7115 126.18 14.7115 125.268ZM19.1122 125.268C19.1122 123.192 19.4842 121.566 20.2282 120.39C20.9842 119.214 22.2322 118.626 23.9722 118.626C25.7122 118.626 26.9542 119.214 27.6982 120.39C28.4542 121.566 28.8322 123.192 28.8322 125.268C28.8322 127.356 28.4542 128.994 27.6982 130.182C26.9542 131.37 25.7122 131.964 23.9722 131.964C22.2322 131.964 20.9842 131.37 20.2282 130.182C19.4842 128.994 19.1122 127.356 19.1122 125.268ZM26.3482 125.268C26.3482 124.38 26.2882 123.636 26.1682 123.036C26.0602 122.424 25.8322 121.926 25.4842 121.542C25.1482 121.158 24.6442 120.966 23.9722 120.966C23.3002 120.966 22.7902 121.158 22.4422 121.542C22.1062 121.926 21.8782 122.424 21.7582 123.036C21.6502 123.636 21.5962 124.38 21.5962 125.268C21.5962 126.18 21.6502 126.948 21.7582 127.572C21.8662 128.184 22.0942 128.682 22.4422 129.066C22.7902 129.438 23.3002 129.624 23.9722 129.624C24.6442 129.624 25.1542 129.438 25.5022 129.066C25.8502 128.682 26.0782 128.184 26.1862 127.572C26.2942 126.948 26.3482 126.18 26.3482 125.268ZM30.7489 125.268C30.7489 123.192 31.1209 121.566 31.8649 120.39C32.6209 119.214 33.8689 118.626 35.6089 118.626C37.3489 118.626 38.5909 119.214 39.3349 120.39C40.0909 121.566 40.4689 123.192 40.4689 125.268C40.4689 127.356 40.0909 128.994 39.3349 130.182C38.5909 131.37 37.3489 131.964 35.6089 131.964C33.8689 131.964 32.6209 131.37 31.8649 130.182C31.1209 128.994 30.7489 127.356 30.7489 125.268ZM37.9849 125.268C37.9849 124.38 37.9249 123.636 37.8049 123.036C37.6969 122.424 37.4689 121.926 37.1209 121.542C36.7849 121.158 36.2809 120.966 35.6089 120.966C34.9369 120.966 34.4269 121.158 34.0789 121.542C33.7429 121.926 33.5149 122.424 33.3949 123.036C33.2869 123.636 33.2329 124.38 33.2329 125.268C33.2329 126.18 33.2869 126.948 33.3949 127.572C33.5029 128.184 33.7309 128.682 34.0789 129.066C34.4269 129.438 34.9369 129.624 35.6089 129.624C36.2809 129.624 36.7909 129.438 37.1389 129.066C37.4869 128.682 37.7149 128.184 37.8229 127.572C37.9309 126.948 37.9849 126.18 37.9849 125.268ZM42.3856 125.268C42.3856 123.192 42.7576 121.566 43.5016 120.39C44.2576 119.214 45.5056 118.626 47.2456 118.626C48.9856 118.626 50.2276 119.214 50.9716 120.39C51.7276 121.566 52.1056 123.192 52.1056 125.268C52.1056 127.356 51.7276 128.994 50.9716 130.182C50.2276 131.37 48.9856 131.964 47.2456 131.964C45.5056 131.964 44.2576 131.37 43.5016 130.182C42.7576 128.994 42.3856 127.356 42.3856 125.268ZM49.6216 125.268C49.6216 124.38 49.5616 123.636 49.4416 123.036C49.3336 122.424 49.1056 121.926 48.7576 121.542C48.4216 121.158 47.9176 120.966 47.2456 120.966C46.5736 120.966 46.0636 121.158 45.7156 121.542C45.3796 121.926 45.1516 122.424 45.0316 123.036C44.9236 123.636 44.8696 124.38 44.8696 125.268C44.8696 126.18 44.9236 126.948 45.0316 127.572C45.1396 128.184 45.3676 128.682 45.7156 129.066C46.0636 129.438 46.5736 129.624 47.2456 129.624C47.9176 129.624 48.4276 129.438 48.7756 129.066C49.1236 128.682 49.3516 128.184 49.4596 127.572C49.5676 126.948 49.6216 126.18 49.6216 125.268ZM54.0224 125.268C54.0224 123.192 54.3944 121.566 55.1384 120.39C55.8944 119.214 57.1424 118.626 58.8824 118.626C60.6224 118.626 61.8644 119.214 62.6084 120.39C63.3644 121.566 63.7424 123.192 63.7424 125.268C63.7424 127.356 63.3644 128.994 62.6084 130.182C61.8644 131.37 60.6224 131.964 58.8824 131.964C57.1424 131.964 55.8944 131.37 55.1384 130.182C54.3944 128.994 54.0224 127.356 54.0224 125.268ZM61.2584 125.268C61.2584 124.38 61.1984 123.636 61.0784 123.036C60.9704 122.424 60.7424 121.926 60.3944 121.542C60.0584 121.158 59.5544 120.966 58.8824 120.966C58.2104 120.966 57.7004 121.158 57.3524 121.542C57.0164 121.926 56.7884 122.424 56.6684 123.036C56.5604 123.636 56.5064 124.38 56.5064 125.268C56.5064 126.18 56.5604 126.948 56.6684 127.572C56.7764 128.184 57.0044 128.682 57.3524 129.066C57.7004 129.438 58.2104 129.624 58.8824 129.624C59.5544 129.624 60.0644 129.438 60.4124 129.066C60.7604 128.682 60.9884 128.184 61.0964 127.572C61.2044 126.948 61.2584 126.18 61.2584 125.268ZM65.6591 125.268C65.6591 123.192 66.0311 121.566 66.7751 120.39C67.5311 119.214 68.7791 118.626 70.5191 118.626C72.2591 118.626 73.5011 119.214 74.2451 120.39C75.0011 121.566 75.3791 123.192 75.3791 125.268C75.3791 127.356 75.0011 128.994 74.2451 130.182C73.5011 131.37 72.2591 131.964 70.5191 131.964C68.7791 131.964 67.5311 131.37 66.7751 130.182C66.0311 128.994 65.6591 127.356 65.6591 125.268ZM72.8951 125.268C72.8951 124.38 72.8351 123.636 72.7151 123.036C72.6071 122.424 72.3791 121.926 72.0311 121.542C71.6951 121.158 71.1911 120.966 70.5191 120.966C69.8471 120.966 69.3371 121.158 68.9891 121.542C68.6531 121.926 68.4251 122.424 68.3051 123.036C68.1971 123.636 68.1431 124.38 68.1431 125.268C68.1431 126.18 68.1971 126.948 68.3051 127.572C68.4131 128.184 68.6411 128.682 68.9891 129.066C69.3371 129.438 69.8471 129.624 70.5191 129.624C71.1911 129.624 71.7011 129.438 72.0491 129.066C72.3971 128.682 72.6251 128.184 72.7331 127.572C72.8411 126.948 72.8951 126.18 72.8951 125.268ZM77.2958 125.268C77.2958 123.192 77.6678 121.566 78.4118 120.39C79.1678 119.214 80.4158 118.626 82.1558 118.626C83.8958 118.626 85.1378 119.214 85.8818 120.39C86.6378 121.566 87.0158 123.192 87.0158 125.268C87.0158 127.356 86.6378 128.994 85.8818 130.182C85.1378 131.37 83.8958 131.964 82.1558 131.964C80.4158 131.964 79.1678 131.37 78.4118 130.182C77.6678 128.994 77.2958 127.356 77.2958 125.268ZM84.5318 125.268C84.5318 124.38 84.4718 123.636 84.3518 123.036C84.2438 122.424 84.0158 121.926 83.6678 121.542C83.3318 121.158 82.8278 120.966 82.1558 120.966C81.4838 120.966 80.9738 121.158 80.6258 121.542C80.2898 121.926 80.0618 122.424 79.9418 123.036C79.8338 123.636 79.7798 124.38 79.7798 125.268C79.7798 126.18 79.8338 126.948 79.9418 127.572C80.0498 128.184 80.2778 128.682 80.6258 129.066C80.9738 129.438 81.4838 129.624 82.1558 129.624C82.8278 129.624 83.3378 129.438 83.6858 129.066C84.0338 128.682 84.2618 128.184 84.3698 127.572C84.4778 126.948 84.5318 126.18 84.5318 125.268ZM88.9325 125.268C88.9325 123.192 89.3045 121.566 90.0485 120.39C90.8045 119.214 92.0525 118.626 93.7925 118.626C95.5325 118.626 96.7745 119.214 97.5185 120.39C98.2745 121.566 98.6525 123.192 98.6525 125.268C98.6525 127.356 98.2745 128.994 97.5185 130.182C96.7745 131.37 95.5325 131.964 93.7925 131.964C92.0525 131.964 90.8045 131.37 90.0485 130.182C89.3045 128.994 88.9325 127.356 88.9325 125.268ZM96.1685 125.268C96.1685 124.38 96.1085 123.636 95.9885 123.036C95.8805 122.424 95.6525 121.926 95.3045 121.542C94.9685 121.158 94.4645 120.966 93.7925 120.966C93.1205 120.966 92.6105 121.158 92.2625 121.542C91.9265 121.926 91.6985 122.424 91.5785 123.036C91.4705 123.636 91.4165 124.38 91.4165 125.268C91.4165 126.18 91.4705 126.948 91.5785 127.572C91.6865 128.184 91.9145 128.682 92.2625 129.066C92.6105 129.438 93.1205 129.624 93.7925 129.624C94.4645 129.624 94.9745 129.438 95.3225 129.066C95.6705 128.682 95.8985 128.184 96.0065 127.572C96.1145 126.948 96.1685 126.18 96.1685 125.268ZM100.569 125.268C100.569 123.192 100.941 121.566 101.685 120.39C102.441 119.214 103.689 118.626 105.429 118.626C107.169 118.626 108.411 119.214 109.155 120.39C109.911 121.566 110.289 123.192 110.289 125.268C110.289 127.356 109.911 128.994 109.155 130.182C108.411 131.37 107.169 131.964 105.429 131.964C103.689 131.964 102.441 131.37 101.685 130.182C100.941 128.994 100.569 127.356 100.569 125.268ZM107.805 125.268C107.805 124.38 107.745 123.636 107.625 123.036C107.517 122.424 107.289 121.926 106.941 121.542C106.605 121.158 106.101 120.966 105.429 120.966C104.757 120.966 104.247 121.158 103.899 121.542C103.563 121.926 103.335 122.424 103.215 123.036C103.107 123.636 103.053 124.38 103.053 125.268C103.053 126.18 103.107 126.948 103.215 127.572C103.323 128.184 103.551 128.682 103.899 129.066C104.247 129.438 104.757 129.624 105.429 129.624C106.101 129.624 106.611 129.438 106.959 129.066C107.307 128.682 107.535 128.184 107.643 127.572C107.751 126.948 107.805 126.18 107.805 125.268Z" fill="white"/>
<g filter="url(#filter0_d_949_390)">
<rect x="290" y="2" width="34" height="34" rx="10" fill="#42C9F4"/>
</g>
<path d="M344.472 24.126C343.632 24.126 342.876 23.982 342.204 23.694C341.532 23.394 341.004 22.974 340.62 22.434C340.236 21.894 340.044 21.264 340.044 20.544H342.24C342.288 21.084 342.498 21.528 342.87 21.876C343.254 22.224 343.788 22.398 344.472 22.398C345.18 22.398 345.732 22.23 346.128 21.894C346.524 21.546 346.722 21.102 346.722 20.562C346.722 20.142 346.596 19.8 346.344 19.536C346.104 19.272 345.798 19.068 345.426 18.924C345.066 18.78 344.562 18.624 343.914 18.456C343.098 18.24 342.432 18.024 341.916 17.808C341.412 17.58 340.98 17.232 340.62 16.764C340.26 16.296 340.08 15.672 340.08 14.892C340.08 14.172 340.26 13.542 340.62 13.002C340.98 12.462 341.484 12.048 342.132 11.76C342.78 11.472 343.53 11.328 344.382 11.328C345.594 11.328 346.584 11.634 347.352 12.246C348.132 12.846 348.564 13.674 348.648 14.73H346.38C346.344 14.274 346.128 13.884 345.732 13.56C345.336 13.236 344.814 13.074 344.166 13.074C343.578 13.074 343.098 13.224 342.726 13.524C342.354 13.824 342.168 14.256 342.168 14.82C342.168 15.204 342.282 15.522 342.51 15.774C342.75 16.014 343.05 16.206 343.41 16.35C343.77 16.494 344.262 16.65 344.886 16.818C345.714 17.046 346.386 17.274 346.902 17.502C347.43 17.73 347.874 18.084 348.234 18.564C348.606 19.032 348.792 19.662 348.792 20.454C348.792 21.09 348.618 21.69 348.27 22.254C347.934 22.818 347.436 23.274 346.776 23.622C346.128 23.958 345.36 24.126 344.472 24.126ZM360.303 18.798C360.303 19.17 360.279 19.506 360.231 19.806H352.653C352.713 20.598 353.007 21.234 353.535 21.714C354.063 22.194 354.711 22.434 355.479 22.434C356.583 22.434 357.363 21.972 357.819 21.048H360.033C359.733 21.96 359.187 22.71 358.395 23.298C357.615 23.874 356.643 24.162 355.479 24.162C354.531 24.162 353.679 23.952 352.923 23.532C352.179 23.1 351.591 22.5 351.159 21.732C350.739 20.952 350.529 20.052 350.529 19.032C350.529 18.012 350.733 17.118 351.141 16.35C351.561 15.57 352.143 14.97 352.887 14.55C353.643 14.13 354.507 13.92 355.479 13.92C356.415 13.92 357.249 14.124 357.981 14.532C358.713 14.94 359.283 15.516 359.691 16.26C360.099 16.992 360.303 17.838 360.303 18.798ZM358.161 18.15C358.149 17.394 357.879 16.788 357.351 16.332C356.823 15.876 356.169 15.648 355.389 15.648C354.681 15.648 354.075 15.876 353.571 16.332C353.067 16.776 352.767 17.382 352.671 18.15H358.161ZM371.413 18.798C371.413 19.17 371.389 19.506 371.341 19.806H363.763C363.823 20.598 364.117 21.234 364.645 21.714C365.173 22.194 365.821 22.434 366.589 22.434C367.693 22.434 368.473 21.972 368.929 21.048H371.143C370.843 21.96 370.297 22.71 369.505 23.298C368.725 23.874 367.753 24.162 366.589 24.162C365.641 24.162 364.789 23.952 364.033 23.532C363.289 23.1 362.701 22.5 362.269 21.732C361.849 20.952 361.639 20.052 361.639 19.032C361.639 18.012 361.843 17.118 362.251 16.35C362.671 15.57 363.253 14.97 363.997 14.55C364.753 14.13 365.617 13.92 366.589 13.92C367.525 13.92 368.359 14.124 369.091 14.532C369.823 14.94 370.393 15.516 370.801 16.26C371.209 16.992 371.413 17.838 371.413 18.798ZM369.271 18.15C369.259 17.394 368.989 16.788 368.461 16.332C367.933 15.876 367.279 15.648 366.499 15.648C365.791 15.648 365.185 15.876 364.681 16.332C364.177 16.776 363.877 17.382 363.781 18.15H369.271ZM372.748 18.996C372.748 18 372.952 17.118 373.36 16.35C373.78 15.582 374.344 14.988 375.052 14.568C375.772 14.136 376.57 13.92 377.446 13.92C378.094 13.92 378.73 14.064 379.354 14.352C379.99 14.628 380.494 15 380.866 15.468V10.68H382.936V24H380.866V22.506C380.53 22.986 380.062 23.382 379.462 23.694C378.874 24.006 378.196 24.162 377.428 24.162C376.564 24.162 375.772 23.946 375.052 23.514C374.344 23.07 373.78 22.458 373.36 21.678C372.952 20.886 372.748 19.992 372.748 18.996ZM380.866 19.032C380.866 18.348 380.722 17.754 380.434 17.25C380.158 16.746 379.792 16.362 379.336 16.098C378.88 15.834 378.388 15.702 377.86 15.702C377.332 15.702 376.84 15.834 376.384 16.098C375.928 16.35 375.556 16.728 375.268 17.232C374.992 17.724 374.854 18.312 374.854 18.996C374.854 19.68 374.992 20.28 375.268 20.796C375.556 21.312 375.928 21.708 376.384 21.984C376.852 22.248 377.344 22.38 377.86 22.38C378.388 22.38 378.88 22.248 379.336 21.984C379.792 21.72 380.158 21.336 380.434 20.832C380.722 20.316 380.866 19.716 380.866 19.032ZM394.429 24.126C393.589 24.126 392.833 23.982 392.161 23.694C391.489 23.394 390.961 22.974 390.577 22.434C390.193 21.894 390.001 21.264 390.001 20.544H392.197C392.245 21.084 392.455 21.528 392.827 21.876C393.211 22.224 393.745 22.398 394.429 22.398C395.137 22.398 395.689 22.23 396.085 21.894C396.481 21.546 396.679 21.102 396.679 20.562C396.679 20.142 396.553 19.8 396.301 19.536C396.061 19.272 395.755 19.068 395.383 18.924C395.023 18.78 394.519 18.624 393.871 18.456C393.055 18.24 392.389 18.024 391.873 17.808C391.369 17.58 390.937 17.232 390.577 16.764C390.217 16.296 390.037 15.672 390.037 14.892C390.037 14.172 390.217 13.542 390.577 13.002C390.937 12.462 391.441 12.048 392.089 11.76C392.737 11.472 393.487 11.328 394.339 11.328C395.551 11.328 396.541 11.634 397.309 12.246C398.089 12.846 398.521 13.674 398.605 14.73H396.337C396.301 14.274 396.085 13.884 395.689 13.56C395.293 13.236 394.771 13.074 394.123 13.074C393.535 13.074 393.055 13.224 392.683 13.524C392.311 13.824 392.125 14.256 392.125 14.82C392.125 15.204 392.239 15.522 392.467 15.774C392.707 16.014 393.007 16.206 393.367 16.35C393.727 16.494 394.219 16.65 394.843 16.818C395.671 17.046 396.343 17.274 396.859 17.502C397.387 17.73 397.831 18.084 398.191 18.564C398.563 19.032 398.749 19.662 398.749 20.454C398.749 21.09 398.575 21.69 398.227 22.254C397.891 22.818 397.393 23.274 396.733 23.622C396.085 23.958 395.317 24.126 394.429 24.126ZM400.486 18.996C400.486 18 400.69 17.118 401.098 16.35C401.518 15.582 402.082 14.988 402.79 14.568C403.51 14.136 404.302 13.92 405.166 13.92C405.946 13.92 406.624 14.076 407.2 14.388C407.788 14.688 408.256 15.066 408.604 15.522V14.082H410.674V24H408.604V22.524C408.256 22.992 407.782 23.382 407.182 23.694C406.582 24.006 405.898 24.162 405.13 24.162C404.278 24.162 403.498 23.946 402.79 23.514C402.082 23.07 401.518 22.458 401.098 21.678C400.69 20.886 400.486 19.992 400.486 18.996ZM408.604 19.032C408.604 18.348 408.46 17.754 408.172 17.25C407.896 16.746 407.53 16.362 407.074 16.098C406.618 15.834 406.126 15.702 405.598 15.702C405.07 15.702 404.578 15.834 404.122 16.098C403.666 16.35 403.294 16.728 403.006 17.232C402.73 17.724 402.592 18.312 402.592 18.996C402.592 19.68 402.73 20.28 403.006 20.796C403.294 21.312 403.666 21.708 404.122 21.984C404.59 22.248 405.082 22.38 405.598 22.38C406.126 22.38 406.618 22.248 407.074 21.984C407.53 21.72 407.896 21.336 408.172 20.832C408.46 20.316 408.604 19.716 408.604 19.032ZM415.422 10.68V24H413.37V10.68H415.422ZM427.206 18.798C427.206 19.17 427.182 19.506 427.134 19.806H419.556C419.616 20.598 419.91 21.234 420.438 21.714C420.966 22.194 421.614 22.434 422.382 22.434C423.486 22.434 424.266 21.972 424.722 21.048H426.936C426.636 21.96 426.09 22.71 425.298 23.298C424.518 23.874 423.546 24.162 422.382 24.162C421.434 24.162 420.582 23.952 419.826 23.532C419.082 23.1 418.494 22.5 418.062 21.732C417.642 20.952 417.432 20.052 417.432 19.032C417.432 18.012 417.636 17.118 418.044 16.35C418.464 15.57 419.046 14.97 419.79 14.55C420.546 14.13 421.41 13.92 422.382 13.92C423.318 13.92 424.152 14.124 424.884 14.532C425.616 14.94 426.186 15.516 426.594 16.26C427.002 16.992 427.206 17.838 427.206 18.798ZM425.064 18.15C425.052 17.394 424.782 16.788 424.254 16.332C423.726 15.876 423.072 15.648 422.292 15.648C421.584 15.648 420.978 15.876 420.474 16.332C419.97 16.776 419.67 17.382 419.574 18.15H425.064Z" fill="white"/>
<g filter="url(#filter1_d_949_390)">
<rect x="469" y="2" width="34" height="34" rx="10" fill="#FF6D01"/>
</g>
<path d="M527.432 11.49V13.164H524.102V24H522.05V13.164H518.702V11.49H527.432ZM538.6 18.798C538.6 19.17 538.576 19.506 538.528 19.806H530.95C531.01 20.598 531.304 21.234 531.832 21.714C532.36 22.194 533.008 22.434 533.776 22.434C534.88 22.434 535.66 21.972 536.116 21.048H538.33C538.03 21.96 537.484 22.71 536.692 23.298C535.912 23.874 534.94 24.162 533.776 24.162C532.828 24.162 531.976 23.952 531.22 23.532C530.476 23.1 529.888 22.5 529.456 21.732C529.036 20.952 528.826 20.052 528.826 19.032C528.826 18.012 529.03 17.118 529.438 16.35C529.858 15.57 530.44 14.97 531.184 14.55C531.94 14.13 532.804 13.92 533.776 13.92C534.712 13.92 535.546 14.124 536.278 14.532C537.01 14.94 537.58 15.516 537.988 16.26C538.396 16.992 538.6 17.838 538.6 18.798ZM536.458 18.15C536.446 17.394 536.176 16.788 535.648 16.332C535.12 15.876 534.466 15.648 533.686 15.648C532.978 15.648 532.372 15.876 531.868 16.332C531.364 16.776 531.064 17.382 530.968 18.15H536.458ZM539.936 18.996C539.936 18 540.14 17.118 540.548 16.35C540.968 15.582 541.532 14.988 542.24 14.568C542.96 14.136 543.752 13.92 544.616 13.92C545.396 13.92 546.074 14.076 546.65 14.388C547.238 14.688 547.706 15.066 548.054 15.522V14.082H550.124V24H548.054V22.524C547.706 22.992 547.232 23.382 546.632 23.694C546.032 24.006 545.348 24.162 544.58 24.162C543.728 24.162 542.948 23.946 542.24 23.514C541.532 23.07 540.968 22.458 540.548 21.678C540.14 20.886 539.936 19.992 539.936 18.996ZM548.054 19.032C548.054 18.348 547.91 17.754 547.622 17.25C547.346 16.746 546.98 16.362 546.524 16.098C546.068 15.834 545.576 15.702 545.048 15.702C544.52 15.702 544.028 15.834 543.572 16.098C543.116 16.35 542.744 16.728 542.456 17.232C542.18 17.724 542.042 18.312 542.042 18.996C542.042 19.68 542.18 20.28 542.456 20.796C542.744 21.312 543.116 21.708 543.572 21.984C544.04 22.248 544.532 22.38 545.048 22.38C545.576 22.38 546.068 22.248 546.524 21.984C546.98 21.72 547.346 21.336 547.622 20.832C547.91 20.316 548.054 19.716 548.054 19.032ZM564.825 13.92C565.605 13.92 566.301 14.082 566.913 14.406C567.537 14.73 568.023 15.21 568.371 15.846C568.731 16.482 568.911 17.25 568.911 18.15V24H566.877V18.456C566.877 17.568 566.655 16.89 566.211 16.422C565.767 15.942 565.161 15.702 564.393 15.702C563.625 15.702 563.013 15.942 562.557 16.422C562.113 16.89 561.891 17.568 561.891 18.456V24H559.857V18.456C559.857 17.568 559.635 16.89 559.191 16.422C558.747 15.942 558.141 15.702 557.373 15.702C556.605 15.702 555.993 15.942 555.537 16.422C555.093 16.89 554.871 17.568 554.871 18.456V24H552.819V14.082H554.871V15.216C555.207 14.808 555.633 14.49 556.149 14.262C556.665 14.034 557.217 13.92 557.805 13.92C558.597 13.92 559.305 14.088 559.929 14.424C560.553 14.76 561.033 15.246 561.369 15.882C561.669 15.282 562.137 14.808 562.773 14.46C563.409 14.1 564.093 13.92 564.825 13.92Z" fill="white"/>
<g filter="url(#filter2_d_949_390)">
<rect x="612" y="2" width="34" height="34" rx="10" fill="#47CF6A"/>
</g>
<path d="M671.098 15.216C671.098 15.852 670.948 16.452 670.648 17.016C670.348 17.58 669.868 18.042 669.208 18.402C668.548 18.75 667.702 18.924 666.67 18.924H664.402V24H662.35V11.49H666.67C667.63 11.49 668.44 11.658 669.1 11.994C669.772 12.318 670.27 12.762 670.594 13.326C670.93 13.89 671.098 14.52 671.098 15.216ZM666.67 17.25C667.45 17.25 668.032 17.076 668.416 16.728C668.8 16.368 668.992 15.864 668.992 15.216C668.992 13.848 668.218 13.164 666.67 13.164H664.402V17.25H666.67ZM682.037 14.082V24H679.985V22.83C679.661 23.238 679.235 23.562 678.707 23.802C678.191 24.03 677.639 24.144 677.051 24.144C676.271 24.144 675.569 23.982 674.945 23.658C674.333 23.334 673.847 22.854 673.487 22.218C673.139 21.582 672.965 20.814 672.965 19.914V14.082H674.999V19.608C674.999 20.496 675.221 21.18 675.665 21.66C676.109 22.128 676.715 22.362 677.483 22.362C678.251 22.362 678.857 22.128 679.301 21.66C679.757 21.18 679.985 20.496 679.985 19.608V14.082H682.037ZM686.797 15.558C687.145 15.078 687.619 14.688 688.219 14.388C688.831 14.076 689.509 13.92 690.253 13.92C691.129 13.92 691.921 14.13 692.629 14.55C693.337 14.97 693.895 15.57 694.303 16.35C694.711 17.118 694.915 18 694.915 18.996C694.915 19.992 694.711 20.886 694.303 21.678C693.895 22.458 693.331 23.07 692.611 23.514C691.903 23.946 691.117 24.162 690.253 24.162C689.485 24.162 688.801 24.012 688.201 23.712C687.613 23.412 687.145 23.028 686.797 22.56V24H684.745V10.68H686.797V15.558ZM692.827 18.996C692.827 18.312 692.683 17.724 692.395 17.232C692.119 16.728 691.747 16.35 691.279 16.098C690.823 15.834 690.331 15.702 689.803 15.702C689.287 15.702 688.795 15.834 688.327 16.098C687.871 16.362 687.499 16.746 687.211 17.25C686.935 17.754 686.797 18.348 686.797 19.032C686.797 19.716 686.935 20.316 687.211 20.832C687.499 21.336 687.871 21.72 688.327 21.984C688.795 22.248 689.287 22.38 689.803 22.38C690.331 22.38 690.823 22.248 691.279 21.984C691.747 21.708 692.119 21.312 692.395 20.796C692.683 20.28 692.827 19.68 692.827 18.996ZM698.996 10.68V24H696.944V10.68H698.996ZM702.734 12.768C702.362 12.768 702.05 12.642 701.798 12.39C701.546 12.138 701.42 11.826 701.42 11.454C701.42 11.082 701.546 10.77 701.798 10.518C702.05 10.266 702.362 10.14 702.734 10.14C703.094 10.14 703.4 10.266 703.652 10.518C703.904 10.77 704.03 11.082 704.03 11.454C704.03 11.826 703.904 12.138 703.652 12.39C703.4 12.642 703.094 12.768 702.734 12.768ZM703.742 14.082V24H701.69V14.082H703.742ZM705.752 19.032C705.752 18.012 705.956 17.118 706.364 16.35C706.784 15.57 707.36 14.97 708.092 14.55C708.824 14.13 709.664 13.92 710.612 13.92C711.812 13.92 712.802 14.208 713.582 14.784C714.374 15.348 714.908 16.158 715.184 17.214H712.97C712.79 16.722 712.502 16.338 712.106 16.062C711.71 15.786 711.212 15.648 710.612 15.648C709.772 15.648 709.1 15.948 708.596 16.548C708.104 17.136 707.858 17.964 707.858 19.032C707.858 20.1 708.104 20.934 708.596 21.534C709.1 22.134 709.772 22.434 710.612 22.434C711.8 22.434 712.586 21.912 712.97 20.868H715.184C714.896 21.876 714.356 22.68 713.564 23.28C712.772 23.868 711.788 24.162 710.612 24.162C709.664 24.162 708.824 23.952 708.092 23.532C707.36 23.1 706.784 22.5 706.364 21.732C705.956 20.952 705.752 20.052 705.752 19.032ZM726.027 24.126C725.187 24.126 724.431 23.982 723.759 23.694C723.087 23.394 722.559 22.974 722.175 22.434C721.791 21.894 721.599 21.264 721.599 20.544H723.795C723.843 21.084 724.053 21.528 724.425 21.876C724.809 22.224 725.343 22.398 726.027 22.398C726.735 22.398 727.287 22.23 727.683 21.894C728.079 21.546 728.277 21.102 728.277 20.562C728.277 20.142 728.151 19.8 727.899 19.536C727.659 19.272 727.353 19.068 726.981 18.924C726.621 18.78 726.117 18.624 725.469 18.456C724.653 18.24 723.987 18.024 723.471 17.808C722.967 17.58 722.535 17.232 722.175 16.764C721.815 16.296 721.635 15.672 721.635 14.892C721.635 14.172 721.815 13.542 722.175 13.002C722.535 12.462 723.039 12.048 723.687 11.76C724.335 11.472 725.085 11.328 725.937 11.328C727.149 11.328 728.139 11.634 728.907 12.246C729.687 12.846 730.119 13.674 730.203 14.73H727.935C727.899 14.274 727.683 13.884 727.287 13.56C726.891 13.236 726.369 13.074 725.721 13.074C725.133 13.074 724.653 13.224 724.281 13.524C723.909 13.824 723.723 14.256 723.723 14.82C723.723 15.204 723.837 15.522 724.065 15.774C724.305 16.014 724.605 16.206 724.965 16.35C725.325 16.494 725.817 16.65 726.441 16.818C727.269 17.046 727.941 17.274 728.457 17.502C728.985 17.73 729.429 18.084 729.789 18.564C730.161 19.032 730.347 19.662 730.347 20.454C730.347 21.09 730.173 21.69 729.825 22.254C729.489 22.818 728.991 23.274 728.331 23.622C727.683 23.958 726.915 24.126 726.027 24.126ZM732.084 18.996C732.084 18 732.288 17.118 732.696 16.35C733.116 15.582 733.68 14.988 734.388 14.568C735.108 14.136 735.9 13.92 736.764 13.92C737.544 13.92 738.222 14.076 738.798 14.388C739.386 14.688 739.854 15.066 740.202 15.522V14.082H742.272V24H740.202V22.524C739.854 22.992 739.38 23.382 738.78 23.694C738.18 24.006 737.496 24.162 736.728 24.162C735.876 24.162 735.096 23.946 734.388 23.514C733.68 23.07 733.116 22.458 732.696 21.678C732.288 20.886 732.084 19.992 732.084 18.996ZM740.202 19.032C740.202 18.348 740.058 17.754 739.77 17.25C739.494 16.746 739.128 16.362 738.672 16.098C738.216 15.834 737.724 15.702 737.196 15.702C736.668 15.702 736.176 15.834 735.72 16.098C735.264 16.35 734.892 16.728 734.604 17.232C734.328 17.724 734.19 18.312 734.19 18.996C734.19 19.68 734.328 20.28 734.604 20.796C734.892 21.312 735.264 21.708 735.72 21.984C736.188 22.248 736.68 22.38 737.196 22.38C737.724 22.38 738.216 22.248 738.672 21.984C739.128 21.72 739.494 21.336 739.77 20.832C740.058 20.316 740.202 19.716 740.202 19.032ZM747.019 10.68V24H744.967V10.68H747.019ZM758.803 18.798C758.803 19.17 758.779 19.506 758.731 19.806H751.153C751.213 20.598 751.507 21.234 752.035 21.714C752.563 22.194 753.211 22.434 753.979 22.434C755.083 22.434 755.863 21.972 756.319 21.048H758.533C758.233 21.96 757.687 22.71 756.895 23.298C756.115 23.874 755.143 24.162 753.979 24.162C753.031 24.162 752.179 23.952 751.423 23.532C750.679 23.1 750.091 22.5 749.659 21.732C749.239 20.952 749.029 20.052 749.029 19.032C749.029 18.012 749.233 17.118 749.641 16.35C750.061 15.57 750.643 14.97 751.387 14.55C752.143 14.13 753.007 13.92 753.979 13.92C754.915 13.92 755.749 14.124 756.481 14.532C757.213 14.94 757.783 15.516 758.191 16.26C758.599 16.992 758.803 17.838 758.803 18.798ZM756.661 18.15C756.649 17.394 756.379 16.788 755.851 16.332C755.323 15.876 754.669 15.648 753.889 15.648C753.181 15.648 752.575 15.876 752.071 16.332C751.567 16.776 751.267 17.382 751.171 18.15H756.661Z" fill="white"/>
<g filter="url(#filter3_d_949_390)">
<rect x="801" y="2" width="34" height="34" rx="10" fill="#FBBC04"/>
</g>
<path d="M860.098 15.216C860.098 15.852 859.948 16.452 859.648 17.016C859.348 17.58 858.868 18.042 858.208 18.402C857.548 18.75 856.702 18.924 855.67 18.924H853.402V24H851.35V11.49H855.67C856.63 11.49 857.44 11.658 858.1 11.994C858.772 12.318 859.27 12.762 859.594 13.326C859.93 13.89 860.098 14.52 860.098 15.216ZM855.67 17.25C856.45 17.25 857.032 17.076 857.416 16.728C857.8 16.368 857.992 15.864 857.992 15.216C857.992 13.848 857.218 13.164 855.67 13.164H853.402V17.25H855.67ZM864.107 15.522C864.407 15.018 864.803 14.628 865.295 14.352C865.799 14.064 866.393 13.92 867.077 13.92V16.044H866.555C865.751 16.044 865.139 16.248 864.719 16.656C864.311 17.064 864.107 17.772 864.107 18.78V24H862.055V14.082H864.107V15.522ZM870.007 12.768C869.635 12.768 869.323 12.642 869.071 12.39C868.819 12.138 868.693 11.826 868.693 11.454C868.693 11.082 868.819 10.77 869.071 10.518C869.323 10.266 869.635 10.14 870.007 10.14C870.367 10.14 870.673 10.266 870.925 10.518C871.177 10.77 871.303 11.082 871.303 11.454C871.303 11.826 871.177 12.138 870.925 12.39C870.673 12.642 870.367 12.768 870.007 12.768ZM871.015 14.082V24H868.963V14.082H871.015ZM877.543 22.164L880.351 14.082H882.529L878.749 24H876.301L872.539 14.082H874.735L877.543 22.164ZM883.396 18.996C883.396 18 883.6 17.118 884.008 16.35C884.428 15.582 884.992 14.988 885.7 14.568C886.42 14.136 887.212 13.92 888.076 13.92C888.856 13.92 889.534 14.076 890.11 14.388C890.698 14.688 891.166 15.066 891.514 15.522V14.082H893.584V24H891.514V22.524C891.166 22.992 890.692 23.382 890.092 23.694C889.492 24.006 888.808 24.162 888.04 24.162C887.188 24.162 886.408 23.946 885.7 23.514C884.992 23.07 884.428 22.458 884.008 21.678C883.6 20.886 883.396 19.992 883.396 18.996ZM891.514 19.032C891.514 18.348 891.37 17.754 891.082 17.25C890.806 16.746 890.44 16.362 889.984 16.098C889.528 15.834 889.036 15.702 888.508 15.702C887.98 15.702 887.488 15.834 887.032 16.098C886.576 16.35 886.204 16.728 885.916 17.232C885.64 17.724 885.502 18.312 885.502 18.996C885.502 19.68 885.64 20.28 885.916 20.796C886.204 21.312 886.576 21.708 887.032 21.984C887.5 22.248 887.992 22.38 888.508 22.38C889.036 22.38 889.528 22.248 889.984 21.984C890.44 21.72 890.806 21.336 891.082 20.832C891.37 20.316 891.514 19.716 891.514 19.032ZM898.674 15.756V21.246C898.674 21.618 898.758 21.888 898.926 22.056C899.106 22.212 899.406 22.29 899.826 22.29H901.086V24H899.466C898.542 24 897.834 23.784 897.342 23.352C896.85 22.92 896.604 22.218 896.604 21.246V15.756H895.434V14.082H896.604V11.616H898.674V14.082H901.086V15.756H898.674ZM912.067 18.798C912.067 19.17 912.043 19.506 911.995 19.806H904.417C904.477 20.598 904.771 21.234 905.299 21.714C905.827 22.194 906.475 22.434 907.243 22.434C908.347 22.434 909.127 21.972 909.583 21.048H911.797C911.497 21.96 910.951 22.71 910.159 23.298C909.379 23.874 908.407 24.162 907.243 24.162C906.295 24.162 905.443 23.952 904.687 23.532C903.943 23.1 903.355 22.5 902.923 21.732C902.503 20.952 902.293 20.052 902.293 19.032C902.293 18.012 902.497 17.118 902.905 16.35C903.325 15.57 903.907 14.97 904.651 14.55C905.407 14.13 906.271 13.92 907.243 13.92C908.179 13.92 909.013 14.124 909.745 14.532C910.477 14.94 911.047 15.516 911.455 16.26C911.863 16.992 912.067 17.838 912.067 18.798ZM909.925 18.15C909.913 17.394 909.643 16.788 909.115 16.332C908.587 15.876 907.933 15.648 907.153 15.648C906.445 15.648 905.839 15.876 905.335 16.332C904.831 16.776 904.531 17.382 904.435 18.15H909.925ZM922.362 24.162C921.582 24.162 920.88 24.024 920.256 23.748C919.644 23.46 919.158 23.076 918.798 22.596C918.438 22.104 918.246 21.558 918.222 20.958H920.346C920.382 21.378 920.58 21.732 920.94 22.02C921.312 22.296 921.774 22.434 922.326 22.434C922.902 22.434 923.346 22.326 923.658 22.11C923.982 21.882 924.144 21.594 924.144 21.246C924.144 20.874 923.964 20.598 923.604 20.418C923.256 20.238 922.698 20.04 921.93 19.824C921.186 19.62 920.58 19.422 920.112 19.23C919.644 19.038 919.236 18.744 918.888 18.348C918.552 17.952 918.384 17.43 918.384 16.782C918.384 16.254 918.54 15.774 918.852 15.342C919.164 14.898 919.608 14.55 920.184 14.298C920.772 14.046 921.444 13.92 922.2 13.92C923.328 13.92 924.234 14.208 924.918 14.784C925.614 15.348 925.986 16.122 926.034 17.106H923.982C923.946 16.662 923.766 16.308 923.442 16.044C923.118 15.78 922.68 15.648 922.128 15.648C921.588 15.648 921.174 15.75 920.886 15.954C920.598 16.158 920.454 16.428 920.454 16.764C920.454 17.028 920.55 17.25 920.742 17.43C920.934 17.61 921.168 17.754 921.444 17.862C921.72 17.958 922.128 18.084 922.668 18.24C923.388 18.432 923.976 18.63 924.432 18.834C924.9 19.026 925.302 19.314 925.638 19.698C925.974 20.082 926.148 20.592 926.16 21.228C926.16 21.792 926.004 22.296 925.692 22.74C925.38 23.184 924.936 23.532 924.36 23.784C923.796 24.036 923.13 24.162 922.362 24.162ZM927.693 18.996C927.693 18 927.897 17.118 928.305 16.35C928.725 15.582 929.289 14.988 929.997 14.568C930.717 14.136 931.509 13.92 932.373 13.92C933.153 13.92 933.831 14.076 934.407 14.388C934.995 14.688 935.463 15.066 935.811 15.522V14.082H937.881V24H935.811V22.524C935.463 22.992 934.989 23.382 934.389 23.694C933.789 24.006 933.105 24.162 932.337 24.162C931.485 24.162 930.705 23.946 929.997 23.514C929.289 23.07 928.725 22.458 928.305 21.678C927.897 20.886 927.693 19.992 927.693 18.996ZM935.811 19.032C935.811 18.348 935.667 17.754 935.379 17.25C935.103 16.746 934.737 16.362 934.281 16.098C933.825 15.834 933.333 15.702 932.805 15.702C932.277 15.702 931.785 15.834 931.329 16.098C930.873 16.35 930.501 16.728 930.213 17.232C929.937 17.724 929.799 18.312 929.799 18.996C929.799 19.68 929.937 20.28 930.213 20.796C930.501 21.312 930.873 21.708 931.329 21.984C931.797 22.248 932.289 22.38 932.805 22.38C933.333 22.38 933.825 22.248 934.281 21.984C934.737 21.72 935.103 21.336 935.379 20.832C935.667 20.316 935.811 19.716 935.811 19.032ZM942.629 10.68V24H940.577V10.68H942.629ZM954.413 18.798C954.413 19.17 954.389 19.506 954.341 19.806H946.763C946.823 20.598 947.117 21.234 947.645 21.714C948.173 22.194 948.821 22.434 949.589 22.434C950.693 22.434 951.473 21.972 951.929 21.048H954.143C953.843 21.96 953.297 22.71 952.505 23.298C951.725 23.874 950.753 24.162 949.589 24.162C948.641 24.162 947.789 23.952 947.033 23.532C946.289 23.1 945.701 22.5 945.269 21.732C944.849 20.952 944.639 20.052 944.639 19.032C944.639 18.012 944.843 17.118 945.251 16.35C945.671 15.57 946.253 14.97 946.997 14.55C947.753 14.13 948.617 13.92 949.589 13.92C950.525 13.92 951.359 14.124 952.091 14.532C952.823 14.94 953.393 15.516 953.801 16.26C954.209 16.992 954.413 17.838 954.413 18.798ZM952.271 18.15C952.259 17.394 951.989 16.788 951.461 16.332C950.933 15.876 950.279 15.648 949.499 15.648C948.791 15.648 948.185 15.876 947.681 16.332C947.177 16.776 946.877 17.382 946.781 18.15H952.271Z" fill="white"/>
<g filter="url(#filter4_d_949_390)">
<rect x="997" y="2" width="34" height="34" rx="10" fill="#EA4335"/>
</g>
<path d="M1060.53 11.49V24H1058.47V15.432L1054.66 24H1053.24L1049.4 15.432V24H1047.35V11.49H1049.56L1053.96 21.3L1058.33 11.49H1060.53ZM1062.54 18.996C1062.54 18 1062.74 17.118 1063.15 16.35C1063.57 15.582 1064.14 14.988 1064.84 14.568C1065.56 14.136 1066.36 13.92 1067.22 13.92C1068 13.92 1068.68 14.076 1069.25 14.388C1069.84 14.688 1070.31 15.066 1070.66 15.522V14.082H1072.73V24H1070.66V22.524C1070.31 22.992 1069.84 23.382 1069.24 23.694C1068.64 24.006 1067.95 24.162 1067.18 24.162C1066.33 24.162 1065.55 23.946 1064.84 23.514C1064.14 23.07 1063.57 22.458 1063.15 21.678C1062.74 20.886 1062.54 19.992 1062.54 18.996ZM1070.66 19.032C1070.66 18.348 1070.51 17.754 1070.23 17.25C1069.95 16.746 1069.58 16.362 1069.13 16.098C1068.67 15.834 1068.18 15.702 1067.65 15.702C1067.12 15.702 1066.63 15.834 1066.18 16.098C1065.72 16.35 1065.35 16.728 1065.06 17.232C1064.78 17.724 1064.65 18.312 1064.65 18.996C1064.65 19.68 1064.78 20.28 1065.06 20.796C1065.35 21.312 1065.72 21.708 1066.18 21.984C1066.64 22.248 1067.14 22.38 1067.65 22.38C1068.18 22.38 1068.67 22.248 1069.13 21.984C1069.58 21.72 1069.95 21.336 1070.23 20.832C1070.51 20.316 1070.66 19.716 1070.66 19.032ZM1077.47 15.522C1077.77 15.018 1078.17 14.628 1078.66 14.352C1079.17 14.064 1079.76 13.92 1080.44 13.92V16.044H1079.92C1079.12 16.044 1078.51 16.248 1078.09 16.656C1077.68 17.064 1077.47 17.772 1077.47 18.78V24H1075.42V14.082H1077.47V15.522ZM1086.25 19.05L1090.83 24H1088.05L1084.38 19.734V24H1082.33V10.68H1084.38V18.42L1087.98 14.082H1090.83L1086.25 19.05ZM1101.39 18.798C1101.39 19.17 1101.36 19.506 1101.32 19.806H1093.74C1093.8 20.598 1094.09 21.234 1094.62 21.714C1095.15 22.194 1095.8 22.434 1096.56 22.434C1097.67 22.434 1098.45 21.972 1098.9 21.048H1101.12C1100.82 21.96 1100.27 22.71 1099.48 23.298C1098.7 23.874 1097.73 24.162 1096.56 24.162C1095.62 24.162 1094.76 23.952 1094.01 23.532C1093.26 23.1 1092.68 22.5 1092.24 21.732C1091.82 20.952 1091.61 20.052 1091.61 19.032C1091.61 18.012 1091.82 17.118 1092.23 16.35C1092.65 15.57 1093.23 14.97 1093.97 14.55C1094.73 14.13 1095.59 13.92 1096.56 13.92C1097.5 13.92 1098.33 14.124 1099.07 14.532C1099.8 14.94 1100.37 15.516 1100.78 16.26C1101.18 16.992 1101.39 17.838 1101.39 18.798ZM1099.25 18.15C1099.23 17.394 1098.96 16.788 1098.44 16.332C1097.91 15.876 1097.25 15.648 1096.47 15.648C1095.77 15.648 1095.16 15.876 1094.66 16.332C1094.15 16.776 1093.85 17.382 1093.76 18.15H1099.25ZM1105.8 15.756V21.246C1105.8 21.618 1105.88 21.888 1106.05 22.056C1106.23 22.212 1106.53 22.29 1106.95 22.29H1108.21V24H1106.59C1105.67 24 1104.96 23.784 1104.47 23.352C1103.98 22.92 1103.73 22.218 1103.73 21.246V15.756H1102.56V14.082H1103.73V11.616H1105.8V14.082H1108.21V15.756H1105.8ZM1111.15 12.768C1110.78 12.768 1110.46 12.642 1110.21 12.39C1109.96 12.138 1109.83 11.826 1109.83 11.454C1109.83 11.082 1109.96 10.77 1110.21 10.518C1110.46 10.266 1110.78 10.14 1111.15 10.14C1111.51 10.14 1111.81 10.266 1112.07 10.518C1112.32 10.77 1112.44 11.082 1112.44 11.454C1112.44 11.826 1112.32 12.138 1112.07 12.39C1111.81 12.642 1111.51 12.768 1111.15 12.768ZM1112.16 14.082V24H1110.1V14.082H1112.16ZM1119.85 13.92C1120.63 13.92 1121.33 14.082 1121.94 14.406C1122.57 14.73 1123.05 15.21 1123.4 15.846C1123.75 16.482 1123.92 17.25 1123.92 18.15V24H1121.89V18.456C1121.89 17.568 1121.67 16.89 1121.22 16.422C1120.78 15.942 1120.17 15.702 1119.4 15.702C1118.64 15.702 1118.02 15.942 1117.57 16.422C1117.12 16.89 1116.9 17.568 1116.9 18.456V24H1114.85V14.082H1116.9V15.216C1117.24 14.808 1117.66 14.49 1118.18 14.262C1118.71 14.034 1119.27 13.92 1119.85 13.92ZM1130.54 13.92C1131.3 13.92 1131.98 14.076 1132.57 14.388C1133.17 14.688 1133.64 15.066 1133.97 15.522V14.082H1136.04V24.162C1136.04 25.074 1135.85 25.884 1135.47 26.592C1135.08 27.312 1134.53 27.876 1133.79 28.284C1133.07 28.692 1132.21 28.896 1131.2 28.896C1129.86 28.896 1128.74 28.578 1127.85 27.942C1126.97 27.318 1126.46 26.466 1126.34 25.386H1128.38C1128.53 25.902 1128.86 26.316 1129.37 26.628C1129.88 26.952 1130.49 27.114 1131.2 27.114C1132.03 27.114 1132.7 26.862 1133.2 26.358C1133.72 25.854 1133.97 25.122 1133.97 24.162V22.506C1133.63 22.974 1133.15 23.37 1132.55 23.694C1131.96 24.006 1131.29 24.162 1130.54 24.162C1129.67 24.162 1128.88 23.946 1128.16 23.514C1127.45 23.07 1126.89 22.458 1126.47 21.678C1126.06 20.886 1125.86 19.992 1125.86 18.996C1125.86 18 1126.06 17.118 1126.47 16.35C1126.89 15.582 1127.45 14.988 1128.16 14.568C1128.88 14.136 1129.67 13.92 1130.54 13.92ZM1133.97 19.032C1133.97 18.348 1133.83 17.754 1133.54 17.25C1133.27 16.746 1132.9 16.362 1132.44 16.098C1131.99 15.834 1131.5 15.702 1130.97 15.702C1130.44 15.702 1129.95 15.834 1129.49 16.098C1129.04 16.35 1128.66 16.728 1128.38 17.232C1128.1 17.724 1127.96 18.312 1127.96 18.996C1127.96 19.68 1128.1 20.28 1128.38 20.796C1128.66 21.312 1129.04 21.708 1129.49 21.984C1129.96 22.248 1130.45 22.38 1130.97 22.38C1131.5 22.38 1131.99 22.248 1132.44 21.984C1132.9 21.72 1133.27 21.336 1133.54 20.832C1133.83 20.316 1133.97 19.716 1133.97 19.032Z" fill="white"/>
<path d="M130 432H1143.5" stroke="white"/>
<path d="M130 330H1143.5" stroke="white"/>
<path d="M130 228H1143.5" stroke="white"/>
<path d="M130 126H1143.5" stroke="white"/>
<path d="M340.5 430.5L131.5 519V534.5L444.5 500H1142.5V410.5H538L340.5 430.5Z" fill="url(#paint0_linear_949_390)"/>
<path d="M131.5 519L340.5 430.5L538 410.5H1142.5" stroke="#FBBC04" stroke-width="3" stroke-linecap="round"/>
<path d="M443.5 500L134.5 532.5L1142 533.5V500H443.5Z" fill="url(#paint1_linear_949_390)"/>
<path d="M134.5 533L444 500H1142" stroke="#EA4335" stroke-width="3" stroke-linecap="round"/>
<path d="M284.5 401.5L132.5 503.5V518.5L340 430.5L538 410.5H1141.5V366H523L329.5 385L284.5 401.5Z" fill="url(#paint2_linear_949_390)"/>
<path d="M132.5 503.5L284.5 401.5L329.5 385L523 366H1141.5" stroke="#47CF6A" stroke-width="3" stroke-linecap="round"/>
<path d="M528 329.5L329.5 385L523.5 366.5H1140.5V329.5H528Z" fill="url(#paint3_linear_949_390)"/>
<path d="M132.5 503.5L285 401L329.5 385L528 329.5H1140.5" stroke="#FF6D01" stroke-width="3" stroke-linecap="round"/>
<path d="M528 289.5L329.5 345L523.5 326.5H1140.5V289.5H528Z" fill="url(#paint4_linear_949_390)"/>
<path d="M133 502L285 361L329.5 345L528 289.5H1140.5" stroke="#42C9F4" stroke-width="3" stroke-linecap="round"/>
<path d="M252 350.5L129.5 504.5L285.5 361L329.5 345L527.5 290H1141.5V143.5L635.5 195.5L500 221L316 305.5L252 350.5Z" fill="url(#paint5_linear_949_390)"/>
<path d="M129.5 504.5L252 350.5L316 305.5L500 221L635.5 195.5L1141.5 143.5" stroke="#555763" stroke-width="3"/>
<defs>
<filter id="filter0_d_949_390" x="279" y="2" width="62" height="63" filterUnits="userSpaceOnUse" color-interpolation-filters="sRGB">
<feFlood flood-opacity="0" result="BackgroundImageFix"/>
<feColorMatrix in="SourceAlpha" type="matrix" values="0 0 0 0 0 0 0 0 0 0 0 0 0 0 0 0 0 0 127 0" result="hardAlpha"/>
<feMorphology radius="3" operator="erode" in="SourceAlpha" result="effect1_dropShadow_949_390"/>
<feOffset dx="3" dy="15"/>
<feGaussianBlur stdDeviation="8.5"/>
<feComposite in2="hardAlpha" operator="out"/>
<feColorMatrix type="matrix" values="0 0 0 0 0.0462847 0 0 0 0 0.0994375 0 0 0 0 0.179167 0 0 0 0.18 0"/>
<feBlend mode="normal" in2="BackgroundImageFix" result="effect1_dropShadow_949_390"/>
<feBlend mode="normal" in="SourceGraphic" in2="effect1_dropShadow_949_390" result="shape"/>
</filter>
<filter id="filter1_d_949_390" x="458" y="2" width="62" height="63" filterUnits="userSpaceOnUse" color-interpolation-filters="sRGB">
<feFlood flood-opacity="0" result="BackgroundImageFix"/>
<feColorMatrix in="SourceAlpha" type="matrix" values="0 0 0 0 0 0 0 0 0 0 0 0 0 0 0 0 0 0 127 0" result="hardAlpha"/>
<feMorphology radius="3" operator="erode" in="SourceAlpha" result="effect1_dropShadow_949_390"/>
<feOffset dx="3" dy="15"/>
<feGaussianBlur stdDeviation="8.5"/>
<feComposite in2="hardAlpha" operator="out"/>
<feColorMatrix type="matrix" values="0 0 0 0 0.0462847 0 0 0 0 0.0994375 0 0 0 0 0.179167 0 0 0 0.18 0"/>
<feBlend mode="normal" in2="BackgroundImageFix" result="effect1_dropShadow_949_390"/>
<feBlend mode="normal" in="SourceGraphic" in2="effect1_dropShadow_949_390" result="shape"/>
</filter>
<filter id="filter2_d_949_390" x="601" y="2" width="62" height="63" filterUnits="userSpaceOnUse" color-interpolation-filters="sRGB">
<feFlood flood-opacity="0" result="BackgroundImageFix"/>
<feColorMatrix in="SourceAlpha" type="matrix" values="0 0 0 0 0 0 0 0 0 0 0 0 0 0 0 0 0 0 127 0" result="hardAlpha"/>
<feMorphology radius="3" operator="erode" in="SourceAlpha" result="effect1_dropShadow_949_390"/>
<feOffset dx="3" dy="15"/>
<feGaussianBlur stdDeviation="8.5"/>
<feComposite in2="hardAlpha" operator="out"/>
<feColorMatrix type="matrix" values="0 0 0 0 0.0462847 0 0 0 0 0.0994375 0 0 0 0 0.179167 0 0 0 0.18 0"/>
<feBlend mode="normal" in2="BackgroundImageFix" result="effect1_dropShadow_949_390"/>
<feBlend mode="normal" in="SourceGraphic" in2="effect1_dropShadow_949_390" result="shape"/>
</filter>
<filter id="filter3_d_949_390" x="790" y="2" width="62" height="63" filterUnits="userSpaceOnUse" color-interpolation-filters="sRGB">
<feFlood flood-opacity="0" result="BackgroundImageFix"/>
<feColorMatrix in="SourceAlpha" type="matrix" values="0 0 0 0 0 0 0 0 0 0 0 0 0 0 0 0 0 0 127 0" result="hardAlpha"/>
<feMorphology radius="3" operator="erode" in="SourceAlpha" result="effect1_dropShadow_949_390"/>
<feOffset dx="3" dy="15"/>
<feGaussianBlur stdDeviation="8.5"/>
<feComposite in2="hardAlpha" operator="out"/>
<feColorMatrix type="matrix" values="0 0 0 0 0.0462847 0 0 0 0 0.0994375 0 0 0 0 0.179167 0 0 0 0.18 0"/>
<feBlend mode="normal" in2="BackgroundImageFix" result="effect1_dropShadow_949_390"/>
<feBlend mode="normal" in="SourceGraphic" in2="effect1_dropShadow_949_390" result="shape"/>
</filter>
<filter id="filter4_d_949_390" x="986" y="2" width="62" height="63" filterUnits="userSpaceOnUse" color-interpolation-filters="sRGB">
<feFlood flood-opacity="0" result="BackgroundImageFix"/>
<feColorMatrix in="SourceAlpha" type="matrix" values="0 0 0 0 0 0 0 0 0 0 0 0 0 0 0 0 0 0 127 0" result="hardAlpha"/>
<feMorphology radius="3" operator="erode" in="SourceAlpha" result="effect1_dropShadow_949_390"/>
<feOffset dx="3" dy="15"/>
<feGaussianBlur stdDeviation="8.5"/>
<feComposite in2="hardAlpha" operator="out"/>
<feColorMatrix type="matrix" values="0 0 0 0 0.0462847 0 0 0 0 0.0994375 0 0 0 0 0.179167 0 0 0 0.18 0"/>
<feBlend mode="normal" in2="BackgroundImageFix" result="effect1_dropShadow_949_390"/>
<feBlend mode="normal" in="SourceGraphic" in2="effect1_dropShadow_949_390" result="shape"/>
</filter>
<linearGradient id="paint0_linear_949_390" x1="637" y1="410.5" x2="637" y2="534.5" gradientUnits="userSpaceOnUse">
<stop stop-color="#FBBC04" stop-opacity="0.36"/>
<stop offset="1" stop-color="#FBBC04" stop-opacity="0"/>
</linearGradient>
<linearGradient id="paint1_linear_949_390" x1="638.25" y1="500" x2="638.25" y2="533.5" gradientUnits="userSpaceOnUse">
<stop stop-color="#EA4335" stop-opacity="0.16"/>
<stop offset="1" stop-color="#EA4335" stop-opacity="0"/>
</linearGradient>
<linearGradient id="paint2_linear_949_390" x1="637" y1="366" x2="637" y2="479" gradientUnits="userSpaceOnUse">
<stop stop-color="#47CF6A" stop-opacity="0.38"/>
<stop offset="1" stop-color="#47CF6A" stop-opacity="0"/>
</linearGradient>
<linearGradient id="paint3_linear_949_390" x1="636.5" y1="329.5" x2="636.5" y2="382" gradientUnits="userSpaceOnUse">
<stop stop-color="#FF6D01" stop-opacity="0.3"/>
<stop offset="1" stop-color="#FF6D01" stop-opacity="0"/>
</linearGradient>
<linearGradient id="paint4_linear_949_390" x1="636.5" y1="289.5" x2="636.5" y2="342" gradientUnits="userSpaceOnUse">
<stop stop-color="#42C9F4" stop-opacity="0.36"/>
<stop offset="1" stop-color="#42C9F4" stop-opacity="0"/>
</linearGradient>
<linearGradient id="paint5_linear_949_390" x1="635.5" y1="143.5" x2="635.5" y2="504.5" gradientUnits="userSpaceOnUse">
<stop stop-color="#B3B3B3" stop-opacity="0.6"/>
<stop offset="1" stop-color="#B3B3B3" stop-opacity="0"/>
</linearGradient>
</defs>
</svg>
