<svg width="127" height="25" viewBox="0 0 127 25" fill="none" xmlns="http://www.w3.org/2000/svg">
<path fill-rule="evenodd" clip-rule="evenodd" d="M19.3884 5.87246C19.3884 9.11604 16.7573 11.7456 13.5115 11.7456C10.2656 11.7456 7.63452 9.11604 7.63452 5.87246C7.63452 2.62953 10.2656 0 13.5115 0C16.7573 0 19.3884 2.62953 19.3884 5.87246ZM5.877 13.2139C2.63125 13.2139 0 15.8426 0 19.0862C0 22.3295 2.63125 24.9588 5.877 24.9588C9.12289 24.9588 11.7543 22.3295 11.7543 19.0862C11.7543 15.8426 9.12289 13.2139 5.877 13.2139ZM21.1459 13.2134C17.9002 13.2134 15.2689 15.8426 15.2689 19.0862C15.2689 22.3295 17.9002 24.9588 21.1459 24.9588C24.3917 24.9588 27.0229 22.3295 27.0229 19.0862C27.0229 15.8426 24.3917 13.2134 21.1459 13.2134Z" fill="url(#paint0_radial_662_365)"/>
<path fill-rule="evenodd" clip-rule="evenodd" d="M47.7026 19.0173C47.7792 19.8886 48.4766 20.9975 49.6848 20.9975H50.3917C50.6657 20.9975 50.8903 20.773 50.8903 20.499V4.96358H50.8872C50.8729 4.70185 50.6566 4.49224 50.3917 4.49224H48.2012C47.9363 4.49224 47.7199 4.70185 47.7052 4.96358H47.7026V6.22592C46.3605 4.57285 44.2445 3.88672 42.1226 3.88672C37.2995 3.88672 33.3896 7.79666 33.3896 12.6201C33.3896 17.4438 37.2995 21.3539 42.1226 21.3539V21.3543C44.2445 21.3543 46.557 20.5311 47.7023 19.0154L47.7026 19.0173ZM42.1312 18.2973C39.0637 18.2973 36.577 15.7557 36.577 12.6201C36.577 9.485 39.0637 6.94334 42.1312 6.94334C45.1986 6.94334 47.6851 9.485 47.6851 12.6201C47.6851 15.7557 45.1986 18.2973 42.1312 18.2973Z" fill="#273347"/>
<path fill-rule="evenodd" clip-rule="evenodd" d="M83.3901 19.0173C83.4667 19.8886 84.1641 20.9975 85.3723 20.9975H86.0792C86.3532 20.9975 86.5775 20.773 86.5775 20.499V4.96358H86.5747C86.5604 4.70185 86.3438 4.49224 86.0792 4.49224H83.8887C83.6238 4.49224 83.4074 4.70185 83.3926 4.96358H83.3901V6.22592C82.0478 4.57285 79.9319 3.88672 77.81 3.88672C72.9869 3.88672 69.0771 7.79666 69.0771 12.6201C69.0771 17.4438 72.9869 21.3539 77.81 21.3539V21.3543C79.9319 21.3543 82.2445 20.5311 83.3898 19.0154L83.3901 19.0173ZM77.8185 18.2973C74.7512 18.2973 72.2643 15.7557 72.2643 12.6201C72.2643 9.485 74.7512 6.94334 77.8185 6.94334C80.8861 6.94334 83.3724 9.485 83.3724 12.6201C83.3724 15.7557 80.8861 18.2973 77.8185 18.2973Z" fill="#273347"/>
<path fill-rule="evenodd" clip-rule="evenodd" d="M123.286 19.0173C123.362 19.8886 124.06 20.9975 125.268 20.9975H125.975C126.249 20.9975 126.473 20.773 126.473 20.499V4.96358H126.47C126.456 4.70185 126.24 4.49224 125.975 4.49224H123.784C123.519 4.49224 123.303 4.70185 123.288 4.96358H123.286V6.22592C121.944 4.57285 119.828 3.88672 117.706 3.88672C112.882 3.88672 108.973 7.79666 108.973 12.6201C108.973 17.4438 112.882 21.3539 117.706 21.3539V21.3543C119.828 21.3543 122.14 20.5311 123.285 19.0154L123.286 19.0173ZM117.714 18.2973C114.647 18.2973 112.16 15.7557 112.16 12.6201C112.16 9.485 114.647 6.94334 117.714 6.94334C120.782 6.94334 123.268 9.485 123.268 12.6201C123.268 15.7557 120.782 18.2973 117.714 18.2973Z" fill="#273347"/>
<path fill-rule="evenodd" clip-rule="evenodd" d="M106.203 19.5513L106.202 11.5123H106.202C106.202 6.98085 103.343 3.92383 98.7849 3.92383C96.6087 3.92383 94.8249 5.18219 94.1949 6.26316C94.0587 5.41793 93.6099 4.52948 92.2184 4.52948H91.5091C91.2348 4.52948 91.0107 4.75408 91.0107 5.02813V19.0559V19.058V20.5649H91.0135C91.0278 20.8262 91.2445 21.0361 91.5094 21.0361H93.6998C93.7334 21.0361 93.7663 21.0321 93.7981 21.0259C93.8125 21.0231 93.8261 21.0174 93.8401 21.0134C93.8564 21.0084 93.8734 21.0045 93.8889 20.9982C93.9084 20.9901 93.926 20.9792 93.9442 20.9691C93.9531 20.9637 93.9623 20.9598 93.971 20.9541C93.9928 20.9401 94.0129 20.9231 94.0322 20.9057C94.0354 20.9026 94.0392 20.9004 94.0424 20.8975C94.0642 20.8764 94.084 20.8532 94.1017 20.8291L94.1018 20.8287C94.1567 20.7534 94.19 20.6627 94.1954 20.5649H94.1982V11.3877C94.1982 8.95398 96.1714 6.98085 98.6052 6.98085C101.039 6.98085 103.012 8.95398 103.012 11.3877L103.014 19.0586L103.015 19.0559C103.015 19.0627 103.016 19.0697 103.016 19.077V20.5649H103.019C103.033 20.8262 103.249 21.0361 103.514 21.0361H105.705C105.739 21.0361 105.771 21.0321 105.803 21.0259C105.816 21.0235 105.828 21.0183 105.841 21.0147C105.859 21.0096 105.877 21.0051 105.894 20.9982C105.912 20.9907 105.928 20.9804 105.945 20.9708C105.956 20.965 105.967 20.9608 105.977 20.9541C105.997 20.9409 106.015 20.9248 106.033 20.9089C106.038 20.9047 106.043 20.9015 106.048 20.8971C106.068 20.8771 106.087 20.8555 106.104 20.8328C106.105 20.8311 106.106 20.8298 106.108 20.8281C106.162 20.7534 106.195 20.6634 106.2 20.5662C106.2 20.5655 106.201 20.5649 106.201 20.5649H106.204V19.5515L106.203 19.5513Z" fill="#273347"/>
<path fill-rule="evenodd" clip-rule="evenodd" d="M56.1237 16.7916C57.586 17.8047 59.1821 18.2967 60.7161 18.2967C62.1774 18.2967 63.6881 17.5391 63.6881 16.2205C63.6881 14.4601 60.3962 14.1862 58.3279 13.4832C56.2593 12.7802 54.4776 11.3271 54.4776 8.97383C54.4776 5.37295 57.686 3.88574 60.6805 3.88574C62.5779 3.88574 64.5355 4.51141 65.8047 5.40769C66.2418 5.73889 65.9756 6.11914 65.9756 6.11914L64.7641 7.84951C64.6279 8.04441 64.3898 8.21279 64.048 8.00185C63.7063 7.79104 62.5075 6.94249 60.6805 6.94249C58.8535 6.94249 57.7529 7.78627 57.7529 8.8321C57.7529 10.0862 59.1833 10.4807 60.8587 10.9081C63.7784 11.6951 66.9633 12.6411 66.9633 16.2205C66.9633 19.3932 63.9958 21.3538 60.7161 21.3538C58.2306 21.3538 56.1145 20.6453 54.3398 19.3429C53.9701 18.9729 54.2283 18.6294 54.2283 18.6294L55.4339 16.9077C55.6792 16.5858 55.9885 16.6981 56.1237 16.7916Z" fill="#273347"/>
<defs>
<radialGradient id="paint0_radial_662_365" cx="0" cy="0" r="1" gradientUnits="userSpaceOnUse" gradientTransform="translate(13.5959 14.9213) rotate(37.3039) scale(16.695 16.216)">
<stop stop-color="#FFB900"/>
<stop offset="0.74709" stop-color="#FA5C86"/>
<stop offset="1" stop-color="#F95353"/>
</radialGradient>
</defs>
</svg>
