<svg width="127" height="21" viewBox="0 0 127 21" fill="none" xmlns="http://www.w3.org/2000/svg">
<path d="M12.5145 10.7977C13.5205 10.8782 14.3656 11.2806 15.0899 12.0451C15.8142 12.8097 16.1763 13.8559 16.1763 15.1838C16.1763 16.7934 15.6532 18.1213 14.5668 19.0871C13.4803 20.0528 11.9512 20.5357 9.89896 20.5357H0V1.4621H9.85872C11.589 1.4621 12.9974 1.94498 14.0436 2.87049C15.0899 3.83624 15.613 5.08367 15.613 6.65302C15.613 7.86021 15.2911 8.78572 14.607 9.51003C13.9229 10.2343 13.2389 10.5965 12.4743 10.677L12.5145 10.7977ZM4.70804 9.34908H8.81249C9.49656 9.34908 10.0599 9.14788 10.5026 8.74548C10.905 8.34308 11.1464 7.86021 11.1464 7.17613C11.1464 6.57254 10.9452 6.1299 10.5428 5.76774C10.1404 5.40559 9.61728 5.24463 9.01369 5.24463H4.70804V9.34908ZM9.05393 16.7532C9.77824 16.7532 10.3818 16.552 10.7842 16.1898C11.1866 15.8277 11.3878 15.3045 11.3878 14.6205C11.3878 13.9766 11.1866 13.4938 10.744 13.1316C10.3416 12.7694 9.77824 12.5682 9.13441 12.5682H4.70804V16.7532H9.05393ZM32.4734 20.5357H27.9263V19.1676C26.7996 20.3747 25.3108 20.9783 23.5402 20.9783C21.8501 20.9783 20.5222 20.415 19.5162 19.3285C18.5103 18.242 17.9871 16.7934 17.9871 15.0229V6.25062H22.494V14.0571C22.494 14.9022 22.7354 15.5862 23.1781 16.1093C23.6207 16.6325 24.2243 16.8739 24.9486 16.8739C25.8741 16.8739 26.5984 16.552 27.1215 15.9081C27.6447 15.2643 27.8861 14.2583 27.8861 12.8902V6.25062H32.4332L32.4734 20.5357ZM46.5171 20.5357H34.4452V19.6907L40.119 9.87219H34.6061V6.25062H46.4366V7.09565L40.7628 16.9141H46.4768V20.5357H46.5171ZM60.5205 20.5357H48.4888V19.6907L54.1224 9.87219H48.6095V6.25062H60.44V7.09565L54.7662 16.9141H60.4802L60.5205 20.5357ZM67.2807 9.63075H75.5299V13.7352H67.2807V20.5759H62.5727V1.4621H76.2542V5.56655H67.2807V9.63075ZM108.889 14.5802H98.4263C98.7079 16.3508 100.036 17.3568 102.008 17.3568C103.577 17.3568 105.146 16.7532 106.313 15.8277L108.044 18.8456C106.434 20.2138 104.382 20.9783 102.008 20.9783C97.2191 20.9783 93.9596 18.0811 93.9596 13.4133C93.9596 11.2001 94.684 9.38931 96.1326 7.98093C97.5812 6.57254 99.392 5.84822 101.525 5.84822C103.577 5.84822 105.307 6.5323 106.716 7.94069C108.124 9.34908 108.848 11.1599 108.889 13.4535V14.5802ZM99.6737 10.1136C99.1103 10.516 98.7079 11.0794 98.5067 11.7635H104.382C104.181 11.0391 103.818 10.4758 103.295 10.0734C102.772 9.71123 102.169 9.51003 101.525 9.51003C100.841 9.51003 100.237 9.71123 99.6737 10.1136ZM92.2293 14.5802H81.767C82.0487 16.3508 83.3766 17.3568 85.3484 17.3568C86.9177 17.3568 88.4871 16.7532 89.654 15.8277L91.3843 18.8456C89.7747 20.2138 87.7225 20.9783 85.3484 20.9783C80.5598 20.9783 77.3004 18.0811 77.3004 13.4133C77.3004 11.2001 78.0247 9.38931 79.4734 7.98093C80.922 6.57254 82.7328 5.84822 84.8655 5.84822C86.9177 5.84822 88.648 6.5323 90.0564 7.94069C91.4648 9.34908 92.1891 11.1599 92.2293 13.4535V14.5802ZM83.0145 10.1136C82.4511 10.516 82.0487 11.0794 81.8475 11.7635H87.7225C87.5213 11.0391 87.1591 10.4758 86.636 10.0734C86.1129 9.71123 85.5093 9.51003 84.8655 9.51003C84.1814 9.51003 83.5778 9.71123 83.0145 10.1136ZM126.473 20.5357H121.926V19.409C120.759 20.4552 119.311 20.9783 117.5 20.9783C115.568 20.9783 113.919 20.254 112.55 18.8456C111.182 17.4373 110.498 15.6265 110.498 13.4133C110.498 11.2001 111.182 9.38931 112.55 7.98093C113.919 6.57254 115.568 5.84822 117.5 5.84822C119.311 5.84822 120.8 6.37134 121.926 7.41757V0.0537109H126.473V20.5357ZM120.92 16.0691C121.604 15.385 121.966 14.4998 121.966 13.4133C121.966 12.3671 121.604 11.4818 120.92 10.7575C120.236 10.0734 119.391 9.71123 118.466 9.71123C117.46 9.71123 116.655 10.0734 116.011 10.7575C115.367 11.4415 115.045 12.3268 115.045 13.4133C115.045 14.4998 115.367 15.4253 116.011 16.1093C116.655 16.7934 117.46 17.1153 118.466 17.1153C119.391 17.1153 120.196 16.7532 120.92 16.0691Z" fill="#EE3322"/>
</svg>
