<svg width="126" height="24" viewBox="0 0 126 24" fill="none" xmlns="http://www.w3.org/2000/svg">
<path d="M110.269 0C109.815 0 109.447 0.367814 109.447 0.821357V6.58198H124.664L117.734 0.000531357L110.269 0Z" fill="#117ACA"/>
<path d="M125.221 8.32474C125.221 7.87013 124.855 7.50391 124.399 7.50391H118.64V22.7213L125.218 15.7884L125.221 8.32474Z" fill="#117ACA"/>
<path d="M116.896 23.2719C117.349 23.2719 117.716 22.9035 117.716 22.4489V16.6904H102.499L109.43 23.2708L116.896 23.2719Z" fill="#117ACA"/>
<path d="M101.942 14.9491C101.942 15.4032 102.31 15.7731 102.765 15.7731H108.523V0.554688L101.943 7.48542L101.942 14.9491Z" fill="#117ACA"/>
<path d="M32.1945 2.77759V9.80517H22.4038V2.77759L18.8379 2.77441V20.4939H22.4038V12.8816H32.1945V20.4939H35.7662V2.77759H32.1945Z" fill="#211E1E"/>
<path d="M79.6328 2.77734V20.4895H95.2773L93.2958 17.3713H83.2088V12.8813H92.9762V9.87796H83.2088V5.82251H93.2789L95.2201 2.77734H79.6328Z" fill="#211E1E"/>
<path d="M5.58281 2.77344C1.87348 2.77344 0 5.02847 0 8.30967V14.9239C0 18.7211 2.41433 20.494 5.56428 20.494L16.7521 20.493L14.6781 17.2541H6.25546C4.46614 17.2541 3.68659 16.6074 3.68659 14.6048V8.60392C3.68659 6.66801 4.34283 5.91281 6.30308 5.91281H14.7659L16.7574 2.77344H5.58281Z" fill="#211E1E"/>
<path d="M63.9847 2.76888C61.8424 2.76888 59.6466 4.05649 59.6466 7.36839V8.21937C59.6466 11.672 61.7593 12.9893 63.873 12.9983H71.2922C72.0628 12.9983 72.6889 13.1264 72.6889 14.4288L72.6878 15.9334C72.6682 17.1035 72.0845 17.3713 71.2658 17.3713H61.5053L59.5059 20.4895H71.4955C74.3866 20.4895 76.3495 19.051 76.3495 15.7286V14.5076C76.3495 11.2952 74.5258 9.77741 71.6982 9.77741H64.6139C63.8286 9.77741 63.2814 9.56308 63.2814 8.39984V7.17468C63.2814 6.18397 63.6566 5.82251 64.5716 5.82251L73.8669 5.81881L75.8097 2.76465L63.9847 2.76888Z" fill="#211E1E"/>
<path d="M46.1261 2.77734L37.7246 20.4926H41.6954L43.3318 16.8341H52.4614L54.0925 20.4926H58.0807L49.6597 2.77734H46.1261ZM47.8879 6.45546L51.1161 13.8186H44.6802L47.8879 6.45546Z" fill="#211E1E"/>
</svg>
