<svg width="127" height="18" viewBox="0 0 127 18" fill="none" xmlns="http://www.w3.org/2000/svg">
<path d="M126.473 3.04914C126.473 3.78389 125.877 4.3805 125.141 4.3805C124.407 4.3805 123.811 3.78477 123.811 3.04914C123.811 2.3135 124.407 1.71777 125.141 1.71777C125.878 1.71777 126.473 2.3135 126.473 3.04914ZM125.142 1.93952C124.529 1.93952 124.033 2.43581 124.033 3.04914C124.033 3.66158 124.529 4.15875 125.142 4.15875C125.755 4.15875 126.252 3.66158 126.252 3.04914C126.252 2.43581 125.755 1.93952 125.142 1.93952ZM125.718 2.76755C125.718 2.96466 125.512 3.14769 125.305 3.14769C125.421 3.18729 125.512 3.292 125.813 3.78829H125.531C125.308 3.4108 125.228 3.18025 124.991 3.18025H124.839V3.78829H124.61V2.35398H125.188C125.622 2.35398 125.718 2.56956 125.718 2.76755ZM124.839 2.98226H125.151C125.35 2.98226 125.475 2.9277 125.475 2.76403C125.475 2.60124 125.349 2.54669 125.151 2.54669H124.839V2.98226ZM122.657 15.4318H108.019V1.83041H122.405V4.26699H111.304V7.24913H118.932V9.69363H111.304V12.8579H122.657V15.4318ZM14.638 12.8579H3.28485V9.69363H10.9122V7.24913H3.28485V4.26699H14.3863V1.83041H0V15.4318H14.638V12.8579ZM42.2947 4.39458H48.8389V1.83041H32.4912V4.39458H38.9976V15.4318H42.2956V4.39458H42.2947ZM88.8168 1.83041H97.4992C102.811 1.83041 105.67 4.14995 105.67 8.61393C105.67 11.3022 104.46 13.099 102.486 14.3098C101.113 15.1766 99.1878 15.4309 96.658 15.4309H88.8168V1.83041ZM96.1907 12.7295C100.372 12.7295 102.398 12.117 102.398 8.5497C102.398 5.63091 100.674 4.3937 97.5643 4.3937H92.1518V12.7295H96.1907V12.7295ZM71.6894 15.4318H68.3914L76.3716 1.83041H79.6204L87.7379 15.4318H84.0237L82.3263 12.7295H73.3376L71.6894 15.4318ZM74.7473 10.1424H80.9553L77.9098 4.63656L74.7473 10.1424ZM54.2471 15.4318H50.9878V1.83041H61.966C65.0229 1.83041 67.0248 3.64134 67.0248 6.27767C67.0248 8.42035 65.9909 9.81154 63.9661 10.3694L67.3874 15.4309H63.7092L60.4155 10.6123H54.248V15.4318H54.2471ZM54.2471 7.99885H61.6105C62.9973 7.99885 63.8025 7.31249 63.8025 6.18879C63.8025 5.15749 62.9841 4.4421 61.5991 4.4421H54.248V7.99885H54.2471Z" fill="black"/>
<path d="M23.7883 4.96907L26.6579 0L29.8292 1.83029L26.9597 6.80112H32.6978V10.4626H26.9597L29.8292 15.4317L26.6579 17.2637L23.7883 12.2929L21.6738 8.63142L23.7883 4.96907Z" fill="#99CC00"/>
<path d="M23.7883 4.96907L20.9197 0L17.7483 1.83029L20.617 6.80112H14.8779V10.4626H20.617L17.7483 15.4317L20.9197 17.2637L23.7883 12.2929L25.9028 8.63142L23.7883 4.96907Z" fill="#6633CC"/>
</svg>
