<svg width="126" height="16" viewBox="0 0 126 16" fill="none" xmlns="http://www.w3.org/2000/svg">
<path d="M107.645 6.33272V15.9811H110.822V9.5572H122.386V15.9811H125.561V6.34945L107.645 6.33272ZM110.468 3.2117H122.685C124.382 2.88322 125.644 1.42488 126 0.0140826H107.154C107.506 1.42532 108.787 2.88322 110.468 3.2117ZM98.0227 15.9872C99.6246 15.3259 100.486 14.1819 100.816 12.8433H86.5662L86.5753 0.0220108L83.3809 0.0308124V15.9872H98.0227ZM59.6261 3.16856H70.9089C72.6099 2.68728 74.0382 1.42532 74.3864 0.0264183H56.4633V9.45592H71.1327V12.765L59.6261 12.7738C57.8229 13.2634 56.2938 14.4426 55.531 16L56.4633 15.9833H74.2846V6.32083H59.6261V3.16856ZM31.7726 3.19894H43.9855C45.6847 2.86914 46.9475 1.41212 47.3015 0H28.4566C28.8084 1.41212 30.0898 2.86914 31.7726 3.19894ZM31.7726 9.50524H43.9855C45.6847 9.17896 46.9475 7.72061 47.3015 6.30762H28.4566C28.8084 7.72105 30.0898 9.17896 31.7726 9.50524ZM31.7726 15.9855H43.9855C45.6847 15.6566 46.9475 14.1986 47.3015 12.7874H28.4566C28.8084 14.1991 30.0898 15.6566 31.7726 15.9855ZM0 0.0387406C0.367141 1.43324 1.60692 2.85857 3.30789 3.21567H8.44877L8.71102 3.3165V15.9498H11.9212V3.3165L12.2129 3.21567H17.3583C19.0782 2.78415 20.2913 1.43324 20.6522 0.0387406V0.00791474H0V0.0387406Z" fill="#E82127"/>
</svg>
