<svg width="145" height="26" viewBox="0 0 145 26" fill="none" xmlns="http://www.w3.org/2000/svg">
<path d="M31.715 13.9542C30.1663 13.9764 29.4848 15.2091 28.5813 15.1823C28.0202 15.17 27.5747 14.4821 27.5747 14.4821C27.5747 14.4821 27.2557 14.8095 27.5607 15.1653C27.8143 15.4761 28.6856 16.1669 30.088 15.1224C30.9471 14.4824 31.5663 14.7876 33.0759 16.3577C34.5823 17.9315 35.5354 17.6742 35.5354 17.6742C35.867 17.6307 36.0615 17.3394 36.3083 17.3944C36.5496 17.4513 36.5893 18.0241 36.8613 18.0878C37.1324 18.1489 37.3322 17.6289 37.6193 17.6973C37.9064 17.7662 37.8913 18.3268 38.1655 18.3913C38.4851 18.4655 38.6239 17.9289 38.9306 18.0031C39.197 18.0674 39.2308 18.6425 39.4797 18.6986C39.7794 18.7684 39.9223 18.233 40.2371 18.3098C40.5225 18.3755 40.5027 18.9402 40.7837 19.0033C41.0927 19.0742 41.2543 18.5423 41.5466 18.6118C41.6749 18.646 41.6436 18.6875 41.7806 18.8014C41.9162 18.9136 42.4478 19.1648 42.6377 18.9107C42.7603 18.712 42.4159 18.559 42.2772 18.49C42.1344 18.4229 36.6872 16.915 36.183 16.6956C35.5503 16.4217 35.047 15.6102 35.1688 15.2766C35.1747 15.2614 35.1826 15.2524 35.1905 15.243C35.085 15.0584 34.9986 14.8498 34.9045 14.648C34.8493 14.646 34.7897 14.6422 34.7243 14.6357C34.188 14.5805 33.6765 13.8836 31.715 13.9542Z" fill="#DB0026"/>
<path d="M44.9841 18.5437C44.8062 18.312 44.5194 18.2194 44.321 18.13C44.1271 18.0386 44.1551 17.8493 43.993 17.7944C43.8271 17.741 43.5367 18.0798 43.3109 18.0091C43.0857 17.9352 43.1024 17.5143 42.9143 17.4521C42.7215 17.3913 42.3864 17.7071 42.2115 17.651C42.035 17.5999 42.0006 17.1573 41.8306 17.1013C41.6623 17.0498 41.3045 17.3644 41.1307 17.3107C40.9554 17.2517 40.944 16.8208 40.7495 16.7569C40.5558 16.6976 40.2158 17.0192 40.047 16.961C39.8723 16.907 39.8554 16.4776 39.6696 16.4151C39.4818 16.3552 39.1379 16.671 38.965 16.6143C38.7865 16.5568 38.7381 16.1151 38.5754 16.0617C38.4094 16.0108 38.0852 16.2714 37.822 16.2565C36.0749 16.0935 35.3596 15.0393 35.1907 15.242C35.1829 15.2514 35.1747 15.2604 35.1691 15.2756C35.0473 15.6092 35.5506 16.4207 36.1833 16.6946C36.6878 16.914 42.1346 18.4219 42.2775 18.489C42.4165 18.558 42.7606 18.711 42.6379 18.9097C42.4484 19.1641 41.9164 18.9126 41.7809 18.8004C41.6439 18.6862 41.6755 18.645 41.5469 18.6108C41.2545 18.5413 41.0927 19.0732 40.784 19.0023C40.5029 18.9392 40.5225 18.3745 40.2374 18.3088C39.9225 18.232 39.78 18.7674 39.48 18.6976C39.2311 18.6418 39.1972 18.0664 38.9308 18.0021C38.6241 17.9279 38.4854 18.4645 38.1658 18.3903C37.8915 18.3258 37.9067 17.7649 37.6196 17.6963C37.3327 17.6282 37.1326 18.1482 36.8616 18.0868C36.5896 18.0234 36.5502 17.4506 36.3086 17.3934C36.0615 17.3384 35.867 17.6297 35.5357 17.6732C35.5357 17.6732 34.5826 17.9305 33.0762 16.3567C31.5666 14.7866 30.9476 14.4811 30.0883 15.1214C28.6856 16.1659 27.8145 15.4754 27.561 15.1643C27.256 14.8085 27.575 14.4811 27.575 14.4811C27.575 14.4811 28.0205 15.1687 28.5816 15.1813C29.4851 15.2081 30.1666 13.9754 31.7153 13.9532C33.6768 13.8826 34.1882 14.5795 34.7245 14.6347C34.7903 14.6412 34.8496 14.6449 34.9048 14.647C35.2676 14.6598 35.4326 14.5769 35.7305 14.404H35.7285C36.0066 14.3047 36.2485 14.8424 36.5397 14.7338C36.8478 14.6178 36.6223 14.0759 36.9542 13.9512C37.2644 13.8405 37.4668 14.3844 37.7636 14.2737C38.0756 14.1598 37.8769 13.6033 38.1763 13.4946C38.4854 13.3834 38.6653 13.9331 38.9858 13.816C39.3074 13.7015 39.0997 13.1505 39.3924 13.0395C39.6944 12.9291 39.9129 13.4704 40.2097 13.365C40.4907 13.2645 40.33 12.6881 40.6227 12.583C40.9262 12.4743 41.1228 13.0171 41.4462 12.8982C41.7123 12.8053 41.565 12.2287 41.8411 12.1241C42.1165 12.021 42.373 12.5558 42.6601 12.4486C42.9292 12.3493 42.7717 11.7759 43.058 11.6684C43.3612 11.5595 43.5952 12.094 43.8817 11.9932C44.1653 11.8916 43.9498 11.4289 44.3202 11.2449C44.3202 11.2449 44.8322 11.0766 44.8001 10.701C44.796 10.6376 44.69 9.834 43.8464 9.6637C43.0355 9.50041 36.6285 11.2726 36.5458 11.1707C35.9558 10.0058 35.2004 10.3294 35.0853 10.3551C34.9682 10.3849 34.2525 10.6893 33.4603 10.3849C31.9046 9.68093 30.6628 11.4715 29.8105 11.2361C29.0256 11.0156 28.4259 11.1429 28.0967 11.2548C27.7955 11.3588 27.3074 11.7511 26.2722 11.3953C18.273 8.66383 12.0213 11.0515 12.0213 11.0515C8.49623 12.2293 8.04522 11.0515 8.04522 11.0515C8.04522 11.0515 6.88528 9.47559 15.0531 7.59619C26.793 4.89978 27.1468 0.437304 27.008 0.15484C26.8152 -0.254398 26.7416 0.227866 26.3552 0.671572C26.0309 1.04021 25.6538 0.857934 25.6538 0.857934C25.2843 0.680627 25.0483 1.10272 25.0483 1.10272C25.0483 1.10272 24.573 1.83999 24.153 1.42053C23.749 1.01713 23.2127 1.92791 23.0126 1.96442C22.7728 2.00678 22.6557 1.88965 22.3338 1.74184C21.8518 1.5289 21.3339 2.40725 21.0693 2.46947C20.6629 2.56207 20.3784 1.9913 20.0294 2.23199C18.9863 2.95232 18.8221 3.0528 18.5411 2.77238C18.3334 2.56032 18.303 2.33043 17.6061 2.9976C17.0131 3.56603 16.7289 3.67265 16.4911 3.31102C16.246 2.94706 16.3088 2.45019 15.29 3.42787C14.8036 3.89523 14.5545 3.90429 14.2761 3.69426C14.0661 3.53624 14.0675 2.78436 13.3367 3.46555C12.6742 4.07838 12.1931 4.34712 12.0056 3.80263C11.7985 3.19097 11.0174 3.91539 10.8372 4.08568C10.6496 4.25598 10.2486 4.70728 9.96727 4.24167C9.68597 3.77342 9.01267 4.47214 8.6122 4.91584C8.30344 5.26023 8.0534 4.99442 7.72771 4.77593C7.35732 4.52179 6.24849 6.06995 6.14772 6.16254C6.04606 6.25047 5.96924 6.16254 5.71482 5.94697C5.32457 5.61602 4.27124 7.4554 4.10094 7.57516C4.10094 7.57516 4.02909 7.73377 3.74166 7.45948C3.33329 7.07099 1.16384 9.9263 0.345363 13.157C-0.70183 17.2987 0.966376 20.4748 0.966376 20.4748C0.966376 20.4748 1.46763 20.49 1.68115 20.1514L2.00627 19.4191C2.26916 18.8089 2.70089 19.0008 2.70089 19.0008L1.67823 22.0457C1.5167 22.4468 1.61426 23.0137 1.9715 23.5503C2.30859 24.0893 2.54052 24.4535 2.81072 24.7038C3.64088 25.4858 3.55617 24.561 3.57749 24.4453C3.67476 23.9505 4.22304 24.3305 4.65361 24.5677C5.43469 25.0062 5.34764 24.0381 5.51911 23.7221C5.63829 23.4963 6.02211 23.4858 6.43894 23.8351C6.76347 24.1068 7.08625 23.1875 7.08625 23.1875C7.4911 21.2296 6.53972 21.0032 6.02533 20.9746L4.98368 20.9266C4.98368 20.9266 5.05203 20.6287 5.1604 20.3497L5.20714 20.152C6.34313 17.3215 4.44504 16.7753 3.8769 16.8202C3.25034 16.876 3.29415 16.477 3.29415 16.477C3.29415 16.477 6.7255 15.8014 6.08579 19.4401C6.08579 19.4401 5.95931 20.0734 5.88336 20.4041L6.82627 20.5139C7.63774 20.6153 7.78175 21.5754 7.78175 21.5754C7.78175 21.5754 10.7659 22.3638 12.4586 22.0486C12.4586 22.0486 13.2152 21.8681 13.4252 21.3975C13.4252 21.3975 14.5215 18.815 17.7215 18.7058C17.7215 18.7058 17.8342 19.0402 17.323 19.214C16.7099 19.4209 14.6672 19.583 14.2428 21.9291V21.9385C14.1966 22.3235 14.2998 23.1434 15.1352 23.5232C15.8467 23.8442 16.0974 25.14 16.2449 25.4896C16.6591 26.4828 17.2795 25.5334 17.2795 25.5334C17.2795 25.5334 17.6724 24.7319 18.0101 25.1762C18.58 25.926 18.8446 25.5483 18.974 25.071C19.1157 24.5555 19.3222 24.3308 19.9187 24.9571C20.1737 25.2293 20.674 25.0193 20.7237 24.5537C20.8292 23.5284 21.5217 24.3434 21.621 24.3831C21.7393 24.4278 22.4644 24.2654 22.0586 23.1093C22.0586 23.1093 21.5106 22.0077 19.0397 21.5325C18.4599 21.4226 18.5519 21.0029 18.5519 21.0029L19.0961 21.0794C19.2588 21.1057 20.6957 21.2652 20.8484 21.2894C26.8763 21.8845 31.4498 19.8397 31.5873 19.694C36.2698 20.591 42.6365 20.2852 43.8318 19.8546C45.0326 19.4325 45.1223 18.7309 44.9841 18.5437ZM35.3158 11.0719C35.4139 10.9142 35.5062 10.8248 35.5912 10.7819C35.9546 10.5754 36.1865 11.2221 36.1424 11.2457C36.1404 11.2469 36.1322 11.2495 36.1284 11.251C36.1278 11.2519 36.1278 11.2545 36.1272 11.2554C36.07 11.2828 35.3689 11.4818 35.3 11.4362C35.1615 11.3401 35.3158 11.0719 35.3158 11.0719ZM32.6538 11.2764C32.6538 11.2764 32.7444 11.1622 32.9193 11.1044C33.0923 11.0416 33.3534 11.0307 33.6993 11.2536C34.0968 11.5069 34.0869 11.704 34.0869 11.704C34.074 11.7105 34.0565 11.7169 34.0363 11.7239C33.748 11.8352 32.5647 11.9807 32.5647 11.9807C32.3348 11.5568 32.6538 11.2764 32.6538 11.2764ZM10.5857 5.55117C10.7846 5.70423 10.5938 6.58668 10.4522 6.45698L9.43009 5.9163C9.43038 5.9163 10.3821 5.4022 10.5857 5.55117ZM8.92387 6.11435C9.12484 6.2642 8.93672 7.14869 8.79389 7.01724L7.77532 6.47568C7.7759 6.47568 8.72203 5.96128 8.92387 6.11435ZM8.34901 7.8401C8.55115 7.99111 8.36157 8.87707 8.21757 8.74883L7.19695 8.20055C7.19725 8.20055 8.14629 7.69025 8.34901 7.8401ZM7.3766 10.1568L6.35482 9.61404C6.35482 9.61404 7.30532 9.09936 7.50688 9.25067C7.71076 9.40168 7.51593 10.2871 7.3766 10.1568ZM7.1841 11.9044L6.16553 11.3617C6.16553 11.3617 7.1137 10.8494 7.31584 10.9974C7.51768 11.1467 7.32957 12.0286 7.1841 11.9044ZM7.1657 6.72952C7.36813 6.88024 7.17709 7.76094 7.03454 7.63562L6.01218 7.09114C6.01247 7.09085 6.96415 6.57704 7.1657 6.72952ZM6.27945 8.07466C6.47955 8.2248 6.28997 9.10578 6.14888 8.98076L5.12857 8.43803C5.12827 8.43803 6.07732 7.92189 6.27945 8.07466ZM4.45819 10.1854C4.45819 10.1854 5.41015 9.66838 5.60966 9.82173C5.81267 9.97129 5.62135 10.8537 5.4788 10.7261L4.45819 10.1854ZM5.24015 12.3958L4.22187 11.851C4.22187 11.851 5.1718 11.3401 5.37218 11.4908C5.5749 11.6407 5.38503 12.5225 5.24015 12.3958ZM4.51398 8.68749C4.71495 8.83442 4.52508 9.71862 4.38224 9.59126L3.36543 9.04649C3.36543 9.04649 4.31009 8.5356 4.51398 8.68749ZM3.5959 10.4673C3.79803 10.6171 3.60846 11.5048 3.4627 11.374L2.44471 10.8321C2.4453 10.8321 3.39464 10.3221 3.5959 10.4673ZM2.25485 12.5757C2.25485 12.5757 3.20418 12.0654 3.40544 12.2158C3.60904 12.3648 3.41538 13.2496 3.27517 13.1216L2.25485 12.5757ZM4.07495 14.5702L3.0558 14.0266C3.0558 14.0266 4.00572 13.5122 4.20756 13.6629C4.40941 13.8145 4.21662 14.6964 4.07495 14.5702ZM5.53722 15.7547L4.51748 15.2134C4.51748 15.2134 5.46828 14.699 5.66983 14.8483C5.86993 14.9966 5.67684 15.8852 5.53722 15.7547ZM5.99436 13.9053L4.97434 13.36C4.97434 13.36 5.92455 12.8497 6.1261 12.9957C6.32794 13.1473 6.13691 14.0298 5.99436 13.9053ZM7.3506 16.5524L6.33291 16.0102C6.33291 16.0102 7.27758 15.4967 7.48146 15.6475C7.68272 15.7988 7.49578 16.6771 7.3506 16.5524ZM7.84046 14.8491L6.8216 14.307C6.8216 14.307 7.76977 13.7964 7.97103 13.9471C8.17258 14.0955 7.98476 14.9794 7.84046 14.8491ZM8.17784 13.2393L7.15898 12.6957C7.15898 12.6957 8.10744 12.1854 8.31104 12.3353C8.51288 12.4872 8.32009 13.3664 8.17784 13.2393ZM9.61149 16.3467L8.59233 15.8008C8.59233 15.8008 9.5408 15.2914 9.74439 15.4392C9.94857 15.5896 9.7552 16.4759 9.61149 16.3467ZM10.0529 14.6511L9.03429 14.1095C9.03429 14.1095 9.98421 13.5937 10.1863 13.7461C10.385 13.8919 10.1936 14.7779 10.0529 14.6511ZM10.4224 12.8544L9.40322 12.3116C9.40322 12.3116 10.3526 11.8025 10.5559 11.9503C10.7562 12.101 10.5649 12.9823 10.4224 12.8544ZM11.8543 16.0289L10.8319 15.4862C10.8319 15.4862 11.7821 14.9721 11.9857 15.122C12.1861 15.2759 11.993 16.1592 11.8543 16.0289ZM12.1966 14.2147L11.1777 13.6693C11.1777 13.6693 12.1283 13.1573 12.3292 13.3059C12.5311 13.4584 12.3397 14.3374 12.1966 14.2147ZM12.5521 12.3522L11.5329 11.8086C11.5329 11.8086 12.4814 11.2974 12.6844 11.4461C12.8854 11.6004 12.6949 12.4802 12.5521 12.3522ZM14.0862 15.3118L13.0659 14.7735C13.0659 14.7735 14.0161 14.26 14.2153 14.4092C14.4198 14.5594 14.2288 15.4403 14.0862 15.3118ZM14.3652 13.5247L13.3434 12.9846C13.3434 12.9846 14.293 12.4717 14.4934 12.6198C14.7002 12.7711 14.5063 13.6576 14.3652 13.5247ZM14.7192 11.7733L13.6969 11.2338C13.6969 11.2338 14.6485 10.7176 14.8489 10.8666C15.0502 11.0188 14.8597 11.9044 14.7192 11.7733ZM16.2805 14.9341L15.2608 14.3905C15.2608 14.3905 16.2084 13.8767 16.4123 14.0269C16.6161 14.1788 16.4236 15.0594 16.2805 14.9341ZM16.5589 13.2656L15.5383 12.7244C15.5383 12.7244 16.4897 12.2071 16.6898 12.361C16.8913 12.5073 16.7006 13.3947 16.5589 13.2656ZM16.8948 11.4861L15.8733 10.9443C15.8733 10.9443 16.8235 10.4261 17.0271 10.5803C17.2284 10.7313 17.04 11.612 16.8948 11.4861ZM18.3077 14.9654L17.2903 14.423C17.2903 14.423 18.2388 13.9071 18.4403 14.0613C18.6425 14.2094 18.4508 15.0922 18.3077 14.9654ZM18.6445 13.1742L17.6224 12.6326C17.6224 12.6326 18.5741 12.1159 18.7762 12.2693C18.976 12.4209 18.785 13.3016 18.6445 13.1742ZM19.0263 11.3909L18.0057 10.8494C18.0057 10.8494 18.9562 10.3326 19.1583 10.4866C19.3619 10.6358 19.1688 11.52 19.0263 11.3909ZM20.4331 14.9654L19.4125 14.42C19.4125 14.42 20.3612 13.9074 20.563 14.0613C20.7646 14.2094 20.5768 15.0922 20.4331 14.9654ZM20.7593 13.2732L19.7414 12.729C19.7414 12.729 20.6889 12.2205 20.8908 12.3657C21.0932 12.5176 20.9028 13.4026 20.7593 13.2732ZM21.1455 11.5419L20.1284 10.9998C20.1284 10.9998 21.0769 10.488 21.2796 10.6358C21.4785 10.7863 21.2881 11.6696 21.1455 11.5419ZM22.4305 15.2207L21.4101 14.6727C21.4101 14.6727 22.3607 14.1641 22.5622 14.3157C22.7658 14.4627 22.5754 15.3472 22.4305 15.2207ZM22.7912 13.5802L21.7715 13.0393C21.7715 13.0393 22.7226 12.5263 22.923 12.6765C23.1268 12.8295 22.93 13.7102 22.7912 13.5802ZM23.1806 11.9044L22.1582 11.364C22.1582 11.364 23.1093 10.8505 23.3123 10.9972C23.5133 11.1467 23.3196 12.0286 23.1806 11.9044ZM24.7705 13.9343L23.7519 13.3971C23.7519 13.3971 24.7004 12.8821 24.904 13.0299C25.1041 13.1815 24.9134 14.064 24.7705 13.9343Z" fill="#004526"/>
<path d="M75.466 8.57168C75.2534 8.00616 74.8488 7.76255 74.1074 7.75145C74.04 7.7494 70.6115 7.75466 70.6115 7.75466L65.5371 21.5721C65.5371 21.5721 68.0054 21.5721 68.0071 21.5721C68.2201 21.5872 68.4181 21.5537 68.596 21.4736C69.0768 21.2545 69.3123 20.6975 69.3809 20.5073C69.3809 20.5123 70.0711 18.5824 70.1188 18.4559C70.4719 18.4559 74.9522 18.4541 75.2242 18.4541C75.3305 18.7798 76.2611 21.5653 76.2611 21.5653H79.604L77.4836 14.8408L75.466 8.57168ZM70.9965 15.619C71.3678 14.603 72.2914 12.0334 72.6858 10.9926C73.0267 12.0422 74.4276 15.5845 74.4363 15.6184C73.9295 15.6184 71.196 15.619 70.9965 15.619Z" fill="black"/>
<path d="M99.5217 7.64453H99.5199C95.5657 7.65008 92.6973 10.6184 92.6973 14.6994C92.6973 18.698 95.6291 21.7149 99.5217 21.7149C103.413 21.7149 106.464 18.6355 106.464 14.6994C106.464 10.7429 103.413 7.64453 99.5217 7.64453ZM99.621 18.6326C97.6055 18.6326 96.0255 16.8893 96.0255 14.6623C96.0255 12.4555 97.571 10.7934 99.6187 10.7934C101.651 10.7934 103.125 12.4193 103.125 14.6623C103.125 16.9273 101.618 18.6326 99.621 18.6326Z" fill="black"/>
<path d="M115.409 13.4595L115.279 13.4216C115.283 13.4233 113.993 13.0313 113.99 13.0275L113.797 12.9592C112.744 12.5785 111.996 12.2596 111.996 11.6464C111.996 11.631 111.996 11.6158 111.996 11.6012C112.101 10.5841 113.991 10.5727 114.009 10.5727C115.051 10.5727 115.852 10.7322 116.866 11.1396L116.888 11.1475L116.931 11.1601C117.165 11.2074 117.37 11.2141 117.536 11.1776L117.817 11.0713C118.22 10.8493 118.622 9.67474 118.775 9.17991L118.825 9.0213L118.701 8.90738C118.652 8.86065 118.357 8.61732 117.282 8.21597C116.189 7.80703 114.64 7.74276 114.64 7.74276L113.877 7.73926C109.888 7.73926 108.365 10.2014 108.316 11.8547C108.283 13.5022 109.221 14.3496 110.638 15.1198C111.231 15.4485 112.314 15.7505 113.1 15.9702C113.096 15.9667 113.912 16.2082 113.912 16.2082C115.398 16.6753 115.966 17.1935 115.861 17.9977C115.814 18.2635 115.311 18.7034 114.17 18.7034C113.302 18.7034 112.518 18.5705 111.701 18.2851C111.309 18.1294 110.903 17.9278 110.474 17.6734L110.454 17.6606L110.41 17.6416C110.173 17.5534 109.961 17.5163 109.778 17.5318L109.465 17.5992C109.007 17.7707 108.37 18.9333 108.115 19.4249L108.015 19.6191L108.188 19.7564C108.219 19.7772 108.927 20.3406 109.53 20.6932C110.239 21.0861 111.034 21.3703 111.974 21.5605C112.354 21.6297 112.955 21.7173 113.898 21.7173C116.989 21.7173 119.235 20.1513 119.493 17.8192C119.605 15.7041 118.307 14.3239 115.409 13.4595Z" fill="black"/>
<path d="M120.827 8.14196C120.649 8.30612 120.555 8.52491 120.555 8.77173L120.553 10.9578C120.553 10.9578 124.282 10.9546 124.77 10.9546C124.77 11.469 124.77 21.5773 124.77 21.5773L128.225 21.5744C128.225 21.5744 128.225 11.4676 128.225 10.9546C128.686 10.954 130.94 10.954 130.94 10.954C131.068 10.954 131.741 10.9394 132.13 10.5828C132.306 10.4151 132.402 10.201 132.402 9.95066V7.77157H122.017C121.889 7.77011 121.214 7.78354 120.827 8.14196Z" fill="black"/>
<path d="M62.7546 18.4495C62.7546 18.4495 59.8537 18.4495 58.876 18.4495C58.876 17.9401 58.8652 9.03149 58.8652 9.03149C58.8652 8.64037 58.7487 8.32986 58.5129 8.11283C58.1373 7.76026 57.5779 7.76201 57.3691 7.7661L55.3311 7.76172L55.3363 21.5709H63.9823L63.989 19.3764C63.989 19.0956 63.8687 18.4495 62.7546 18.4495Z" fill="black"/>
<path d="M90.9131 18.6433V18.6413L90.6385 18.5206C90.3642 18.4458 90.0417 18.4701 89.6792 18.5913C89.0176 18.7692 88.3125 18.827 87.4657 18.7712C85.2986 18.5589 83.9969 17.0843 83.8988 14.7265C83.9967 12.392 85.2986 10.9174 87.4759 10.7071C88.314 10.6513 89.0191 10.7071 89.6845 10.8891C90.0417 11.0083 90.3642 11.0319 90.6373 10.9548C90.6382 10.9542 90.9131 10.8327 90.9131 10.8327C91.2998 10.5944 91.5768 9.38009 91.7076 8.6808L91.7374 8.51663L91.5969 8.41527C91.5613 8.38957 91.4514 8.31275 90.1992 7.97478C89.0588 7.66749 88.044 7.62951 87.5437 7.63302L87.4885 7.6336C84.627 7.6336 80.3179 9.52264 80.1943 14.7233V14.7531C80.3179 19.9557 84.627 21.8439 87.4905 21.8439L87.5437 21.8459C88.044 21.848 89.0571 21.8068 90.1992 21.5001C91.4517 21.165 91.5613 21.0873 91.5981 21.061L91.738 20.962L91.7082 20.7973C91.577 20.0942 91.3001 18.8834 90.9131 18.6433Z" fill="black"/>
<path d="M144.068 18.4452L137.98 18.4478C137.98 18.4478 137.99 16.4618 137.99 16.1329C138.49 16.1329 143.016 16.1329 143.016 16.1329L143.008 12.9378C143.008 12.9378 138.496 12.9431 137.999 12.9431C137.998 12.5654 137.999 11.3374 137.999 10.9571C138.497 10.9571 142.613 10.9515 142.613 10.9515C142.74 10.9536 143.428 10.9542 143.801 10.582C144.062 10.3206 144.074 9.84533 144.074 9.59763V7.77344H134.496L134.498 21.5759L142.638 21.5648C143.172 21.5532 144.079 21.2388 144.079 20.1776L144.068 18.4452Z" fill="black"/>
</svg>
