<svg width="127" height="33" viewBox="0 0 127 33" fill="none" xmlns="http://www.w3.org/2000/svg">
<path fill-rule="evenodd" clip-rule="evenodd" d="M51.5729 21.4744V18.4609C50.269 18.6782 49.5446 18.8666 48.8203 19.1708C47.8061 19.562 47.5164 20.04 47.5164 21.2859C47.5164 22.4159 47.951 22.8362 48.8203 22.8362C49.6896 22.8362 50.7036 22.3435 51.5729 21.4744ZM45.6331 14.6798L45.1985 14.8537L44.1844 12.072C45.4883 11.3911 46.0677 11.1884 47.2267 10.9132C48.3857 10.6378 49.5445 10.4929 50.8484 10.4929C54.6152 10.4929 55.9191 11.7968 55.9191 15.6504V23.0535C55.9191 23.8356 56.3537 24.2268 57.2228 24.2268H57.3677V25.777H53.0216C52.1523 25.777 51.7178 25.3279 51.7178 24.3862V23.9226C50.8484 24.7195 50.5587 24.8934 49.8345 25.2265C49.11 25.6901 48.096 25.9219 47.0818 25.9219C44.4741 25.9219 43.315 24.5601 43.315 21.706C43.315 19.4315 44.1844 17.9828 46.0677 17.2294C46.6473 16.9833 47.2267 16.7949 47.8061 16.65C48.9651 16.4037 49.5446 16.2879 51.5729 15.9546V15.5779C51.5729 14.2452 51.1381 13.7671 49.6896 13.7671C49.3997 13.7671 48.8203 13.825 48.3857 13.8829C47.5164 14.0422 46.7921 14.2162 45.6331 14.6798ZM41.0007 7.42076C41.0007 6.08781 39.9865 5.30544 38.393 5.30544C36.6545 5.30544 35.7854 6.08781 35.7854 7.42076C35.7854 8.78254 36.6545 9.57923 38.393 9.57923C39.9865 9.57923 41.0007 8.78254 41.0007 7.42076ZM40.8559 25.776V12.187C40.8559 11.2452 40.2765 10.6947 39.4071 10.6947H34.9161V12.3319H35.2058C36.0751 12.3319 36.3648 12.694 36.3648 13.5197V25.776H40.8559ZM11.4449 17.6687H6.80893L9.27185 9.65741L11.4449 17.6687ZM4.63593 25.7672L6.08466 20.885H12.0243L13.473 25.7672H18.3988L13.1833 7.23807C12.8936 6.02114 12.3142 5.62995 11.0103 5.62995H3.7666V7.29597H4.34622C5.21534 7.29597 5.64989 7.57114 5.64989 8.23772C5.64989 8.65775 5.64989 8.93314 5.21533 9.93258L0 25.7672H4.63593ZM24.6273 25.7672V7.10774C24.6273 6.13693 24.0477 5.62995 23.0337 5.62995H18.5427V7.29597H18.8324C19.7015 7.29597 20.1363 7.6581 20.1363 8.44048V25.7672H24.6273ZM32.7406 7.10774V25.7672H28.2496V8.44048C28.2496 7.6581 27.815 7.29597 26.9457 7.29597H26.656V5.62995H31.147C32.161 5.62995 32.7406 6.13693 32.7406 7.10774ZM64.1769 25.7641V15.5362C65.1909 14.5944 65.9154 14.2323 66.9296 14.2323C67.9435 14.2323 68.2332 14.6668 68.2332 16.2025V25.7641H72.7243V15.478C72.7243 13.3629 72.4346 12.4502 71.8552 11.6536C71.1307 10.8712 70.2616 10.509 68.9577 10.509C67.2193 10.509 65.9154 11.1464 63.8872 12.8993V12.0881C63.8872 11.1464 63.4525 10.6827 62.5833 10.6827H58.2371V12.3199H58.382C59.2513 12.3199 59.6859 12.6821 59.6859 13.5078V25.7641H64.1769ZM79.9725 22.88H86.6366V25.763H75.0468V22.6337L81.566 13.5357H78.089C77.2198 13.5357 76.7851 13.8689 76.7851 14.6947V14.9989H75.1916V12.2608C75.1916 11.1453 75.6262 10.6817 76.7851 10.6817H86.3467V13.782L79.9725 22.88Z" fill="#003781"/>
<path fill-rule="evenodd" clip-rule="evenodd" d="M112.276 24.9326V7.86654C112.276 6.49025 111.697 6.04113 110.393 6.04113H106.481V7.92455H106.916C107.64 7.92455 107.93 8.19975 107.93 9.04V24.9326H112.276ZM114.594 24.9326H118.795V12.0534C118.795 10.7495 118.216 10.228 116.912 10.228H114.594V24.9326ZM105.612 24.9326V10.228H103.294C101.99 10.228 101.411 10.7495 101.411 12.0534V24.9326H105.612ZM123.721 16.3561C123.721 24.3386 117.926 30.1624 110.103 30.1624C102.28 30.1624 96.4849 24.3386 96.4849 16.3561C96.4849 8.37366 102.28 2.54975 110.103 2.54975C117.926 2.54975 123.721 8.37366 123.721 16.3561ZM126.474 16.3561C126.474 7.01186 119.52 -2.28882e-05 110.103 -2.28882e-05C100.831 -2.28882e-05 93.7324 7.01186 93.7324 16.3561C93.7324 25.7294 100.831 32.7412 110.103 32.7412C119.52 32.7412 126.474 25.7294 126.474 16.3561Z" fill="#003781"/>
</svg>
