<svg width="96" height="32" viewBox="0 0 96 32" fill="none" xmlns="http://www.w3.org/2000/svg">
<path d="M40.9368 16.572C40.9368 21.1024 37.3926 24.4408 33.0431 24.4408C28.6936 24.4408 25.1494 21.1024 25.1494 16.572C25.1494 12.0096 28.6936 8.70312 33.0431 8.70312C37.3926 8.70312 40.9368 12.0096 40.9368 16.572ZM37.4813 16.572C37.4813 13.7409 35.4271 11.8038 33.0431 11.8038C30.659 11.8038 28.6049 13.7409 28.6049 16.572C28.6049 19.3747 30.659 21.3401 33.0431 21.3401C35.4271 21.3401 37.4813 19.3711 37.4813 16.572Z" fill="#EA4335"/>
<path d="M57.966 16.572C57.966 21.1024 54.4219 24.4408 50.0724 24.4408C45.7229 24.4408 42.1787 21.1024 42.1787 16.572C42.1787 12.0131 45.7229 8.70312 50.0724 8.70312C54.4219 8.70312 57.966 12.0096 57.966 16.572ZM54.5106 16.572C54.5106 13.7409 52.4564 11.8038 50.0724 11.8038C47.6883 11.8038 45.6342 13.7409 45.6342 16.572C45.6342 19.3747 47.6883 21.3401 50.0724 21.3401C52.4564 21.3401 54.5106 19.3711 54.5106 16.572Z" fill="#FBBC05"/>
<path d="M74.2861 9.17852V23.3055C74.2861 29.1167 70.859 31.4901 66.8075 31.4901C62.9937 31.4901 60.6983 28.9393 59.8327 26.8532L62.8411 25.6009C63.3768 26.8816 64.6895 28.393 66.8039 28.393C69.3973 28.393 71.0044 26.7929 71.0044 23.7809V22.6492H70.8838C70.1104 23.6035 68.6204 24.4372 66.7401 24.4372C62.8057 24.4372 59.2012 21.0102 59.2012 16.6003C59.2012 12.1586 62.8057 8.70312 66.7401 8.70312C68.6168 8.70312 70.1069 9.53684 70.8838 10.4628H71.0044V9.18207H74.2861V9.17852ZM71.2492 16.6003C71.2492 13.8296 69.4009 11.8038 67.0487 11.8038C64.6647 11.8038 62.6673 13.8296 62.6673 16.6003C62.6673 19.3427 64.6647 21.3401 67.0487 21.3401C69.4009 21.3401 71.2492 19.3427 71.2492 16.6003Z" fill="#4285F4"/>
<path d="M79.6955 0.897461V23.9576H76.3252V0.897461H79.6955Z" fill="#34A853"/>
<path d="M92.8291 19.1614L95.5112 20.9495C94.6455 22.2302 92.5595 24.4369 88.955 24.4369C84.4849 24.4369 81.1465 20.9814 81.1465 16.5681C81.1465 11.8886 84.5133 8.69922 88.5683 8.69922C92.6517 8.69922 94.6491 11.9489 95.3019 13.705L95.6602 14.5991L85.1412 18.9557C85.9465 20.5344 87.1989 21.3397 88.955 21.3397C90.7147 21.3397 91.9351 20.4741 92.8291 19.1614ZM84.5736 16.3304L91.6052 13.4106C91.2185 12.4279 90.0548 11.7432 88.6854 11.7432C86.9293 11.7432 84.4849 13.2935 84.5736 16.3304Z" fill="#EA4335"/>
<path d="M12.3922 14.5243V11.1859H23.642C23.752 11.7678 23.8087 12.456 23.8087 13.2011C23.8087 15.7057 23.124 18.8029 20.9173 21.0096C18.771 23.2446 16.0286 24.4367 12.3957 24.4367C5.66215 24.4367 0 18.9519 0 12.2183C0 5.48477 5.66215 0 12.3957 0C16.1208 0 18.7745 1.46166 20.7683 3.36678L18.4126 5.72247C16.9829 4.38143 15.0459 3.3384 12.3922 3.3384C7.47504 3.3384 3.62931 7.3012 3.62931 12.2183C3.62931 17.1355 7.47504 21.0983 12.3922 21.0983C15.5816 21.0983 17.398 19.8175 18.5617 18.6539C19.5053 17.7102 20.1262 16.3621 20.371 14.5208L12.3922 14.5243Z" fill="#4285F4"/>
</svg>
