<svg width="126" height="27" viewBox="0 0 126 27" fill="none" xmlns="http://www.w3.org/2000/svg">
<g clip-path="url(#clip0_501_1707)">
<path d="M126 12.2147V9.99173H123.248V6.53579L123.155 6.5644L120.571 7.35774L120.52 7.37327V9.99185H116.44V8.53308C116.44 7.85382 116.592 7.33402 116.89 6.98736C117.186 6.64486 117.61 6.47073 118.151 6.47073C118.539 6.47073 118.942 6.56257 119.347 6.74366L119.448 6.78915V4.44801L119.4 4.4304C119.023 4.29418 118.509 4.22559 117.872 4.22559C117.069 4.22559 116.34 4.40081 115.704 4.74808C115.068 5.09584 114.567 5.59229 114.216 6.22349C113.867 6.85395 113.69 7.58212 113.69 8.38793V9.99173H111.774V12.2147H113.69V21.5799H116.44V12.2147H120.52V18.1661C120.52 20.6172 121.672 21.8593 123.945 21.8593C124.318 21.8593 124.712 21.8154 125.113 21.7294C125.521 21.6412 125.8 21.553 125.964 21.4588L126 21.4373V19.1938L125.888 19.268C125.739 19.3678 125.553 19.4493 125.335 19.51C125.116 19.5717 124.933 19.6027 124.791 19.6027C124.259 19.6027 123.865 19.4587 123.621 19.1747C123.373 18.8881 123.248 18.3869 123.248 17.6857V12.2147H126ZM105.631 19.603C104.633 19.603 103.845 19.2709 103.291 18.6167C102.733 17.9592 102.45 17.0219 102.45 15.8309C102.45 14.6021 102.733 13.6404 103.291 12.9713C103.846 12.3066 104.626 11.9692 105.609 11.9692C106.562 11.9692 107.322 12.2914 107.865 12.9274C108.412 13.5667 108.689 14.5207 108.689 15.7637C108.689 17.0221 108.429 17.9887 107.914 18.6353C107.403 19.277 106.635 19.603 105.631 19.603ZM105.753 9.71257C103.849 9.71257 102.336 10.2725 101.257 11.3768C100.179 12.4812 99.6325 14.0095 99.6325 15.9198C99.6325 17.7341 100.166 19.1935 101.218 20.2567C102.271 21.3203 103.703 21.8591 105.475 21.8591C107.321 21.8591 108.804 21.2913 109.882 20.1717C110.96 19.0534 111.506 17.5395 111.506 15.6739C111.506 13.8311 110.994 12.3609 109.982 11.3048C108.971 10.2481 107.548 9.71257 105.753 9.71257ZM95.1976 9.71257C93.902 9.71257 92.8302 10.045 92.0115 10.7006C91.1878 11.36 90.77 12.2249 90.77 13.2715C90.77 13.8155 90.8601 14.2987 91.0376 14.7086C91.2162 15.1198 91.4925 15.4819 91.8596 15.7858C92.2239 16.0872 92.7863 16.4029 93.5315 16.7241C94.158 16.9827 94.6252 17.2015 94.922 17.3739C95.2121 17.5429 95.418 17.7127 95.5343 17.8782C95.6472 18.0401 95.7045 18.2616 95.7045 18.5351C95.7045 19.3136 95.1234 19.6924 93.9276 19.6924C93.484 19.6924 92.9781 19.5995 92.4238 19.4163C91.8736 19.2359 91.3542 18.9717 90.8839 18.633L90.7697 18.5508V21.2076L90.8116 21.2271C91.2008 21.4074 91.6915 21.5594 92.2699 21.6789C92.8471 21.7987 93.3716 21.8596 93.8272 21.8596C95.2332 21.8596 96.3654 21.5255 97.1916 20.866C98.0229 20.2021 98.4443 19.3168 98.4443 18.234C98.4443 17.4529 98.2175 16.7831 97.7704 16.2428C97.3264 15.707 96.5557 15.2151 95.4808 14.7803C94.6244 14.4354 94.0758 14.1492 93.8494 13.9295C93.6312 13.7172 93.5204 13.417 93.5204 13.0368C93.5204 12.6998 93.6572 12.4298 93.9379 12.2112C94.2208 11.9915 94.6146 11.8797 95.1085 11.8797C95.5668 11.8797 96.0357 11.9523 96.502 12.0947C96.968 12.237 97.3773 12.4276 97.719 12.6608L97.8313 12.7379V10.2177L97.7882 10.1991C97.473 10.0635 97.0574 9.94747 96.5525 9.85331C96.05 9.75977 95.5941 9.71257 95.1976 9.71257ZM83.5992 19.603C82.6011 19.603 81.8137 19.2709 81.2591 18.6167C80.7009 17.9592 80.4186 17.0221 80.4186 15.8309C80.4186 14.6021 80.7013 13.6404 81.2597 12.9713C81.8143 12.3066 82.5938 11.9692 83.5772 11.9692C84.5306 11.9692 85.2898 12.2914 85.8338 12.9274C86.3804 13.5667 86.6577 14.5207 86.6577 15.7637C86.6577 17.0221 86.3968 17.9887 85.8824 18.6353C85.3716 19.277 84.6038 19.603 83.5992 19.603ZM83.7219 9.71257C81.8166 9.71257 80.3037 10.2725 79.2256 11.3768C78.1476 12.4812 77.6007 14.0095 77.6007 15.9198C77.6007 17.7349 78.1346 19.1935 79.1869 20.2567C80.2393 21.3203 81.6713 21.8591 83.4432 21.8591C85.2893 21.8591 86.7724 21.2913 87.8506 20.1717C88.9285 19.0534 89.4749 17.5395 89.4749 15.6739C89.4749 13.8311 88.9623 12.3609 87.9507 11.3048C86.9387 10.2481 85.5158 9.71257 83.7219 9.71257ZM73.4253 11.9986V9.99173H70.7082V21.5797H73.4253V15.652C73.4253 14.644 73.6532 13.816 74.1027 13.1905C74.5465 12.5725 75.1379 12.2594 75.8599 12.2594C76.1047 12.2594 76.3794 12.2999 76.6769 12.3799C76.9714 12.4595 77.1847 12.546 77.3105 12.637L77.4247 12.72V9.97192L77.3807 9.95297C77.1277 9.84512 76.7697 9.79071 76.3167 9.79071C75.6339 9.79071 75.0229 10.0108 74.4995 10.4442C74.0401 10.8251 73.7081 11.3473 73.4542 11.9986H73.4253ZM65.8424 9.71257C64.5959 9.71257 63.484 9.98073 62.5383 10.5093C61.5906 11.0392 60.8577 11.7956 60.3591 12.7574C59.8626 13.7169 59.6106 14.8377 59.6106 16.0877C59.6106 17.1825 59.855 18.1873 60.338 19.0728C60.8213 19.9598 61.5053 20.6538 62.3712 21.1351C63.2359 21.6157 64.2352 21.8594 65.3417 21.8594C66.633 21.8594 67.7354 21.6004 68.6194 21.0897L68.6551 21.0691V18.5719L68.5409 18.6555C68.1405 18.9481 67.693 19.1817 67.2116 19.3499C66.7313 19.5181 66.2935 19.603 65.9096 19.603C64.8434 19.603 63.9875 19.2684 63.3663 18.6085C62.7437 17.9479 62.428 17.0202 62.428 15.8528C62.428 14.678 62.7572 13.7265 63.406 13.0244C64.0529 12.3243 64.9103 11.9692 65.9544 11.9692C66.8475 11.9692 67.7178 12.2726 68.5411 12.8717L68.6551 12.9548V10.3235L68.6183 10.3027C68.3084 10.1287 67.8858 9.98501 67.3612 9.87606C66.8388 9.76735 66.3279 9.71257 65.8424 9.71257ZM57.7393 9.99185H55.0222V21.5797H57.7393V9.99185ZM56.4085 5.05536C55.9613 5.05536 55.5713 5.20809 55.2508 5.51073C54.929 5.81422 54.7658 6.19634 54.7658 6.6473C54.7658 7.09117 54.9271 7.46632 55.2458 7.76175C55.5625 8.05631 55.9537 8.20562 56.4086 8.20562C56.8634 8.20562 57.2561 8.05631 57.5765 7.76224C57.899 7.46632 58.0626 7.0913 58.0626 6.6473C58.0626 6.21212 57.9034 5.83391 57.5898 5.52296C57.2764 5.21261 56.8789 5.05536 56.4085 5.05536ZM49.6292 9.13689V21.5797H52.4021V5.41009H48.5642L43.6861 17.4204L38.9521 5.41009H34.958V21.5795H37.5638V9.13566H37.6533L42.6522 21.5797H44.6188L49.5397 9.13689H49.6292Z" fill="#706D6E"/>
<path d="M12.782 12.8299H0V0.00683594H12.782V12.8299Z" fill="#F1511B"/>
<path d="M26.8951 12.8299H14.1133V0.00683594H26.8951V12.8299Z" fill="#80CC28"/>
<path d="M12.7817 26.9929H0V14.1699H12.7817V26.9929Z" fill="#00ADEF"/>
<path d="M26.8951 26.9929H14.1133V14.1699H26.8951V26.9929Z" fill="#FBBC09"/>
</g>
<defs>
<clipPath id="clip0_501_1707">
<rect width="126" height="27" fill="white"/>
</clipPath>
</defs>
</svg>
