<svg width="132" height="32" viewBox="0 0 132 32" fill="none" xmlns="http://www.w3.org/2000/svg">
<path d="M0 6.66787C0 6.66787 3.26775 20.0832 3.78927 22.2607C4.39798 24.8022 5.49476 25.7376 8.65699 25.1068L10.6975 16.7894C11.2146 14.7234 11.5615 13.2505 11.8939 11.1489H11.9524C12.186 13.2711 12.5186 14.7296 12.9442 16.7966C12.9442 16.7966 13.7748 20.5725 14.2001 22.5557C14.6266 24.5382 15.8135 25.7877 18.9109 25.1075L23.7728 6.66929H19.8474L18.1876 14.641C17.7413 16.9614 17.3364 18.7746 17.0242 20.8974H16.9688C16.685 18.7957 16.3241 17.0544 15.8704 14.7936L14.1422 6.66929H10.0522L8.20356 14.5889C7.67982 16.9955 7.18996 18.9388 6.87846 20.9896H6.82204C6.50303 19.0583 6.07814 16.6159 5.61803 14.2863C5.61803 14.2863 4.5197 8.62181 4.13434 6.66929L0.000382203 6.66982L0 6.66787ZM37.4207 6.66787V25.1061H41.158V21.1908V6.66699H37.4207V6.66787ZM90.0573 6.66787V20.27C90.0573 22.1454 90.4096 23.4594 91.1633 24.2621C91.8217 24.9641 92.9063 25.4187 94.2059 25.4187C95.3109 25.4187 96.3981 25.2088 96.9104 25.0175L96.8623 22.0915C96.481 22.1855 96.0424 22.2607 95.4425 22.2607C94.1694 22.2607 93.7425 21.4438 93.7425 19.7599V14.5558H96.9974V11.0281H93.7425V6.66793H90.0571L90.0573 6.66787ZM29.0686 10.9422C26.7459 10.9422 24.9022 11.5956 23.8972 12.1775L24.6327 14.7006C25.5525 14.1197 27.017 13.6388 28.4037 13.6388C30.6995 13.6329 31.0749 14.9394 31.0749 15.7773V15.9755C26.0722 15.9679 22.9123 17.7022 22.9123 21.2375C22.9123 23.3959 24.5209 25.4187 27.318 25.4187C29.0398 25.4187 30.4799 24.7307 31.3429 23.6283H31.4275C31.4275 23.6283 31.9991 26.0223 35.1476 25.1068C34.9822 24.1104 34.9285 23.0481 34.9285 21.7686V16.8429C34.9285 13.7035 33.5905 10.9423 29.0686 10.9423L29.0686 10.9422ZM51.4248 10.9422C49.0862 10.9422 48.0352 12.1296 47.398 13.137H47.3426V11.2549H43.7759V25.107H47.5331V16.9833C47.5331 16.6025 47.5766 16.1998 47.7093 15.8494C48.0206 15.0315 48.7801 14.0748 49.9928 14.0748C51.5088 14.0748 52.2182 15.3589 52.2182 17.212V25.1068H55.9714V16.8849C55.9714 16.5213 56.0211 16.0835 56.1279 15.762C56.4365 14.8317 57.2553 14.0746 58.3826 14.0746C59.9195 14.0746 60.6571 15.3364 60.6571 17.517V25.1069H64.4129V16.9484C64.4129 12.6458 62.2322 10.9423 59.7706 10.9423C58.6805 10.9423 57.82 11.2162 57.042 11.6947C56.3881 12.0967 55.8027 12.6679 55.291 13.42H55.2357C54.6403 11.9271 53.2436 10.9423 51.4242 10.9423L51.4248 10.9422ZM72.0568 10.9422C69.7347 10.9422 67.8913 11.5956 66.8854 12.1775L67.6219 14.7006C68.5408 14.1197 70.0062 13.6388 71.3922 13.6388C73.6864 13.6329 74.0626 14.9394 74.0626 15.7773V15.9755C69.0607 15.9679 65.9004 17.7022 65.9004 21.2375C65.9004 23.3959 67.5098 25.4187 70.3084 25.4187C72.0289 25.4187 73.4694 24.7307 74.3309 23.6283H74.4159C74.4159 23.6283 74.9873 26.0223 78.1363 25.1068C77.9706 24.1104 77.9175 23.0481 77.9175 21.7686V16.8429C77.9175 13.7035 76.5792 10.9423 72.0567 10.9423L72.0568 10.9422ZM87.6595 10.9422C86.2207 10.9422 84.5839 11.8727 83.8968 13.8672H83.7919V11.2548H80.4096V25.1068H84.2653V18.0137C84.2653 17.631 84.2885 17.2974 84.3489 16.9914C84.634 15.5056 85.7684 14.5558 87.3965 14.5558C87.8434 14.5558 88.1633 14.6043 88.5093 14.6543V11.0279C88.2192 10.9692 88.0207 10.9421 87.6597 10.9421L87.6595 10.9422ZM31.1955 18.4301V20.1582C31.1955 20.4138 31.1733 20.6775 31.1027 20.9081C30.8134 21.8679 29.821 22.6789 28.5805 22.6789C27.5462 22.6789 26.7246 22.0908 26.7246 20.8467C26.7246 18.9438 28.8154 18.4178 31.1957 18.4301H31.1955ZM74.1837 18.4301V20.1582C74.1837 20.4138 74.161 20.6775 74.0908 20.9081C73.8016 21.8679 72.8096 22.6789 71.569 22.6789C70.5345 22.6789 69.7128 22.0908 69.7128 20.8467C69.7128 18.9438 71.8036 18.4178 74.1838 18.4301H74.1837Z" fill="#007DC6"/>
<path d="M117.204 0C115.998 0 115.039 0.675039 115.039 1.49682L115.772 9.80944C115.852 10.3103 116.465 10.6966 117.205 10.6966C117.947 10.6956 118.557 10.3096 118.64 9.80944L119.376 1.49682C119.376 0.67511 118.414 7.0585e-05 117.206 7.0585e-05L117.204 0ZM105.263 6.66798C104.637 6.68287 103.925 7.158 103.473 7.94423C102.867 8.99117 102.975 10.1611 103.683 10.5716L111.234 14.0947C111.706 14.2704 112.346 13.9348 112.717 13.294C112.717 13.2939 112.717 13.2938 112.717 13.2937C113.09 12.6497 113.061 11.9257 112.669 11.6045L105.849 6.81215C105.672 6.70938 105.473 6.66313 105.264 6.66809L105.263 6.66798ZM129.145 6.66798C128.937 6.66302 128.738 6.70927 128.561 6.81205L121.74 11.6044C121.35 11.9256 121.321 12.6496 121.692 13.2936L121.692 13.2939C122.065 13.9347 122.703 14.2703 123.175 14.0945L130.729 10.5717C131.441 10.1612 131.543 8.99129 130.941 7.9443C130.487 7.15806 129.774 6.68295 129.148 6.66806L129.145 6.66798ZM111.516 17.6353C111.418 17.634 111.324 17.6491 111.235 17.6825L103.684 21.2014C102.976 21.6136 102.869 22.784 103.474 23.8321C104.077 24.8769 105.141 25.3737 105.85 24.9639L112.67 20.1752C113.062 19.8502 113.091 19.1263 112.718 18.483L112.722 18.4844C112.42 17.9604 111.939 17.641 111.516 17.6352L111.516 17.6353ZM122.896 17.6353C122.473 17.6411 121.993 17.9605 121.691 18.4845L121.694 18.4831C121.323 19.1264 121.352 19.8503 121.742 20.1754L128.563 24.964C129.27 25.3738 130.335 24.8771 130.941 23.8322C131.542 22.7841 131.44 21.6137 130.729 21.2015L123.177 17.6826C123.088 17.6492 122.994 17.6341 122.896 17.6354L122.896 17.6353ZM117.203 21.0804C116.464 21.0813 115.853 21.4659 115.773 21.9654L115.04 30.2777C115.04 31.1009 115.999 31.7745 117.205 31.7745C118.414 31.7745 119.375 31.1008 119.375 30.2777L118.641 21.9654C118.558 21.4659 117.948 21.0813 117.206 21.0804H117.203H117.203Z" fill="#FFC220"/>
</svg>
