<svg width="127" height="25" viewBox="0 0 127 25" fill="none" xmlns="http://www.w3.org/2000/svg">
<path d="M120.451 9.8595L116.079 13.8745L120.451 17.8896V20.2093H120.317L113.804 14.276V19.8971H111.93V2.85551H113.804V13.5176L120.317 7.62893H120.495V9.8595H120.451ZM35.1982 19.8971H44.8343V17.9788H37.1611V3.43546H35.1982V19.8971ZM51.526 7.62893C48.5817 7.62893 45.8604 10.0379 45.8604 13.9191C45.8604 17.6665 48.314 20.1647 51.8829 20.1647C53.4443 20.1647 54.9165 19.7632 56.2548 18.8264V16.7743C54.8719 17.9342 53.3551 18.4249 51.9721 18.4249C49.8308 18.4249 47.9571 17.0865 47.7787 14.6329H56.7902C56.7902 14.4099 56.8794 13.8745 56.8794 13.6515C56.8348 9.68106 54.4258 7.62893 51.526 7.62893ZM51.526 9.32417C53.1766 9.32417 54.9165 10.3948 54.9611 12.9823H47.734C47.8679 10.9748 49.3847 9.32417 51.526 9.32417ZM83.2447 7.62893C81.6387 7.62893 80.4788 8.47655 79.8096 9.72567C79.2297 8.38733 78.159 7.62893 76.4638 7.62893C74.9916 7.62893 73.8763 8.47655 73.2518 9.63645H73.1625L72.9395 7.85199H71.4673V19.8971H73.3856V12.3131C73.3856 10.841 74.2778 9.458 75.9731 9.458C77.5791 9.458 78.2928 10.3948 78.2928 12.1347V19.8971H80.2111V12.1793C80.2111 10.7963 81.148 9.458 82.754 9.458C84.4046 9.458 85.1184 10.3948 85.1184 12.1347V19.8971H87.0367V11.867C87.0813 9.36878 85.8768 7.62893 83.2447 7.62893ZM94.7991 7.62893C91.9439 7.62893 89.2673 10.0379 89.2673 13.9191C89.2673 17.7111 91.9439 20.1647 94.7991 20.1647C96.5835 20.1647 98.2788 19.3171 99.2156 17.6665H99.2602L99.4833 19.8971H101.045V7.85199H99.4833L99.2602 10.0826H99.2156C98.3234 8.47655 96.6281 7.62893 94.7991 7.62893ZM95.1559 9.41339C97.4311 9.41339 99.1264 11.2425 99.1264 13.8745C99.1264 16.5066 97.4311 18.3357 95.1559 18.3357C92.9254 18.3357 91.1855 16.5512 91.1855 13.8745C91.1855 11.1978 92.9254 9.41339 95.1559 9.41339ZM109.209 7.71816C108.182 7.71816 106.576 8.20888 105.773 9.77028L105.595 7.85199H104.078V19.8971H105.997V12.9823C105.997 10.2164 108.227 9.32417 110.101 9.72567V7.80738C109.744 7.76277 109.521 7.71816 109.209 7.71816ZM69.0137 7.58432H68.8798L63.8388 12.5808L58.8423 7.58432H58.7084V9.99334L62.5896 13.8745L58.7084 17.7111V20.1647H58.8423L63.7941 15.1683L68.8352 20.2093H69.0137V17.7557L65.1325 13.8745L69.0137 9.94873V7.58432ZM121.387 2.98935V2.72168H123.395V2.98935H122.547V4.99686H122.235V2.98935H121.387ZM124.376 2.72168L125.224 4.63997L126.072 2.72168H126.473V4.99686H126.25V3.07857L125.402 4.95225H125.135L124.287 3.07857V4.95225H124.02V2.72168H124.376Z" fill="#32323C"/>
<path d="M24.8483 19.9859V0H19.9856L12.4463 7.53933L24.8483 19.9859Z" fill="#008A44"/>
<path d="M0 4.86328V24.8492H4.86264L12.402 17.2652L0 4.86328Z" fill="#3AF23A"/>
<path d="M4.8623 24.8489H24.8482V19.9863L17.3089 12.4023L4.8623 24.8489Z" fill="#006446"/>
<path d="M19.9859 0H0V4.86264L7.53933 12.402L19.9859 0Z" fill="#00C425"/>
</svg>
