<svg width="564" height="284" viewBox="0 0 564 284" fill="none" xmlns="http://www.w3.org/2000/svg">
<path d="M42.1607 7.436V20H39.6407V11.828L36.2747 20H34.3667L30.9827 11.828V20H28.4627V7.436H31.3247L35.3207 16.778L39.3167 7.436H42.1607ZM44.0042 14.978C44.0042 13.97 44.2022 13.076 44.5982 12.296C45.0062 11.516 45.5522 10.916 46.2362 10.496C46.9322 10.076 47.7062 9.866 48.5582 9.866C49.3022 9.866 49.9502 10.016 50.5022 10.316C51.0662 10.616 51.5162 10.994 51.8522 11.45V10.028H54.3902V20H51.8522V18.542C51.5282 19.01 51.0782 19.4 50.5022 19.712C49.9382 20.012 49.2842 20.162 48.5402 20.162C47.7002 20.162 46.9322 19.946 46.2362 19.514C45.5522 19.082 45.0062 18.476 44.5982 17.696C44.2022 16.904 44.0042 15.998 44.0042 14.978ZM51.8522 15.014C51.8522 14.402 51.7322 13.88 51.4922 13.448C51.2522 13.004 50.9282 12.668 50.5202 12.44C50.1122 12.2 49.6742 12.08 49.2062 12.08C48.7382 12.08 48.3062 12.194 47.9102 12.422C47.5142 12.65 47.1902 12.986 46.9382 13.43C46.6982 13.862 46.5782 14.378 46.5782 14.978C46.5782 15.578 46.6982 16.106 46.9382 16.562C47.1902 17.006 47.5142 17.348 47.9102 17.588C48.3182 17.828 48.7502 17.948 49.2062 17.948C49.6742 17.948 50.1122 17.834 50.5202 17.606C50.9282 17.366 51.2522 17.03 51.4922 16.598C51.7322 16.154 51.8522 15.626 51.8522 15.014ZM59.3714 11.576C59.6954 11.048 60.1154 10.634 60.6314 10.334C61.1594 10.034 61.7594 9.884 62.4314 9.884V12.53H61.7654C60.9734 12.53 60.3734 12.716 59.9654 13.088C59.5694 13.46 59.3714 14.108 59.3714 15.032V20H56.8514V10.028H59.3714V11.576ZM70.0327 20L66.6487 15.752V20H64.1287V6.68H66.6487V14.258L69.9967 10.028H73.2727L68.8807 15.032L73.3087 20H70.0327ZM83.9104 14.798C83.9104 15.158 83.8864 15.482 83.8384 15.77H76.5484C76.6084 16.49 76.8604 17.054 77.3044 17.462C77.7484 17.87 78.2944 18.074 78.9424 18.074C79.8784 18.074 80.5444 17.672 80.9404 16.868H83.6584C83.3704 17.828 82.8184 18.62 82.0024 19.244C81.1864 19.856 80.1844 20.162 78.9964 20.162C78.0364 20.162 77.1724 19.952 76.4044 19.532C75.6484 19.1 75.0544 18.494 74.6224 17.714C74.2024 16.934 73.9924 16.034 73.9924 15.014C73.9924 13.982 74.2024 13.076 74.6224 12.296C75.0424 11.516 75.6304 10.916 76.3864 10.496C77.1424 10.076 78.0124 9.866 78.9964 9.866C79.9444 9.866 80.7904 10.07 81.5344 10.478C82.2904 10.886 82.8724 11.468 83.2804 12.224C83.7004 12.968 83.9104 13.826 83.9104 14.798ZM81.3004 14.078C81.2884 13.43 81.0544 12.914 80.5984 12.53C80.1424 12.134 79.5844 11.936 78.9244 11.936C78.3004 11.936 77.7724 12.128 77.3404 12.512C76.9204 12.884 76.6624 13.406 76.5664 14.078H81.3004ZM88.6838 12.098V16.922C88.6838 17.258 88.7618 17.504 88.9178 17.66C89.0858 17.804 89.3618 17.876 89.7458 17.876H90.9158V20H89.3318C87.2078 20 86.1458 18.968 86.1458 16.904V12.098H84.9578V10.028H86.1458V7.562H88.6838V10.028H90.9158V12.098H88.6838ZM94.0063 8.84C93.5623 8.84 93.1903 8.702 92.8903 8.426C92.6023 8.138 92.4583 7.784 92.4583 7.364C92.4583 6.944 92.6023 6.596 92.8903 6.32C93.1903 6.032 93.5623 5.888 94.0063 5.888C94.4503 5.888 94.8163 6.032 95.1043 6.32C95.4043 6.596 95.5543 6.944 95.5543 7.364C95.5543 7.784 95.4043 8.138 95.1043 8.426C94.8163 8.702 94.4503 8.84 94.0063 8.84ZM95.2483 10.028V20H92.7283V10.028H95.2483ZM103.264 9.884C104.452 9.884 105.412 10.262 106.144 11.018C106.876 11.762 107.242 12.806 107.242 14.15V20H104.722V14.492C104.722 13.7 104.524 13.094 104.128 12.674C103.732 12.242 103.192 12.026 102.508 12.026C101.812 12.026 101.26 12.242 100.852 12.674C100.456 13.094 100.258 13.7 100.258 14.492V20H97.7381V10.028H100.258V11.27C100.594 10.838 101.02 10.502 101.536 10.262C102.064 10.01 102.64 9.884 103.264 9.884ZM113.544 9.866C114.288 9.866 114.942 10.016 115.506 10.316C116.07 10.604 116.514 10.982 116.838 11.45V10.028H119.376V20.072C119.376 20.996 119.19 21.818 118.818 22.538C118.446 23.27 117.888 23.846 117.144 24.266C116.4 24.698 115.5 24.914 114.444 24.914C113.028 24.914 111.864 24.584 110.952 23.924C110.052 23.264 109.542 22.364 109.422 21.224H111.924C112.056 21.68 112.338 22.04 112.77 22.304C113.214 22.58 113.748 22.718 114.372 22.718C115.104 22.718 115.698 22.496 116.154 22.052C116.61 21.62 116.838 20.96 116.838 20.072V18.524C116.514 18.992 116.064 19.382 115.488 19.694C114.924 20.006 114.276 20.162 113.544 20.162C112.704 20.162 111.936 19.946 111.24 19.514C110.544 19.082 109.992 18.476 109.584 17.696C109.188 16.904 108.99 15.998 108.99 14.978C108.99 13.97 109.188 13.076 109.584 12.296C109.992 11.516 110.538 10.916 111.222 10.496C111.918 10.076 112.692 9.866 113.544 9.866ZM116.838 15.014C116.838 14.402 116.718 13.88 116.478 13.448C116.238 13.004 115.914 12.668 115.506 12.44C115.098 12.2 114.66 12.08 114.192 12.08C113.724 12.08 113.292 12.194 112.896 12.422C112.5 12.65 112.176 12.986 111.924 13.43C111.684 13.862 111.564 14.378 111.564 14.978C111.564 15.578 111.684 16.106 111.924 16.562C112.176 17.006 112.5 17.348 112.896 17.588C113.304 17.828 113.736 17.948 114.192 17.948C114.66 17.948 115.098 17.834 115.506 17.606C115.914 17.366 116.238 17.03 116.478 16.598C116.718 16.154 116.838 15.626 116.838 15.014Z" fill="white"/>
<path d="M27.6887 35.2V33.523H30.8217V43H28.9497V35.2H27.6887ZM38.9897 35.096H34.7777V37.319C34.9597 37.0937 35.2197 36.9117 35.5577 36.773C35.8957 36.6257 36.2553 36.552 36.6367 36.552C37.33 36.552 37.8977 36.7037 38.3397 37.007C38.7817 37.3103 39.1023 37.7003 39.3017 38.177C39.501 38.645 39.6007 39.1477 39.6007 39.685C39.6007 40.6817 39.3147 41.4833 38.7427 42.09C38.1793 42.6967 37.3733 43 36.3247 43C35.3367 43 34.548 42.753 33.9587 42.259C33.3693 41.765 33.0357 41.1193 32.9577 40.322H34.7257C34.8037 40.6687 34.977 40.946 35.2457 41.154C35.523 41.362 35.874 41.466 36.2987 41.466C36.81 41.466 37.1957 41.3057 37.4557 40.985C37.7157 40.6643 37.8457 40.2397 37.8457 39.711C37.8457 39.1737 37.7113 38.7663 37.4427 38.489C37.1827 38.203 36.797 38.06 36.2857 38.06C35.9217 38.06 35.6183 38.151 35.3757 38.333C35.133 38.515 34.9597 38.7577 34.8557 39.061H33.1137V33.497H38.9897V35.096ZM40.7779 35.85C40.7779 35.1913 40.9685 34.6757 41.3499 34.303C41.7399 33.9303 42.2382 33.744 42.8449 33.744C43.4515 33.744 43.9455 33.9303 44.3269 34.303C44.7169 34.6757 44.9119 35.1913 44.9119 35.85C44.9119 36.5173 44.7169 37.0373 44.3269 37.41C43.9455 37.7827 43.4515 37.969 42.8449 37.969C42.2382 37.969 41.7399 37.7827 41.3499 37.41C40.9685 37.0373 40.7779 36.5173 40.7779 35.85ZM49.1239 33.9L44.0149 43H42.2469L47.3429 33.9H49.1239ZM42.8319 34.836C42.3552 34.836 42.1169 35.174 42.1169 35.85C42.1169 36.5347 42.3552 36.877 42.8319 36.877C43.0659 36.877 43.2479 36.7947 43.3779 36.63C43.5079 36.4567 43.5729 36.1967 43.5729 35.85C43.5729 35.174 43.3259 34.836 42.8319 34.836ZM46.4849 41.037C46.4849 40.3697 46.6755 39.854 47.0569 39.49C47.4469 39.1173 47.9452 38.931 48.5519 38.931C49.1585 38.931 49.6482 39.1173 50.0209 39.49C50.4022 39.854 50.5929 40.3697 50.5929 41.037C50.5929 41.7043 50.4022 42.2243 50.0209 42.597C49.6482 42.9697 49.1585 43.156 48.5519 43.156C47.9365 43.156 47.4382 42.9697 47.0569 42.597C46.6755 42.2243 46.4849 41.7043 46.4849 41.037ZM48.5389 40.023C48.0449 40.023 47.7979 40.361 47.7979 41.037C47.7979 41.7217 48.0449 42.064 48.5389 42.064C49.0242 42.064 49.2669 41.7217 49.2669 41.037C49.2669 40.361 49.0242 40.023 48.5389 40.023Z" fill="white" fill-opacity="0.8"/>
<path d="M37.0127 80.436V82.47H33.6647V93H31.1447V82.47H27.7967V80.436H37.0127ZM41.3714 84.576C41.6954 84.048 42.1154 83.634 42.6314 83.334C43.1594 83.034 43.7594 82.884 44.4314 82.884V85.53H43.7654C42.9734 85.53 42.3734 85.716 41.9654 86.088C41.5694 86.46 41.3714 87.108 41.3714 88.032V93H38.8514V83.028H41.3714V84.576ZM55.3987 87.798C55.3987 88.158 55.3747 88.482 55.3267 88.77H48.0367C48.0967 89.49 48.3487 90.054 48.7927 90.462C49.2367 90.87 49.7827 91.074 50.4307 91.074C51.3667 91.074 52.0327 90.672 52.4287 89.868H55.1467C54.8587 90.828 54.3067 91.62 53.4907 92.244C52.6747 92.856 51.6727 93.162 50.4847 93.162C49.5247 93.162 48.6607 92.952 47.8927 92.532C47.1367 92.1 46.5427 91.494 46.1107 90.714C45.6907 89.934 45.4807 89.034 45.4807 88.014C45.4807 86.982 45.6907 86.076 46.1107 85.296C46.5307 84.516 47.1187 83.916 47.8747 83.496C48.6307 83.076 49.5007 82.866 50.4847 82.866C51.4327 82.866 52.2787 83.07 53.0227 83.478C53.7787 83.886 54.3607 84.468 54.7687 85.224C55.1887 85.968 55.3987 86.826 55.3987 87.798ZM52.7887 87.078C52.7767 86.43 52.5427 85.914 52.0867 85.53C51.6307 85.134 51.0727 84.936 50.4127 84.936C49.7887 84.936 49.2607 85.128 48.8287 85.512C48.4087 85.884 48.1507 86.406 48.0547 87.078H52.7887ZM56.5901 87.978C56.5901 86.97 56.7881 86.076 57.1841 85.296C57.5921 84.516 58.1381 83.916 58.8221 83.496C59.5181 83.076 60.2921 82.866 61.1441 82.866C61.8881 82.866 62.5361 83.016 63.0881 83.316C63.6521 83.616 64.1021 83.994 64.4381 84.45V83.028H66.9761V93H64.4381V91.542C64.1141 92.01 63.6641 92.4 63.0881 92.712C62.5241 93.012 61.8701 93.162 61.1261 93.162C60.2861 93.162 59.5181 92.946 58.8221 92.514C58.1381 92.082 57.5921 91.476 57.1841 90.696C56.7881 89.904 56.5901 88.998 56.5901 87.978ZM64.4381 88.014C64.4381 87.402 64.3181 86.88 64.0781 86.448C63.8381 86.004 63.5141 85.668 63.1061 85.44C62.6981 85.2 62.2601 85.08 61.7921 85.08C61.3241 85.08 60.8921 85.194 60.4961 85.422C60.1001 85.65 59.7761 85.986 59.5241 86.43C59.2841 86.862 59.1641 87.378 59.1641 87.978C59.1641 88.578 59.2841 89.106 59.5241 89.562C59.7761 90.006 60.1001 90.348 60.4961 90.588C60.9041 90.828 61.3361 90.948 61.7921 90.948C62.2601 90.948 62.6981 90.834 63.1061 90.606C63.5141 90.366 63.8381 90.03 64.0781 89.598C64.3181 89.154 64.4381 88.626 64.4381 88.014ZM73.2533 93.162C72.4373 93.162 71.7053 93.018 71.0573 92.73C70.4093 92.43 69.8933 92.028 69.5093 91.524C69.1373 91.02 68.9333 90.462 68.8973 89.85H71.4353C71.4833 90.234 71.6693 90.552 71.9933 90.804C72.3293 91.056 72.7433 91.182 73.2353 91.182C73.7153 91.182 74.0873 91.086 74.3513 90.894C74.6273 90.702 74.7653 90.456 74.7653 90.156C74.7653 89.832 74.5973 89.592 74.2613 89.436C73.9373 89.268 73.4153 89.088 72.6953 88.896C71.9513 88.716 71.3393 88.53 70.8593 88.338C70.3913 88.146 69.9833 87.852 69.6353 87.456C69.2993 87.06 69.1313 86.526 69.1313 85.854C69.1313 85.302 69.2873 84.798 69.5993 84.342C69.9233 83.886 70.3793 83.526 70.9673 83.262C71.5673 82.998 72.2693 82.866 73.0733 82.866C74.2613 82.866 75.2093 83.166 75.9173 83.766C76.6253 84.354 77.0153 85.152 77.0873 86.16H74.6753C74.6393 85.764 74.4713 85.452 74.1713 85.224C73.8833 84.984 73.4933 84.864 73.0013 84.864C72.5453 84.864 72.1913 84.948 71.9393 85.116C71.6993 85.284 71.5793 85.518 71.5793 85.818C71.5793 86.154 71.7473 86.412 72.0833 86.592C72.4193 86.76 72.9413 86.934 73.6493 87.114C74.3693 87.294 74.9633 87.48 75.4313 87.672C75.8993 87.864 76.3013 88.164 76.6373 88.572C76.9853 88.968 77.1653 89.496 77.1773 90.156C77.1773 90.732 77.0153 91.248 76.6913 91.704C76.3793 92.16 75.9233 92.52 75.3233 92.784C74.7353 93.036 74.0453 93.162 73.2533 93.162ZM88.6599 83.028V93H86.1219V91.74C85.7979 92.172 85.3719 92.514 84.8439 92.766C84.3279 93.006 83.7639 93.126 83.1519 93.126C82.3719 93.126 81.6819 92.964 81.0819 92.64C80.4819 92.304 80.0079 91.818 79.6599 91.182C79.3239 90.534 79.1559 89.766 79.1559 88.878V83.028H81.6759V88.518C81.6759 89.31 81.8739 89.922 82.2699 90.354C82.6659 90.774 83.2059 90.984 83.8899 90.984C84.5859 90.984 85.1319 90.774 85.5279 90.354C85.9239 89.922 86.1219 89.31 86.1219 88.518V83.028H88.6599ZM93.6663 84.576C93.9903 84.048 94.4103 83.634 94.9263 83.334C95.4543 83.034 96.0543 82.884 96.7263 82.884V85.53H96.0603C95.2683 85.53 94.6683 85.716 94.2603 86.088C93.8643 86.46 93.6663 87.108 93.6663 88.032V93H91.1463V83.028H93.6663V84.576ZM107.964 83.028L101.79 97.716H99.1076L101.268 92.748L97.2716 83.028H100.098L102.672 89.994L105.282 83.028H107.964Z" fill="white"/>
<path d="M27.6887 108.2V106.523H30.8217V116H28.9497V108.2H27.6887ZM32.5417 114.154V112.724L36.7927 106.64H38.9117V112.568H40.0557V114.154H38.9117V116H37.0917V114.154H32.5417ZM37.2087 108.59L34.5437 112.568H37.2087V108.59ZM41.0064 108.85C41.0064 108.191 41.1971 107.676 41.5784 107.303C41.9684 106.93 42.4667 106.744 43.0734 106.744C43.6801 106.744 44.1741 106.93 44.5554 107.303C44.9454 107.676 45.1404 108.191 45.1404 108.85C45.1404 109.517 44.9454 110.037 44.5554 110.41C44.1741 110.783 43.6801 110.969 43.0734 110.969C42.4667 110.969 41.9684 110.783 41.5784 110.41C41.1971 110.037 41.0064 109.517 41.0064 108.85ZM49.3524 106.9L44.2434 116H42.4754L47.5714 106.9H49.3524ZM43.0604 107.836C42.5837 107.836 42.3454 108.174 42.3454 108.85C42.3454 109.535 42.5837 109.877 43.0604 109.877C43.2944 109.877 43.4764 109.795 43.6064 109.63C43.7364 109.457 43.8014 109.197 43.8014 108.85C43.8014 108.174 43.5544 107.836 43.0604 107.836ZM46.7134 114.037C46.7134 113.37 46.9041 112.854 47.2854 112.49C47.6754 112.117 48.1737 111.931 48.7804 111.931C49.3871 111.931 49.8767 112.117 50.2494 112.49C50.6307 112.854 50.8214 113.37 50.8214 114.037C50.8214 114.704 50.6307 115.224 50.2494 115.597C49.8767 115.97 49.3871 116.156 48.7804 116.156C48.1651 116.156 47.6667 115.97 47.2854 115.597C46.9041 115.224 46.7134 114.704 46.7134 114.037ZM48.7674 113.023C48.2734 113.023 48.0264 113.361 48.0264 114.037C48.0264 114.722 48.2734 115.064 48.7674 115.064C49.2527 115.064 49.4954 114.722 49.4954 114.037C49.4954 113.361 49.2527 113.023 48.7674 113.023Z" fill="white" fill-opacity="0.8"/>
<path d="M32.8007 171.126C31.9247 171.126 31.1327 170.976 30.4247 170.676C29.7287 170.376 29.1767 169.944 28.7687 169.38C28.3607 168.816 28.1507 168.15 28.1387 167.382H30.8387C30.8747 167.898 31.0547 168.306 31.3787 168.606C31.7147 168.906 32.1707 169.056 32.7467 169.056C33.3347 169.056 33.7967 168.918 34.1327 168.642C34.4687 168.354 34.6367 167.982 34.6367 167.526C34.6367 167.154 34.5227 166.848 34.2947 166.608C34.0667 166.368 33.7787 166.182 33.4307 166.05C33.0947 165.906 32.6267 165.75 32.0267 165.582C31.2107 165.342 30.5447 165.108 30.0287 164.88C29.5247 164.64 29.0867 164.286 28.7147 163.818C28.3547 163.338 28.1747 162.702 28.1747 161.91C28.1747 161.166 28.3607 160.518 28.7327 159.966C29.1047 159.414 29.6267 158.994 30.2987 158.706C30.9707 158.406 31.7387 158.256 32.6027 158.256C33.8987 158.256 34.9487 158.574 35.7527 159.21C36.5687 159.834 37.0187 160.71 37.1027 161.838H34.3307C34.3067 161.406 34.1207 161.052 33.7727 160.776C33.4367 160.488 32.9867 160.344 32.4227 160.344C31.9307 160.344 31.5347 160.47 31.2347 160.722C30.9467 160.974 30.8027 161.34 30.8027 161.82C30.8027 162.156 30.9107 162.438 31.1267 162.666C31.3547 162.882 31.6307 163.062 31.9547 163.206C32.2907 163.338 32.7587 163.494 33.3587 163.674C34.1747 163.914 34.8407 164.154 35.3567 164.394C35.8727 164.634 36.3167 164.994 36.6887 165.474C37.0607 165.954 37.2467 166.584 37.2467 167.364C37.2467 168.036 37.0727 168.66 36.7247 169.236C36.3767 169.812 35.8667 170.274 35.1947 170.622C34.5227 170.958 33.7247 171.126 32.8007 171.126ZM42.3655 163.098V167.922C42.3655 168.258 42.4435 168.504 42.5995 168.66C42.7675 168.804 43.0435 168.876 43.4275 168.876H44.5975V171H43.0135C40.8895 171 39.8275 169.968 39.8275 167.904V163.098H38.6395V161.028H39.8275V158.562H42.3655V161.028H44.5975V163.098H42.3655ZM45.762 165.978C45.762 164.97 45.96 164.076 46.356 163.296C46.764 162.516 47.31 161.916 47.994 161.496C48.69 161.076 49.464 160.866 50.316 160.866C51.06 160.866 51.708 161.016 52.26 161.316C52.824 161.616 53.274 161.994 53.61 162.45V161.028H56.148V171H53.61V169.542C53.286 170.01 52.836 170.4 52.26 170.712C51.696 171.012 51.042 171.162 50.298 171.162C49.458 171.162 48.69 170.946 47.994 170.514C47.31 170.082 46.764 169.476 46.356 168.696C45.96 167.904 45.762 166.998 45.762 165.978ZM53.61 166.014C53.61 165.402 53.49 164.88 53.25 164.448C53.01 164.004 52.686 163.668 52.278 163.44C51.87 163.2 51.432 163.08 50.964 163.08C50.496 163.08 50.064 163.194 49.668 163.422C49.272 163.65 48.948 163.986 48.696 164.43C48.456 164.862 48.336 165.378 48.336 165.978C48.336 166.578 48.456 167.106 48.696 167.562C48.948 168.006 49.272 168.348 49.668 168.588C50.076 168.828 50.508 168.948 50.964 168.948C51.432 168.948 51.87 168.834 52.278 168.606C52.686 168.366 53.01 168.03 53.25 167.598C53.49 167.154 53.61 166.626 53.61 166.014ZM64.5132 171L61.1292 166.752V171H58.6092V157.68H61.1292V165.258L64.4772 161.028H67.7532L63.3612 166.032L67.7892 171H64.5132ZM70.3989 159.84C69.9549 159.84 69.5829 159.702 69.2829 159.426C68.9949 159.138 68.8509 158.784 68.8509 158.364C68.8509 157.944 68.9949 157.596 69.2829 157.32C69.5829 157.032 69.9549 156.888 70.3989 156.888C70.8429 156.888 71.2089 157.032 71.4969 157.32C71.7969 157.596 71.9469 157.944 71.9469 158.364C71.9469 158.784 71.7969 159.138 71.4969 159.426C71.2089 159.702 70.8429 159.84 70.3989 159.84ZM71.6409 161.028V171H69.1209V161.028H71.6409ZM79.6567 160.884C80.8447 160.884 81.8047 161.262 82.5367 162.018C83.2687 162.762 83.6347 163.806 83.6347 165.15V171H81.1147V165.492C81.1147 164.7 80.9167 164.094 80.5207 163.674C80.1247 163.242 79.5847 163.026 78.9007 163.026C78.2047 163.026 77.6527 163.242 77.2447 163.674C76.8487 164.094 76.6507 164.7 76.6507 165.492V171H74.1307V161.028H76.6507V162.27C76.9867 161.838 77.4127 161.502 77.9287 161.262C78.4567 161.01 79.0327 160.884 79.6567 160.884ZM89.9371 160.866C90.6811 160.866 91.3351 161.016 91.8991 161.316C92.4631 161.604 92.9071 161.982 93.2311 162.45V161.028H95.7691V171.072C95.7691 171.996 95.5831 172.818 95.2111 173.538C94.8391 174.27 94.2811 174.846 93.5371 175.266C92.7931 175.698 91.8931 175.914 90.8371 175.914C89.4211 175.914 88.2571 175.584 87.3451 174.924C86.4451 174.264 85.9351 173.364 85.8151 172.224H88.3171C88.4491 172.68 88.7311 173.04 89.1631 173.304C89.6071 173.58 90.1411 173.718 90.7651 173.718C91.4971 173.718 92.0911 173.496 92.5471 173.052C93.0031 172.62 93.2311 171.96 93.2311 171.072V169.524C92.9071 169.992 92.4571 170.382 91.8811 170.694C91.3171 171.006 90.6691 171.162 89.9371 171.162C89.0971 171.162 88.3291 170.946 87.6331 170.514C86.9371 170.082 86.3851 169.476 85.9771 168.696C85.5811 167.904 85.3831 166.998 85.3831 165.978C85.3831 164.97 85.5811 164.076 85.9771 163.296C86.3851 162.516 86.9311 161.916 87.6151 161.496C88.3111 161.076 89.0851 160.866 89.9371 160.866ZM93.2311 166.014C93.2311 165.402 93.1111 164.88 92.8711 164.448C92.6311 164.004 92.3071 163.668 91.8991 163.44C91.4911 163.2 91.0531 163.08 90.5851 163.08C90.1171 163.08 89.6851 163.194 89.2891 163.422C88.8931 163.65 88.5691 163.986 88.3171 164.43C88.0771 164.862 87.9571 165.378 87.9571 165.978C87.9571 166.578 88.0771 167.106 88.3171 167.562C88.5691 168.006 88.8931 168.348 89.2891 168.588C89.6971 168.828 90.1291 168.948 90.5851 168.948C91.0531 168.948 91.4911 168.834 91.8991 168.606C92.3071 168.366 92.6311 168.03 92.8711 167.598C93.1111 167.154 93.2311 166.626 93.2311 166.014ZM110.277 158.436V160.47H105.039V163.692H109.053V165.69H105.039V171H102.519V158.436H110.277ZM111.416 165.978C111.416 164.97 111.614 164.076 112.01 163.296C112.418 162.516 112.964 161.916 113.648 161.496C114.344 161.076 115.118 160.866 115.97 160.866C116.714 160.866 117.362 161.016 117.914 161.316C118.478 161.616 118.928 161.994 119.264 162.45V161.028H121.802V171H119.264V169.542C118.94 170.01 118.49 170.4 117.914 170.712C117.35 171.012 116.696 171.162 115.952 171.162C115.112 171.162 114.344 170.946 113.648 170.514C112.964 170.082 112.418 169.476 112.01 168.696C111.614 167.904 111.416 166.998 111.416 165.978ZM119.264 166.014C119.264 165.402 119.144 164.88 118.904 164.448C118.664 164.004 118.34 163.668 117.932 163.44C117.524 163.2 117.086 163.08 116.618 163.08C116.15 163.08 115.718 163.194 115.322 163.422C114.926 163.65 114.602 163.986 114.35 164.43C114.11 164.862 113.99 165.378 113.99 165.978C113.99 166.578 114.11 167.106 114.35 167.562C114.602 168.006 114.926 168.348 115.322 168.588C115.73 168.828 116.162 168.948 116.618 168.948C117.086 168.948 117.524 168.834 117.932 168.606C118.34 168.366 118.664 168.03 118.904 167.598C119.144 167.154 119.264 166.626 119.264 166.014ZM126.783 162.576C127.107 162.048 127.527 161.634 128.043 161.334C128.571 161.034 129.171 160.884 129.843 160.884V163.53H129.177C128.385 163.53 127.785 163.716 127.377 164.088C126.981 164.46 126.783 165.108 126.783 166.032V171H124.263V161.028H126.783V162.576ZM143.925 160.884C145.149 160.884 146.133 161.262 146.877 162.018C147.633 162.762 148.011 163.806 148.011 165.15V171H145.491V165.492C145.491 164.712 145.293 164.118 144.897 163.71C144.501 163.29 143.961 163.08 143.277 163.08C142.593 163.08 142.047 163.29 141.639 163.71C141.243 164.118 141.045 164.712 141.045 165.492V171H138.525V165.492C138.525 164.712 138.327 164.118 137.931 163.71C137.535 163.29 136.995 163.08 136.311 163.08C135.615 163.08 135.063 163.29 134.655 163.71C134.259 164.118 134.061 164.712 134.061 165.492V171H131.541V161.028H134.061V162.234C134.385 161.814 134.799 161.484 135.303 161.244C135.819 161.004 136.383 160.884 136.995 160.884C137.775 160.884 138.471 161.052 139.083 161.388C139.695 161.712 140.169 162.18 140.505 162.792C140.829 162.216 141.297 161.754 141.909 161.406C142.533 161.058 143.205 160.884 143.925 160.884ZM151.68 159.84C151.236 159.84 150.864 159.702 150.564 159.426C150.276 159.138 150.132 158.784 150.132 158.364C150.132 157.944 150.276 157.596 150.564 157.32C150.864 157.032 151.236 156.888 151.68 156.888C152.124 156.888 152.49 157.032 152.778 157.32C153.078 157.596 153.228 157.944 153.228 158.364C153.228 158.784 153.078 159.138 152.778 159.426C152.49 159.702 152.124 159.84 151.68 159.84ZM152.922 161.028V171H150.402V161.028H152.922ZM160.938 160.884C162.126 160.884 163.086 161.262 163.818 162.018C164.55 162.762 164.916 163.806 164.916 165.15V171H162.396V165.492C162.396 164.7 162.198 164.094 161.802 163.674C161.406 163.242 160.866 163.026 160.182 163.026C159.486 163.026 158.934 163.242 158.526 163.674C158.13 164.094 157.932 164.7 157.932 165.492V171H155.412V161.028H157.932V162.27C158.268 161.838 158.694 161.502 159.21 161.262C159.738 161.01 160.314 160.884 160.938 160.884ZM171.218 160.866C171.962 160.866 172.616 161.016 173.18 161.316C173.744 161.604 174.188 161.982 174.512 162.45V161.028H177.05V171.072C177.05 171.996 176.864 172.818 176.492 173.538C176.12 174.27 175.562 174.846 174.818 175.266C174.074 175.698 173.174 175.914 172.118 175.914C170.702 175.914 169.538 175.584 168.626 174.924C167.726 174.264 167.216 173.364 167.096 172.224H169.598C169.73 172.68 170.012 173.04 170.444 173.304C170.888 173.58 171.422 173.718 172.046 173.718C172.778 173.718 173.372 173.496 173.828 173.052C174.284 172.62 174.512 171.96 174.512 171.072V169.524C174.188 169.992 173.738 170.382 173.162 170.694C172.598 171.006 171.95 171.162 171.218 171.162C170.378 171.162 169.61 170.946 168.914 170.514C168.218 170.082 167.666 169.476 167.258 168.696C166.862 167.904 166.664 166.998 166.664 165.978C166.664 164.97 166.862 164.076 167.258 163.296C167.666 162.516 168.212 161.916 168.896 161.496C169.592 161.076 170.366 160.866 171.218 160.866ZM174.512 166.014C174.512 165.402 174.392 164.88 174.152 164.448C173.912 164.004 173.588 163.668 173.18 163.44C172.772 163.2 172.334 163.08 171.866 163.08C171.398 163.08 170.966 163.194 170.57 163.422C170.174 163.65 169.85 163.986 169.598 164.43C169.358 164.862 169.238 165.378 169.238 165.978C169.238 166.578 169.358 167.106 169.598 167.562C169.85 168.006 170.174 168.348 170.57 168.588C170.978 168.828 171.41 168.948 171.866 168.948C172.334 168.948 172.772 168.834 173.18 168.606C173.588 168.366 173.912 168.03 174.152 167.598C174.392 167.154 174.512 166.626 174.512 166.014Z" fill="white"/>
<path d="M27.6887 186.2V184.523H30.8217V194H28.9497V186.2H27.6887ZM38.9897 186.096H34.7777V188.319C34.9597 188.094 35.2197 187.912 35.5577 187.773C35.8957 187.626 36.2553 187.552 36.6367 187.552C37.33 187.552 37.8977 187.704 38.3397 188.007C38.7817 188.31 39.1023 188.7 39.3017 189.177C39.501 189.645 39.6007 190.148 39.6007 190.685C39.6007 191.682 39.3147 192.483 38.7427 193.09C38.1793 193.697 37.3733 194 36.3247 194C35.3367 194 34.548 193.753 33.9587 193.259C33.3693 192.765 33.0357 192.119 32.9577 191.322H34.7257C34.8037 191.669 34.977 191.946 35.2457 192.154C35.523 192.362 35.874 192.466 36.2987 192.466C36.81 192.466 37.1957 192.306 37.4557 191.985C37.7157 191.664 37.8457 191.24 37.8457 190.711C37.8457 190.174 37.7113 189.766 37.4427 189.489C37.1827 189.203 36.797 189.06 36.2857 189.06C35.9217 189.06 35.6183 189.151 35.3757 189.333C35.133 189.515 34.9597 189.758 34.8557 190.061H33.1137V184.497H38.9897V186.096ZM40.7779 186.85C40.7779 186.191 40.9685 185.676 41.3499 185.303C41.7399 184.93 42.2382 184.744 42.8449 184.744C43.4515 184.744 43.9455 184.93 44.3269 185.303C44.7169 185.676 44.9119 186.191 44.9119 186.85C44.9119 187.517 44.7169 188.037 44.3269 188.41C43.9455 188.783 43.4515 188.969 42.8449 188.969C42.2382 188.969 41.7399 188.783 41.3499 188.41C40.9685 188.037 40.7779 187.517 40.7779 186.85ZM49.1239 184.9L44.0149 194H42.2469L47.3429 184.9H49.1239ZM42.8319 185.836C42.3552 185.836 42.1169 186.174 42.1169 186.85C42.1169 187.535 42.3552 187.877 42.8319 187.877C43.0659 187.877 43.2479 187.795 43.3779 187.63C43.5079 187.457 43.5729 187.197 43.5729 186.85C43.5729 186.174 43.3259 185.836 42.8319 185.836ZM46.4849 192.037C46.4849 191.37 46.6755 190.854 47.0569 190.49C47.4469 190.117 47.9452 189.931 48.5519 189.931C49.1585 189.931 49.6482 190.117 50.0209 190.49C50.4022 190.854 50.5929 191.37 50.5929 192.037C50.5929 192.704 50.4022 193.224 50.0209 193.597C49.6482 193.97 49.1585 194.156 48.5519 194.156C47.9365 194.156 47.4382 193.97 47.0569 193.597C46.6755 193.224 46.4849 192.704 46.4849 192.037ZM48.5389 191.023C48.0449 191.023 47.7979 191.361 47.7979 192.037C47.7979 192.722 48.0449 193.064 48.5389 193.064C49.0242 193.064 49.2669 192.722 49.2669 192.037C49.2669 191.361 49.0242 191.023 48.5389 191.023Z" fill="white" fill-opacity="0.8"/>
<path d="M34.9427 249L32.1707 244.104H30.9827V249H28.4627V236.436H33.1787C34.1507 236.436 34.9787 236.61 35.6627 236.958C36.3467 237.294 36.8567 237.756 37.1927 238.344C37.5407 238.92 37.7147 239.568 37.7147 240.288C37.7147 241.116 37.4747 241.866 36.9947 242.538C36.5147 243.198 35.8007 243.654 34.8527 243.906L37.8587 249H34.9427ZM30.9827 242.214H33.0887C33.7727 242.214 34.2827 242.052 34.6187 241.728C34.9547 241.392 35.1227 240.93 35.1227 240.342C35.1227 239.766 34.9547 239.322 34.6187 239.01C34.2827 238.686 33.7727 238.524 33.0887 238.524H30.9827V242.214ZM49.264 243.798C49.264 244.158 49.24 244.482 49.192 244.77H41.902C41.962 245.49 42.214 246.054 42.658 246.462C43.102 246.87 43.648 247.074 44.296 247.074C45.232 247.074 45.898 246.672 46.294 245.868H49.012C48.724 246.828 48.172 247.62 47.356 248.244C46.54 248.856 45.538 249.162 44.35 249.162C43.39 249.162 42.526 248.952 41.758 248.532C41.002 248.1 40.408 247.494 39.976 246.714C39.556 245.934 39.346 245.034 39.346 244.014C39.346 242.982 39.556 242.076 39.976 241.296C40.396 240.516 40.984 239.916 41.74 239.496C42.496 239.076 43.366 238.866 44.35 238.866C45.298 238.866 46.144 239.07 46.888 239.478C47.644 239.886 48.226 240.468 48.634 241.224C49.054 241.968 49.264 242.826 49.264 243.798ZM46.654 243.078C46.642 242.43 46.408 241.914 45.952 241.53C45.496 241.134 44.938 240.936 44.278 240.936C43.654 240.936 43.126 241.128 42.694 241.512C42.274 241.884 42.016 242.406 41.92 243.078H46.654ZM54.9193 249.162C54.1033 249.162 53.3713 249.018 52.7233 248.73C52.0753 248.43 51.5593 248.028 51.1753 247.524C50.8033 247.02 50.5993 246.462 50.5633 245.85H53.1013C53.1493 246.234 53.3353 246.552 53.6593 246.804C53.9953 247.056 54.4093 247.182 54.9013 247.182C55.3813 247.182 55.7533 247.086 56.0173 246.894C56.2933 246.702 56.4313 246.456 56.4313 246.156C56.4313 245.832 56.2633 245.592 55.9273 245.436C55.6033 245.268 55.0813 245.088 54.3613 244.896C53.6173 244.716 53.0053 244.53 52.5253 244.338C52.0573 244.146 51.6493 243.852 51.3013 243.456C50.9653 243.06 50.7973 242.526 50.7973 241.854C50.7973 241.302 50.9533 240.798 51.2653 240.342C51.5893 239.886 52.0453 239.526 52.6333 239.262C53.2333 238.998 53.9353 238.866 54.7393 238.866C55.9273 238.866 56.8753 239.166 57.5833 239.766C58.2913 240.354 58.6813 241.152 58.7533 242.16H56.3413C56.3053 241.764 56.1373 241.452 55.8373 241.224C55.5493 240.984 55.1593 240.864 54.6673 240.864C54.2113 240.864 53.8573 240.948 53.6053 241.116C53.3653 241.284 53.2453 241.518 53.2453 241.818C53.2453 242.154 53.4133 242.412 53.7493 242.592C54.0853 242.76 54.6073 242.934 55.3153 243.114C56.0353 243.294 56.6293 243.48 57.0973 243.672C57.5653 243.864 57.9673 244.164 58.3033 244.572C58.6513 244.968 58.8313 245.496 58.8433 246.156C58.8433 246.732 58.6813 247.248 58.3573 247.704C58.0453 248.16 57.5893 248.52 56.9893 248.784C56.4013 249.036 55.7113 249.162 54.9193 249.162ZM70.1819 243.798C70.1819 244.158 70.1579 244.482 70.1099 244.77H62.8199C62.8799 245.49 63.1319 246.054 63.5759 246.462C64.0199 246.87 64.5659 247.074 65.2139 247.074C66.1499 247.074 66.8159 246.672 67.2119 245.868H69.9299C69.6419 246.828 69.0899 247.62 68.2739 248.244C67.4579 248.856 66.4559 249.162 65.2679 249.162C64.3079 249.162 63.4439 248.952 62.6759 248.532C61.9199 248.1 61.3259 247.494 60.8939 246.714C60.4739 245.934 60.2639 245.034 60.2639 244.014C60.2639 242.982 60.4739 242.076 60.8939 241.296C61.3139 240.516 61.9019 239.916 62.6579 239.496C63.4139 239.076 64.2839 238.866 65.2679 238.866C66.2159 238.866 67.0619 239.07 67.8059 239.478C68.5619 239.886 69.1439 240.468 69.5519 241.224C69.9719 241.968 70.1819 242.826 70.1819 243.798ZM67.5719 243.078C67.5599 242.43 67.3259 241.914 66.8699 241.53C66.4139 241.134 65.8559 240.936 65.1959 240.936C64.5719 240.936 64.0439 241.128 63.6119 241.512C63.1919 241.884 62.9339 242.406 62.8379 243.078H67.5719ZM71.3733 243.978C71.3733 242.97 71.5713 242.076 71.9673 241.296C72.3753 240.516 72.9213 239.916 73.6053 239.496C74.3013 239.076 75.0753 238.866 75.9273 238.866C76.6713 238.866 77.3193 239.016 77.8713 239.316C78.4353 239.616 78.8853 239.994 79.2213 240.45V239.028H81.7593V249H79.2213V247.542C78.8973 248.01 78.4473 248.4 77.8713 248.712C77.3073 249.012 76.6533 249.162 75.9093 249.162C75.0693 249.162 74.3013 248.946 73.6053 248.514C72.9213 248.082 72.3753 247.476 71.9673 246.696C71.5713 245.904 71.3733 244.998 71.3733 243.978ZM79.2213 244.014C79.2213 243.402 79.1013 242.88 78.8613 242.448C78.6213 242.004 78.2973 241.668 77.8893 241.44C77.4813 241.2 77.0433 241.08 76.5753 241.08C76.1073 241.08 75.6753 241.194 75.2793 241.422C74.8833 241.65 74.5593 241.986 74.3073 242.43C74.0673 242.862 73.9473 243.378 73.9473 243.978C73.9473 244.578 74.0673 245.106 74.3073 245.562C74.5593 246.006 74.8833 246.348 75.2793 246.588C75.6873 246.828 76.1193 246.948 76.5753 246.948C77.0433 246.948 77.4813 246.834 77.8893 246.606C78.2973 246.366 78.6213 246.03 78.8613 245.598C79.1013 245.154 79.2213 244.626 79.2213 244.014ZM86.7405 240.576C87.0645 240.048 87.4845 239.634 88.0005 239.334C88.5285 239.034 89.1285 238.884 89.8005 238.884V241.53H89.1345C88.3425 241.53 87.7425 241.716 87.3345 242.088C86.9385 242.46 86.7405 243.108 86.7405 244.032V249H84.2205V239.028H86.7405V240.576ZM90.8499 244.014C90.8499 242.982 91.0599 242.082 91.4799 241.314C91.8999 240.534 92.4819 239.934 93.2259 239.514C93.9699 239.082 94.8219 238.866 95.7819 238.866C97.0179 238.866 98.0379 239.178 98.8419 239.802C99.6579 240.414 100.204 241.278 100.48 242.394H97.7619C97.6179 241.962 97.3719 241.626 97.0239 241.386C96.6879 241.134 96.2679 241.008 95.7639 241.008C95.0439 241.008 94.4739 241.272 94.0539 241.8C93.6339 242.316 93.4239 243.054 93.4239 244.014C93.4239 244.962 93.6339 245.7 94.0539 246.228C94.4739 246.744 95.0439 247.002 95.7639 247.002C96.7839 247.002 97.4499 246.546 97.7619 245.634H100.48C100.204 246.714 99.6579 247.572 98.8419 248.208C98.0259 248.844 97.0059 249.162 95.7819 249.162C94.8219 249.162 93.9699 248.952 93.2259 248.532C92.4819 248.1 91.8999 247.5 91.4799 246.732C91.0599 245.952 90.8499 245.046 90.8499 244.014ZM107.942 238.884C108.698 238.884 109.37 239.052 109.958 239.388C110.546 239.712 111.002 240.198 111.326 240.846C111.662 241.482 111.83 242.25 111.83 243.15V249H109.31V243.492C109.31 242.7 109.112 242.094 108.716 241.674C108.32 241.242 107.78 241.026 107.096 241.026C106.4 241.026 105.848 241.242 105.44 241.674C105.044 242.094 104.846 242.7 104.846 243.492V249H102.326V235.68H104.846V240.27C105.17 239.838 105.602 239.502 106.142 239.262C106.682 239.01 107.282 238.884 107.942 238.884Z" fill="white"/>
<path d="M27.6887 264.2V262.523H30.8217V272H28.9497V264.2H27.6887ZM32.6197 267.138C32.6197 265.639 32.8883 264.464 33.4257 263.615C33.9717 262.766 34.873 262.341 36.1297 262.341C37.3863 262.341 38.2833 262.766 38.8207 263.615C39.3667 264.464 39.6397 265.639 39.6397 267.138C39.6397 268.646 39.3667 269.829 38.8207 270.687C38.2833 271.545 37.3863 271.974 36.1297 271.974C34.873 271.974 33.9717 271.545 33.4257 270.687C32.8883 269.829 32.6197 268.646 32.6197 267.138ZM37.8457 267.138C37.8457 266.497 37.8023 265.959 37.7157 265.526C37.6377 265.084 37.473 264.724 37.2217 264.447C36.979 264.17 36.615 264.031 36.1297 264.031C35.6443 264.031 35.276 264.17 35.0247 264.447C34.782 264.724 34.6173 265.084 34.5307 265.526C34.4527 265.959 34.4137 266.497 34.4137 267.138C34.4137 267.797 34.4527 268.351 34.5307 268.802C34.6087 269.244 34.7733 269.604 35.0247 269.881C35.276 270.15 35.6443 270.284 36.1297 270.284C36.615 270.284 36.9833 270.15 37.2347 269.881C37.486 269.604 37.6507 269.244 37.7287 268.802C37.8067 268.351 37.8457 267.797 37.8457 267.138ZM40.816 264.85C40.816 264.191 41.0066 263.676 41.388 263.303C41.778 262.93 42.2763 262.744 42.883 262.744C43.4896 262.744 43.9836 262.93 44.365 263.303C44.755 263.676 44.95 264.191 44.95 264.85C44.95 265.517 44.755 266.037 44.365 266.41C43.9836 266.783 43.4896 266.969 42.883 266.969C42.2763 266.969 41.778 266.783 41.388 266.41C41.0066 266.037 40.816 265.517 40.816 264.85ZM49.162 262.9L44.053 272H42.285L47.381 262.9H49.162ZM42.87 263.836C42.3933 263.836 42.155 264.174 42.155 264.85C42.155 265.535 42.3933 265.877 42.87 265.877C43.104 265.877 43.286 265.795 43.416 265.63C43.546 265.457 43.611 265.197 43.611 264.85C43.611 264.174 43.364 263.836 42.87 263.836ZM46.523 270.037C46.523 269.37 46.7136 268.854 47.095 268.49C47.485 268.117 47.9833 267.931 48.59 267.931C49.1966 267.931 49.6863 268.117 50.059 268.49C50.4403 268.854 50.631 269.37 50.631 270.037C50.631 270.704 50.4403 271.224 50.059 271.597C49.6863 271.97 49.1966 272.156 48.59 272.156C47.9746 272.156 47.4763 271.97 47.095 271.597C46.7136 271.224 46.523 270.704 46.523 270.037ZM48.577 269.023C48.083 269.023 47.836 269.361 47.836 270.037C47.836 270.722 48.083 271.064 48.577 271.064C49.0623 271.064 49.305 270.722 49.305 270.037C49.305 269.361 49.0623 269.023 48.577 269.023Z" fill="white" fill-opacity="0.8"/>
<path d="M242.167 17.606H237.163L236.335 20H233.689L238.207 7.418H241.141L245.659 20H242.995L242.167 17.606ZM241.483 15.59L239.665 10.334L237.847 15.59H241.483ZM246.699 14.978C246.699 13.97 246.897 13.076 247.293 12.296C247.701 11.516 248.253 10.916 248.949 10.496C249.645 10.076 250.419 9.866 251.271 9.866C251.919 9.866 252.537 10.01 253.125 10.298C253.713 10.574 254.181 10.946 254.529 11.414V6.68H257.085V20H254.529V18.524C254.217 19.016 253.779 19.412 253.215 19.712C252.651 20.012 251.997 20.162 251.253 20.162C250.413 20.162 249.645 19.946 248.949 19.514C248.253 19.082 247.701 18.476 247.293 17.696C246.897 16.904 246.699 15.998 246.699 14.978ZM254.547 15.014C254.547 14.402 254.427 13.88 254.187 13.448C253.947 13.004 253.623 12.668 253.215 12.44C252.807 12.2 252.369 12.08 251.901 12.08C251.433 12.08 251.001 12.194 250.605 12.422C250.209 12.65 249.885 12.986 249.633 13.43C249.393 13.862 249.273 14.378 249.273 14.978C249.273 15.578 249.393 16.106 249.633 16.562C249.885 17.006 250.209 17.348 250.605 17.588C251.013 17.828 251.445 17.948 251.901 17.948C252.369 17.948 252.807 17.834 253.215 17.606C253.623 17.366 253.947 17.03 254.187 16.598C254.427 16.154 254.547 15.626 254.547 15.014ZM263.705 17.678L266.225 10.028H268.907L265.217 20H262.157L258.485 10.028H261.185L263.705 17.678ZM271.6 8.84C271.156 8.84 270.784 8.702 270.484 8.426C270.196 8.138 270.052 7.784 270.052 7.364C270.052 6.944 270.196 6.596 270.484 6.32C270.784 6.032 271.156 5.888 271.6 5.888C272.044 5.888 272.41 6.032 272.698 6.32C272.998 6.596 273.148 6.944 273.148 7.364C273.148 7.784 272.998 8.138 272.698 8.426C272.41 8.702 272.044 8.84 271.6 8.84ZM272.842 10.028V20H270.322V10.028H272.842ZM279.148 20.162C278.332 20.162 277.6 20.018 276.952 19.73C276.304 19.43 275.788 19.028 275.404 18.524C275.032 18.02 274.828 17.462 274.792 16.85H277.33C277.378 17.234 277.564 17.552 277.888 17.804C278.224 18.056 278.638 18.182 279.13 18.182C279.61 18.182 279.982 18.086 280.246 17.894C280.522 17.702 280.66 17.456 280.66 17.156C280.66 16.832 280.492 16.592 280.156 16.436C279.832 16.268 279.31 16.088 278.59 15.896C277.846 15.716 277.234 15.53 276.754 15.338C276.286 15.146 275.878 14.852 275.53 14.456C275.194 14.06 275.026 13.526 275.026 12.854C275.026 12.302 275.182 11.798 275.494 11.342C275.818 10.886 276.274 10.526 276.862 10.262C277.462 9.998 278.164 9.866 278.968 9.866C280.156 9.866 281.104 10.166 281.812 10.766C282.52 11.354 282.91 12.152 282.982 13.16H280.57C280.534 12.764 280.366 12.452 280.066 12.224C279.778 11.984 279.388 11.864 278.896 11.864C278.44 11.864 278.086 11.948 277.834 12.116C277.594 12.284 277.474 12.518 277.474 12.818C277.474 13.154 277.642 13.412 277.978 13.592C278.314 13.76 278.836 13.934 279.544 14.114C280.264 14.294 280.858 14.48 281.326 14.672C281.794 14.864 282.196 15.164 282.532 15.572C282.88 15.968 283.06 16.496 283.072 17.156C283.072 17.732 282.91 18.248 282.586 18.704C282.274 19.16 281.818 19.52 281.218 19.784C280.63 20.036 279.94 20.162 279.148 20.162ZM289.568 20.162C288.608 20.162 287.744 19.952 286.976 19.532C286.208 19.1 285.602 18.494 285.158 17.714C284.726 16.934 284.51 16.034 284.51 15.014C284.51 13.994 284.732 13.094 285.176 12.314C285.632 11.534 286.25 10.934 287.03 10.514C287.81 10.082 288.68 9.866 289.64 9.866C290.6 9.866 291.47 10.082 292.25 10.514C293.03 10.934 293.642 11.534 294.086 12.314C294.542 13.094 294.77 13.994 294.77 15.014C294.77 16.034 294.536 16.934 294.068 17.714C293.612 18.494 292.988 19.1 292.196 19.532C291.416 19.952 290.54 20.162 289.568 20.162ZM289.568 17.966C290.024 17.966 290.45 17.858 290.846 17.642C291.254 17.414 291.578 17.078 291.818 16.634C292.058 16.19 292.178 15.65 292.178 15.014C292.178 14.066 291.926 13.34 291.422 12.836C290.93 12.32 290.324 12.062 289.604 12.062C288.884 12.062 288.278 12.32 287.786 12.836C287.306 13.34 287.066 14.066 287.066 15.014C287.066 15.962 287.3 16.694 287.768 17.21C288.248 17.714 288.848 17.966 289.568 17.966ZM299.139 11.576C299.463 11.048 299.883 10.634 300.399 10.334C300.927 10.034 301.527 9.884 302.199 9.884V12.53H301.533C300.741 12.53 300.141 12.716 299.733 13.088C299.337 13.46 299.139 14.108 299.139 15.032V20H296.619V10.028H299.139V11.576Z" fill="white"/>
<path d="M233.689 35.2V33.523H236.822V43H234.95V35.2H233.689ZM238.62 38.138C238.62 36.6387 238.888 35.4643 239.426 34.615C239.972 33.7657 240.873 33.341 242.13 33.341C243.386 33.341 244.283 33.7657 244.821 34.615C245.367 35.4643 245.64 36.6387 245.64 38.138C245.64 39.646 245.367 40.829 244.821 41.687C244.283 42.545 243.386 42.974 242.13 42.974C240.873 42.974 239.972 42.545 239.426 41.687C238.888 40.829 238.62 39.646 238.62 38.138ZM243.846 38.138C243.846 37.4967 243.802 36.9593 243.716 36.526C243.638 36.084 243.473 35.7243 243.222 35.447C242.979 35.1697 242.615 35.031 242.13 35.031C241.644 35.031 241.276 35.1697 241.025 35.447C240.782 35.7243 240.617 36.084 240.531 36.526C240.453 36.9593 240.414 37.4967 240.414 38.138C240.414 38.7967 240.453 39.3513 240.531 39.802C240.609 40.244 240.773 40.6037 241.025 40.881C241.276 41.1497 241.644 41.284 242.13 41.284C242.615 41.284 242.983 41.1497 243.235 40.881C243.486 40.6037 243.651 40.244 243.729 39.802C243.807 39.3513 243.846 38.7967 243.846 38.138ZM246.816 35.85C246.816 35.1913 247.007 34.6757 247.388 34.303C247.778 33.9303 248.276 33.744 248.883 33.744C249.49 33.744 249.984 33.9303 250.365 34.303C250.755 34.6757 250.95 35.1913 250.95 35.85C250.95 36.5173 250.755 37.0373 250.365 37.41C249.984 37.7827 249.49 37.969 248.883 37.969C248.276 37.969 247.778 37.7827 247.388 37.41C247.007 37.0373 246.816 36.5173 246.816 35.85ZM255.162 33.9L250.053 43H248.285L253.381 33.9H255.162ZM248.87 34.836C248.393 34.836 248.155 35.174 248.155 35.85C248.155 36.5347 248.393 36.877 248.87 36.877C249.104 36.877 249.286 36.7947 249.416 36.63C249.546 36.4567 249.611 36.1967 249.611 35.85C249.611 35.174 249.364 34.836 248.87 34.836ZM252.523 41.037C252.523 40.3697 252.714 39.854 253.095 39.49C253.485 39.1173 253.983 38.931 254.59 38.931C255.197 38.931 255.686 39.1173 256.059 39.49C256.44 39.854 256.631 40.3697 256.631 41.037C256.631 41.7043 256.44 42.2243 256.059 42.597C255.686 42.9697 255.197 43.156 254.59 43.156C253.975 43.156 253.476 42.9697 253.095 42.597C252.714 42.2243 252.523 41.7043 252.523 41.037ZM254.577 40.023C254.083 40.023 253.836 40.361 253.836 41.037C253.836 41.7217 254.083 42.064 254.577 42.064C255.062 42.064 255.305 41.7217 255.305 41.037C255.305 40.361 255.062 40.023 254.577 40.023Z" fill="white" fill-opacity="0.8"/>
<path d="M444.801 20.126C443.925 20.126 443.133 19.976 442.425 19.676C441.729 19.376 441.177 18.944 440.769 18.38C440.361 17.816 440.151 17.15 440.139 16.382H442.839C442.875 16.898 443.055 17.306 443.379 17.606C443.715 17.906 444.171 18.056 444.747 18.056C445.335 18.056 445.797 17.918 446.133 17.642C446.469 17.354 446.637 16.982 446.637 16.526C446.637 16.154 446.523 15.848 446.295 15.608C446.067 15.368 445.779 15.182 445.431 15.05C445.095 14.906 444.627 14.75 444.027 14.582C443.211 14.342 442.545 14.108 442.029 13.88C441.525 13.64 441.087 13.286 440.715 12.818C440.355 12.338 440.175 11.702 440.175 10.91C440.175 10.166 440.361 9.518 440.733 8.966C441.105 8.414 441.627 7.994 442.299 7.706C442.971 7.406 443.739 7.256 444.603 7.256C445.899 7.256 446.949 7.574 447.753 8.21C448.569 8.834 449.019 9.71 449.103 10.838H446.331C446.307 10.406 446.121 10.052 445.773 9.776C445.437 9.488 444.987 9.344 444.423 9.344C443.931 9.344 443.535 9.47 443.235 9.722C442.947 9.974 442.803 10.34 442.803 10.82C442.803 11.156 442.911 11.438 443.127 11.666C443.355 11.882 443.631 12.062 443.955 12.206C444.291 12.338 444.759 12.494 445.359 12.674C446.175 12.914 446.841 13.154 447.357 13.394C447.873 13.634 448.317 13.994 448.689 14.474C449.061 14.954 449.247 15.584 449.247 16.364C449.247 17.036 449.073 17.66 448.725 18.236C448.377 18.812 447.867 19.274 447.195 19.622C446.523 19.958 445.725 20.126 444.801 20.126ZM460.701 14.798C460.701 15.158 460.677 15.482 460.629 15.77H453.339C453.399 16.49 453.651 17.054 454.095 17.462C454.539 17.87 455.085 18.074 455.733 18.074C456.669 18.074 457.335 17.672 457.731 16.868H460.449C460.161 17.828 459.609 18.62 458.793 19.244C457.977 19.856 456.975 20.162 455.787 20.162C454.827 20.162 453.963 19.952 453.195 19.532C452.439 19.1 451.845 18.494 451.413 17.714C450.993 16.934 450.783 16.034 450.783 15.014C450.783 13.982 450.993 13.076 451.413 12.296C451.833 11.516 452.421 10.916 453.177 10.496C453.933 10.076 454.803 9.866 455.787 9.866C456.735 9.866 457.581 10.07 458.325 10.478C459.081 10.886 459.663 11.468 460.071 12.224C460.491 12.968 460.701 13.826 460.701 14.798ZM458.091 14.078C458.079 13.43 457.845 12.914 457.389 12.53C456.933 12.134 456.375 11.936 455.715 11.936C455.091 11.936 454.563 12.128 454.131 12.512C453.711 12.884 453.453 13.406 453.357 14.078H458.091ZM471.811 14.798C471.811 15.158 471.787 15.482 471.739 15.77H464.449C464.509 16.49 464.761 17.054 465.205 17.462C465.649 17.87 466.195 18.074 466.843 18.074C467.779 18.074 468.445 17.672 468.841 16.868H471.559C471.271 17.828 470.719 18.62 469.903 19.244C469.087 19.856 468.085 20.162 466.897 20.162C465.937 20.162 465.073 19.952 464.305 19.532C463.549 19.1 462.955 18.494 462.523 17.714C462.103 16.934 461.893 16.034 461.893 15.014C461.893 13.982 462.103 13.076 462.523 12.296C462.943 11.516 463.531 10.916 464.287 10.496C465.043 10.076 465.913 9.866 466.897 9.866C467.845 9.866 468.691 10.07 469.435 10.478C470.191 10.886 470.773 11.468 471.181 12.224C471.601 12.968 471.811 13.826 471.811 14.798ZM469.201 14.078C469.189 13.43 468.955 12.914 468.499 12.53C468.043 12.134 467.485 11.936 466.825 11.936C466.201 11.936 465.673 12.128 465.241 12.512C464.821 12.884 464.563 13.406 464.467 14.078H469.201ZM473.002 14.978C473.002 13.97 473.2 13.076 473.596 12.296C474.004 11.516 474.556 10.916 475.252 10.496C475.948 10.076 476.722 9.866 477.574 9.866C478.222 9.866 478.84 10.01 479.428 10.298C480.016 10.574 480.484 10.946 480.832 11.414V6.68H483.388V20H480.832V18.524C480.52 19.016 480.082 19.412 479.518 19.712C478.954 20.012 478.3 20.162 477.556 20.162C476.716 20.162 475.948 19.946 475.252 19.514C474.556 19.082 474.004 18.476 473.596 17.696C473.2 16.904 473.002 15.998 473.002 14.978ZM480.85 15.014C480.85 14.402 480.73 13.88 480.49 13.448C480.25 13.004 479.926 12.668 479.518 12.44C479.11 12.2 478.672 12.08 478.204 12.08C477.736 12.08 477.304 12.194 476.908 12.422C476.512 12.65 476.188 12.986 475.936 13.43C475.696 13.862 475.576 14.378 475.576 14.978C475.576 15.578 475.696 16.106 475.936 16.562C476.188 17.006 476.512 17.348 476.908 17.588C477.316 17.828 477.748 17.948 478.204 17.948C478.672 17.948 479.11 17.834 479.518 17.606C479.926 17.366 480.25 17.03 480.49 16.598C480.73 16.154 480.85 15.626 480.85 15.014Z" fill="white"/>
<path d="M439.832 41.154V39.724L444.083 33.64H446.202V39.568H447.346V41.154H446.202V43H444.382V41.154H439.832ZM444.499 35.59L441.834 39.568H444.499V35.59ZM448.296 35.85C448.296 35.1913 448.487 34.6757 448.868 34.303C449.258 33.9303 449.757 33.744 450.363 33.744C450.97 33.744 451.464 33.9303 451.845 34.303C452.235 34.6757 452.43 35.1913 452.43 35.85C452.43 36.5173 452.235 37.0373 451.845 37.41C451.464 37.7827 450.97 37.969 450.363 37.969C449.757 37.969 449.258 37.7827 448.868 37.41C448.487 37.0373 448.296 36.5173 448.296 35.85ZM456.642 33.9L451.533 43H449.765L454.861 33.9H456.642ZM450.35 34.836C449.874 34.836 449.635 35.174 449.635 35.85C449.635 36.5347 449.874 36.877 450.35 36.877C450.584 36.877 450.766 36.7947 450.896 36.63C451.026 36.4567 451.091 36.1967 451.091 35.85C451.091 35.174 450.844 34.836 450.35 34.836ZM454.003 41.037C454.003 40.3697 454.194 39.854 454.575 39.49C454.965 39.1173 455.464 38.931 456.07 38.931C456.677 38.931 457.167 39.1173 457.539 39.49C457.921 39.854 458.111 40.3697 458.111 41.037C458.111 41.7043 457.921 42.2243 457.539 42.597C457.167 42.9697 456.677 43.156 456.07 43.156C455.455 43.156 454.957 42.9697 454.575 42.597C454.194 42.2243 454.003 41.7043 454.003 41.037ZM456.057 40.023C455.563 40.023 455.316 40.361 455.316 41.037C455.316 41.7217 455.563 42.064 456.057 42.064C456.543 42.064 456.785 41.7217 456.785 41.037C456.785 40.361 456.543 40.023 456.057 40.023Z" fill="white" fill-opacity="0.8"/>
<rect x="0.220703" width="157" height="55" fill="white" fill-opacity="0.33"/>
<rect x="0.220703" width="5" height="55" fill="#F1426D"/>
<path d="M243.625 84.324C243.625 84.996 243.463 85.626 243.139 86.214C242.827 86.802 242.329 87.276 241.645 87.636C240.973 87.996 240.121 88.176 239.089 88.176H236.983V93H234.463V80.436H239.089C240.061 80.436 240.889 80.604 241.573 80.94C242.257 81.276 242.767 81.738 243.103 82.326C243.451 82.914 243.625 83.58 243.625 84.324ZM238.981 86.142C239.677 86.142 240.193 85.986 240.529 85.674C240.865 85.35 241.033 84.9 241.033 84.324C241.033 83.1 240.349 82.488 238.981 82.488H236.983V86.142H238.981ZM247.934 79.68V93H245.414V79.68H247.934ZM249.776 87.978C249.776 86.97 249.974 86.076 250.37 85.296C250.778 84.516 251.324 83.916 252.008 83.496C252.704 83.076 253.478 82.866 254.33 82.866C255.074 82.866 255.722 83.016 256.274 83.316C256.838 83.616 257.288 83.994 257.624 84.45V83.028H260.162V93H257.624V91.542C257.3 92.01 256.85 92.4 256.274 92.712C255.71 93.012 255.056 93.162 254.312 93.162C253.472 93.162 252.704 92.946 252.008 92.514C251.324 92.082 250.778 91.476 250.37 90.696C249.974 89.904 249.776 88.998 249.776 87.978ZM257.624 88.014C257.624 87.402 257.504 86.88 257.264 86.448C257.024 86.004 256.7 85.668 256.292 85.44C255.884 85.2 255.446 85.08 254.978 85.08C254.51 85.08 254.078 85.194 253.682 85.422C253.286 85.65 252.962 85.986 252.71 86.43C252.47 86.862 252.35 87.378 252.35 87.978C252.35 88.578 252.47 89.106 252.71 89.562C252.962 90.006 253.286 90.348 253.682 90.588C254.09 90.828 254.522 90.948 254.978 90.948C255.446 90.948 255.884 90.834 256.292 90.606C256.7 90.366 257.024 90.03 257.264 89.598C257.504 89.154 257.624 88.626 257.624 88.014ZM272.163 83.028L265.989 97.716H263.307L265.467 92.748L261.471 83.028H264.297L266.871 89.994L269.481 83.028H272.163ZM282.683 84.324C282.683 84.996 282.521 85.626 282.197 86.214C281.885 86.802 281.387 87.276 280.703 87.636C280.031 87.996 279.179 88.176 278.147 88.176H276.041V93H273.521V80.436H278.147C279.119 80.436 279.947 80.604 280.631 80.94C281.315 81.276 281.825 81.738 282.161 82.326C282.509 82.914 282.683 83.58 282.683 84.324ZM278.039 86.142C278.735 86.142 279.251 85.986 279.587 85.674C279.923 85.35 280.091 84.9 280.091 84.324C280.091 83.1 279.407 82.488 278.039 82.488H276.041V86.142H278.039ZM283.824 87.978C283.824 86.97 284.022 86.076 284.418 85.296C284.826 84.516 285.372 83.916 286.056 83.496C286.752 83.076 287.526 82.866 288.378 82.866C289.122 82.866 289.77 83.016 290.322 83.316C290.886 83.616 291.336 83.994 291.672 84.45V83.028H294.21V93H291.672V91.542C291.348 92.01 290.898 92.4 290.322 92.712C289.758 93.012 289.104 93.162 288.36 93.162C287.52 93.162 286.752 92.946 286.056 92.514C285.372 92.082 284.826 91.476 284.418 90.696C284.022 89.904 283.824 88.998 283.824 87.978ZM291.672 88.014C291.672 87.402 291.552 86.88 291.312 86.448C291.072 86.004 290.748 85.668 290.34 85.44C289.932 85.2 289.494 85.08 289.026 85.08C288.558 85.08 288.126 85.194 287.73 85.422C287.334 85.65 287.01 85.986 286.758 86.43C286.518 86.862 286.398 87.378 286.398 87.978C286.398 88.578 286.518 89.106 286.758 89.562C287.01 90.006 287.334 90.348 287.73 90.588C288.138 90.828 288.57 90.948 289.026 90.948C289.494 90.948 289.932 90.834 290.34 90.606C290.748 90.366 291.072 90.03 291.312 89.598C291.552 89.154 291.672 88.626 291.672 88.014ZM296.024 87.978C296.024 86.97 296.222 86.076 296.618 85.296C297.026 84.516 297.578 83.916 298.274 83.496C298.97 83.076 299.744 82.866 300.596 82.866C301.244 82.866 301.862 83.01 302.45 83.298C303.038 83.574 303.506 83.946 303.854 84.414V79.68H306.41V93H303.854V91.524C303.542 92.016 303.104 92.412 302.54 92.712C301.976 93.012 301.322 93.162 300.578 93.162C299.738 93.162 298.97 92.946 298.274 92.514C297.578 92.082 297.026 91.476 296.618 90.696C296.222 89.904 296.024 88.998 296.024 87.978ZM303.872 88.014C303.872 87.402 303.752 86.88 303.512 86.448C303.272 86.004 302.948 85.668 302.54 85.44C302.132 85.2 301.694 85.08 301.226 85.08C300.758 85.08 300.326 85.194 299.93 85.422C299.534 85.65 299.21 85.986 298.958 86.43C298.718 86.862 298.598 87.378 298.598 87.978C298.598 88.578 298.718 89.106 298.958 89.562C299.21 90.006 299.534 90.348 299.93 90.588C300.338 90.828 300.77 90.948 301.226 90.948C301.694 90.948 302.132 90.834 302.54 90.606C302.948 90.366 303.272 90.03 303.512 89.598C303.752 89.154 303.872 88.626 303.872 88.014ZM321.71 80.436V82.47H318.362V93H315.842V82.47H312.494V80.436H321.71ZM332.819 87.798C332.819 88.158 332.795 88.482 332.747 88.77H325.457C325.517 89.49 325.769 90.054 326.213 90.462C326.657 90.87 327.203 91.074 327.851 91.074C328.787 91.074 329.453 90.672 329.849 89.868H332.567C332.279 90.828 331.727 91.62 330.911 92.244C330.095 92.856 329.093 93.162 327.905 93.162C326.945 93.162 326.081 92.952 325.313 92.532C324.557 92.1 323.963 91.494 323.531 90.714C323.111 89.934 322.901 89.034 322.901 88.014C322.901 86.982 323.111 86.076 323.531 85.296C323.951 84.516 324.539 83.916 325.295 83.496C326.051 83.076 326.921 82.866 327.905 82.866C328.853 82.866 329.699 83.07 330.443 83.478C331.199 83.886 331.781 84.468 332.189 85.224C332.609 85.968 332.819 86.826 332.819 87.798ZM330.209 87.078C330.197 86.43 329.963 85.914 329.507 85.53C329.051 85.134 328.493 84.936 327.833 84.936C327.209 84.936 326.681 85.128 326.249 85.512C325.829 85.884 325.571 86.406 325.475 87.078H330.209ZM334.01 87.978C334.01 86.97 334.208 86.076 334.604 85.296C335.012 84.516 335.558 83.916 336.242 83.496C336.938 83.076 337.712 82.866 338.564 82.866C339.308 82.866 339.956 83.016 340.508 83.316C341.072 83.616 341.522 83.994 341.858 84.45V83.028H344.396V93H341.858V91.542C341.534 92.01 341.084 92.4 340.508 92.712C339.944 93.012 339.29 93.162 338.546 93.162C337.706 93.162 336.938 92.946 336.242 92.514C335.558 92.082 335.012 91.476 334.604 90.696C334.208 89.904 334.01 88.998 334.01 87.978ZM341.858 88.014C341.858 87.402 341.738 86.88 341.498 86.448C341.258 86.004 340.934 85.668 340.526 85.44C340.118 85.2 339.68 85.08 339.212 85.08C338.744 85.08 338.312 85.194 337.916 85.422C337.52 85.65 337.196 85.986 336.944 86.43C336.704 86.862 336.584 87.378 336.584 87.978C336.584 88.578 336.704 89.106 336.944 89.562C337.196 90.006 337.52 90.348 337.916 90.588C338.324 90.828 338.756 90.948 339.212 90.948C339.68 90.948 340.118 90.834 340.526 90.606C340.934 90.366 341.258 90.03 341.498 89.598C341.738 89.154 341.858 88.626 341.858 88.014ZM359.241 82.884C360.465 82.884 361.449 83.262 362.193 84.018C362.949 84.762 363.327 85.806 363.327 87.15V93H360.807V87.492C360.807 86.712 360.609 86.118 360.213 85.71C359.817 85.29 359.277 85.08 358.593 85.08C357.909 85.08 357.363 85.29 356.955 85.71C356.559 86.118 356.361 86.712 356.361 87.492V93H353.841V87.492C353.841 86.712 353.643 86.118 353.247 85.71C352.851 85.29 352.311 85.08 351.627 85.08C350.931 85.08 350.379 85.29 349.971 85.71C349.575 86.118 349.377 86.712 349.377 87.492V93H346.857V83.028H349.377V84.234C349.701 83.814 350.115 83.484 350.619 83.244C351.135 83.004 351.699 82.884 352.311 82.884C353.091 82.884 353.787 83.052 354.399 83.388C355.011 83.712 355.485 84.18 355.821 84.792C356.145 84.216 356.613 83.754 357.225 83.406C357.849 83.058 358.521 82.884 359.241 82.884Z" fill="white"/>
<path d="M233.689 108.2V106.523H236.822V116H234.95V108.2H233.689ZM238.62 111.138C238.62 109.639 238.888 108.464 239.426 107.615C239.972 106.766 240.873 106.341 242.13 106.341C243.386 106.341 244.283 106.766 244.821 107.615C245.367 108.464 245.64 109.639 245.64 111.138C245.64 112.646 245.367 113.829 244.821 114.687C244.283 115.545 243.386 115.974 242.13 115.974C240.873 115.974 239.972 115.545 239.426 114.687C238.888 113.829 238.62 112.646 238.62 111.138ZM243.846 111.138C243.846 110.497 243.802 109.959 243.716 109.526C243.638 109.084 243.473 108.724 243.222 108.447C242.979 108.17 242.615 108.031 242.13 108.031C241.644 108.031 241.276 108.17 241.025 108.447C240.782 108.724 240.617 109.084 240.531 109.526C240.453 109.959 240.414 110.497 240.414 111.138C240.414 111.797 240.453 112.351 240.531 112.802C240.609 113.244 240.773 113.604 241.025 113.881C241.276 114.15 241.644 114.284 242.13 114.284C242.615 114.284 242.983 114.15 243.235 113.881C243.486 113.604 243.651 113.244 243.729 112.802C243.807 112.351 243.846 111.797 243.846 111.138ZM246.816 108.85C246.816 108.191 247.007 107.676 247.388 107.303C247.778 106.93 248.276 106.744 248.883 106.744C249.49 106.744 249.984 106.93 250.365 107.303C250.755 107.676 250.95 108.191 250.95 108.85C250.95 109.517 250.755 110.037 250.365 110.41C249.984 110.783 249.49 110.969 248.883 110.969C248.276 110.969 247.778 110.783 247.388 110.41C247.007 110.037 246.816 109.517 246.816 108.85ZM255.162 106.9L250.053 116H248.285L253.381 106.9H255.162ZM248.87 107.836C248.393 107.836 248.155 108.174 248.155 108.85C248.155 109.535 248.393 109.877 248.87 109.877C249.104 109.877 249.286 109.795 249.416 109.63C249.546 109.457 249.611 109.197 249.611 108.85C249.611 108.174 249.364 107.836 248.87 107.836ZM252.523 114.037C252.523 113.37 252.714 112.854 253.095 112.49C253.485 112.117 253.983 111.931 254.59 111.931C255.197 111.931 255.686 112.117 256.059 112.49C256.44 112.854 256.631 113.37 256.631 114.037C256.631 114.704 256.44 115.224 256.059 115.597C255.686 115.97 255.197 116.156 254.59 116.156C253.975 116.156 253.476 115.97 253.095 115.597C252.714 115.224 252.523 114.704 252.523 114.037ZM254.577 113.023C254.083 113.023 253.836 113.361 253.836 114.037C253.836 114.722 254.083 115.064 254.577 115.064C255.062 115.064 255.305 114.722 255.305 114.037C255.305 113.361 255.062 113.023 254.577 113.023Z" fill="white" fill-opacity="0.8"/>
<rect x="0.220703" y="73" width="5" height="55" fill="#FF8099"/>
<path d="M243.625 162.324C243.625 162.996 243.463 163.626 243.139 164.214C242.827 164.802 242.329 165.276 241.645 165.636C240.973 165.996 240.121 166.176 239.089 166.176H236.983V171H234.463V158.436H239.089C240.061 158.436 240.889 158.604 241.573 158.94C242.257 159.276 242.767 159.738 243.103 160.326C243.451 160.914 243.625 161.58 243.625 162.324ZM238.981 164.142C239.677 164.142 240.193 163.986 240.529 163.674C240.865 163.35 241.033 162.9 241.033 162.324C241.033 161.1 240.349 160.488 238.981 160.488H236.983V164.142H238.981ZM254.828 161.028V171H252.29V169.74C251.966 170.172 251.54 170.514 251.012 170.766C250.496 171.006 249.932 171.126 249.32 171.126C248.54 171.126 247.85 170.964 247.25 170.64C246.65 170.304 246.176 169.818 245.828 169.182C245.492 168.534 245.324 167.766 245.324 166.878V161.028H247.844V166.518C247.844 167.31 248.042 167.922 248.438 168.354C248.834 168.774 249.374 168.984 250.058 168.984C250.754 168.984 251.3 168.774 251.696 168.354C252.092 167.922 252.29 167.31 252.29 166.518V161.028H254.828ZM259.834 162.486C260.158 162.006 260.602 161.616 261.166 161.316C261.742 161.016 262.396 160.866 263.128 160.866C263.98 160.866 264.748 161.076 265.432 161.496C266.128 161.916 266.674 162.516 267.07 163.296C267.478 164.064 267.682 164.958 267.682 165.978C267.682 166.998 267.478 167.904 267.07 168.696C266.674 169.476 266.128 170.082 265.432 170.514C264.748 170.946 263.98 171.162 263.128 171.162C262.384 171.162 261.73 171.018 261.166 170.73C260.614 170.43 260.17 170.046 259.834 169.578V171H257.314V157.68H259.834V162.486ZM265.108 165.978C265.108 165.378 264.982 164.862 264.73 164.43C264.49 163.986 264.166 163.65 263.758 163.422C263.362 163.194 262.93 163.08 262.462 163.08C262.006 163.08 261.574 163.2 261.166 163.44C260.77 163.668 260.446 164.004 260.194 164.448C259.954 164.892 259.834 165.414 259.834 166.014C259.834 166.614 259.954 167.136 260.194 167.58C260.446 168.024 260.77 168.366 261.166 168.606C261.574 168.834 262.006 168.948 262.462 168.948C262.93 168.948 263.362 168.828 263.758 168.588C264.166 168.348 264.49 168.006 264.73 167.562C264.982 167.118 265.108 166.59 265.108 165.978ZM272.033 157.68V171H269.513V157.68H272.033ZM275.801 159.84C275.357 159.84 274.985 159.702 274.685 159.426C274.397 159.138 274.253 158.784 274.253 158.364C274.253 157.944 274.397 157.596 274.685 157.32C274.985 157.032 275.357 156.888 275.801 156.888C276.245 156.888 276.611 157.032 276.899 157.32C277.199 157.596 277.349 157.944 277.349 158.364C277.349 158.784 277.199 159.138 276.899 159.426C276.611 159.702 276.245 159.84 275.801 159.84ZM277.043 161.028V171H274.523V161.028H277.043ZM278.885 166.014C278.885 164.982 279.095 164.082 279.515 163.314C279.935 162.534 280.517 161.934 281.261 161.514C282.005 161.082 282.857 160.866 283.817 160.866C285.053 160.866 286.073 161.178 286.877 161.802C287.693 162.414 288.239 163.278 288.515 164.394H285.797C285.653 163.962 285.407 163.626 285.059 163.386C284.723 163.134 284.303 163.008 283.799 163.008C283.079 163.008 282.509 163.272 282.089 163.8C281.669 164.316 281.459 165.054 281.459 166.014C281.459 166.962 281.669 167.7 282.089 168.228C282.509 168.744 283.079 169.002 283.799 169.002C284.819 169.002 285.485 168.546 285.797 167.634H288.515C288.239 168.714 287.693 169.572 286.877 170.208C286.061 170.844 285.041 171.162 283.817 171.162C282.857 171.162 282.005 170.952 281.261 170.532C280.517 170.1 279.935 169.5 279.515 168.732C279.095 167.952 278.885 167.046 278.885 166.014ZM298.988 171.126C298.112 171.126 297.32 170.976 296.612 170.676C295.916 170.376 295.364 169.944 294.956 169.38C294.548 168.816 294.338 168.15 294.326 167.382H297.026C297.062 167.898 297.242 168.306 297.566 168.606C297.902 168.906 298.358 169.056 298.934 169.056C299.522 169.056 299.984 168.918 300.32 168.642C300.656 168.354 300.824 167.982 300.824 167.526C300.824 167.154 300.71 166.848 300.482 166.608C300.254 166.368 299.966 166.182 299.618 166.05C299.282 165.906 298.814 165.75 298.214 165.582C297.398 165.342 296.732 165.108 296.216 164.88C295.712 164.64 295.274 164.286 294.902 163.818C294.542 163.338 294.362 162.702 294.362 161.91C294.362 161.166 294.548 160.518 294.92 159.966C295.292 159.414 295.814 158.994 296.486 158.706C297.158 158.406 297.926 158.256 298.79 158.256C300.086 158.256 301.136 158.574 301.94 159.21C302.756 159.834 303.206 160.71 303.29 161.838H300.518C300.494 161.406 300.308 161.052 299.96 160.776C299.624 160.488 299.174 160.344 298.61 160.344C298.118 160.344 297.722 160.47 297.422 160.722C297.134 160.974 296.99 161.34 296.99 161.82C296.99 162.156 297.098 162.438 297.314 162.666C297.542 162.882 297.818 163.062 298.142 163.206C298.478 163.338 298.946 163.494 299.546 163.674C300.362 163.914 301.028 164.154 301.544 164.394C302.06 164.634 302.504 164.994 302.876 165.474C303.248 165.954 303.434 166.584 303.434 167.364C303.434 168.036 303.26 168.66 302.912 169.236C302.564 169.812 302.054 170.274 301.382 170.622C300.71 170.958 299.912 171.126 298.988 171.126ZM304.971 165.978C304.971 164.97 305.169 164.076 305.565 163.296C305.973 162.516 306.519 161.916 307.203 161.496C307.899 161.076 308.673 160.866 309.525 160.866C310.269 160.866 310.917 161.016 311.469 161.316C312.033 161.616 312.483 161.994 312.819 162.45V161.028H315.357V171H312.819V169.542C312.495 170.01 312.045 170.4 311.469 170.712C310.905 171.012 310.251 171.162 309.507 171.162C308.667 171.162 307.899 170.946 307.203 170.514C306.519 170.082 305.973 169.476 305.565 168.696C305.169 167.904 304.971 166.998 304.971 165.978ZM312.819 166.014C312.819 165.402 312.699 164.88 312.459 164.448C312.219 164.004 311.895 163.668 311.487 163.44C311.079 163.2 310.641 163.08 310.173 163.08C309.705 163.08 309.273 163.194 308.877 163.422C308.481 163.65 308.157 163.986 307.905 164.43C307.665 164.862 307.545 165.378 307.545 165.978C307.545 166.578 307.665 167.106 307.905 167.562C308.157 168.006 308.481 168.348 308.877 168.588C309.285 168.828 309.717 168.948 310.173 168.948C310.641 168.948 311.079 168.834 311.487 168.606C311.895 168.366 312.219 168.03 312.459 167.598C312.699 167.154 312.819 166.626 312.819 166.014ZM320.338 157.68V171H317.818V157.68H320.338ZM332.098 165.798C332.098 166.158 332.074 166.482 332.026 166.77H324.736C324.796 167.49 325.048 168.054 325.492 168.462C325.936 168.87 326.482 169.074 327.13 169.074C328.066 169.074 328.732 168.672 329.128 167.868H331.846C331.558 168.828 331.006 169.62 330.19 170.244C329.374 170.856 328.372 171.162 327.184 171.162C326.224 171.162 325.36 170.952 324.592 170.532C323.836 170.1 323.242 169.494 322.81 168.714C322.39 167.934 322.18 167.034 322.18 166.014C322.18 164.982 322.39 164.076 322.81 163.296C323.23 162.516 323.818 161.916 324.574 161.496C325.33 161.076 326.2 160.866 327.184 160.866C328.132 160.866 328.978 161.07 329.722 161.478C330.478 161.886 331.06 162.468 331.468 163.224C331.888 163.968 332.098 164.826 332.098 165.798ZM329.488 165.078C329.476 164.43 329.242 163.914 328.786 163.53C328.33 163.134 327.772 162.936 327.112 162.936C326.488 162.936 325.96 163.128 325.528 163.512C325.108 163.884 324.85 164.406 324.754 165.078H329.488Z" fill="white"/>
<path d="M233.832 192.154V190.724L238.083 184.64H240.202V190.568H241.346V192.154H240.202V194H238.382V192.154H233.832ZM238.499 186.59L235.834 190.568H238.499V186.59ZM242.296 186.85C242.296 186.191 242.487 185.676 242.868 185.303C243.258 184.93 243.757 184.744 244.363 184.744C244.97 184.744 245.464 184.93 245.845 185.303C246.235 185.676 246.43 186.191 246.43 186.85C246.43 187.517 246.235 188.037 245.845 188.41C245.464 188.783 244.97 188.969 244.363 188.969C243.757 188.969 243.258 188.783 242.868 188.41C242.487 188.037 242.296 187.517 242.296 186.85ZM250.642 184.9L245.533 194H243.765L248.861 184.9H250.642ZM244.35 185.836C243.874 185.836 243.635 186.174 243.635 186.85C243.635 187.535 243.874 187.877 244.35 187.877C244.584 187.877 244.766 187.795 244.896 187.63C245.026 187.457 245.091 187.197 245.091 186.85C245.091 186.174 244.844 185.836 244.35 185.836ZM248.003 192.037C248.003 191.37 248.194 190.854 248.575 190.49C248.965 190.117 249.464 189.931 250.07 189.931C250.677 189.931 251.167 190.117 251.539 190.49C251.921 190.854 252.111 191.37 252.111 192.037C252.111 192.704 251.921 193.224 251.539 193.597C251.167 193.97 250.677 194.156 250.07 194.156C249.455 194.156 248.957 193.97 248.575 193.597C248.194 193.224 248.003 192.704 248.003 192.037ZM250.057 191.023C249.563 191.023 249.316 191.361 249.316 192.037C249.316 192.722 249.563 193.064 250.057 193.064C250.543 193.064 250.785 192.722 250.785 192.037C250.785 191.361 250.543 191.023 250.057 191.023Z" fill="white" fill-opacity="0.8"/>
<path d="M236.983 247.002H241.123V249H234.463V236.436H236.983V247.002ZM244.002 237.84C243.558 237.84 243.186 237.702 242.886 237.426C242.598 237.138 242.454 236.784 242.454 236.364C242.454 235.944 242.598 235.596 242.886 235.32C243.186 235.032 243.558 234.888 244.002 234.888C244.446 234.888 244.812 235.032 245.1 235.32C245.4 235.596 245.55 235.944 245.55 236.364C245.55 236.784 245.4 237.138 245.1 237.426C244.812 237.702 244.446 237.84 244.002 237.84ZM245.244 239.028V249H242.724V239.028H245.244ZM247.086 243.996C247.086 243 247.29 242.118 247.698 241.35C248.118 240.57 248.682 239.964 249.39 239.532C250.098 239.1 250.878 238.884 251.73 238.884C252.438 238.884 253.062 239.022 253.602 239.298C254.154 239.562 254.598 239.904 254.934 240.324V239.028H257.472V253.752H254.934V247.632C254.598 248.064 254.148 248.424 253.584 248.712C253.02 249 252.384 249.144 251.676 249.144C250.836 249.144 250.062 248.928 249.354 248.496C248.658 248.052 248.106 247.44 247.698 246.66C247.29 245.88 247.086 244.992 247.086 243.996ZM254.934 244.014C254.934 243.402 254.808 242.874 254.556 242.43C254.304 241.986 253.974 241.65 253.566 241.422C253.17 241.194 252.744 241.08 252.288 241.08C251.844 241.08 251.418 241.194 251.01 241.422C250.614 241.65 250.29 241.986 250.038 242.43C249.786 242.862 249.66 243.384 249.66 243.996C249.66 244.608 249.786 245.142 250.038 245.598C250.29 246.042 250.614 246.378 251.01 246.606C251.418 246.834 251.844 246.948 252.288 246.948C252.744 246.948 253.17 246.834 253.566 246.606C253.974 246.378 254.304 246.042 254.556 245.598C254.808 245.154 254.934 244.626 254.934 244.014ZM269.347 239.028V249H266.809V247.74C266.485 248.172 266.059 248.514 265.531 248.766C265.015 249.006 264.451 249.126 263.839 249.126C263.059 249.126 262.369 248.964 261.769 248.64C261.169 248.304 260.695 247.818 260.347 247.182C260.011 246.534 259.843 245.766 259.843 244.878V239.028H262.363V244.518C262.363 245.31 262.561 245.922 262.957 246.354C263.353 246.774 263.893 246.984 264.577 246.984C265.273 246.984 265.819 246.774 266.215 246.354C266.611 245.922 266.809 245.31 266.809 244.518V239.028H269.347ZM273.112 237.84C272.668 237.84 272.296 237.702 271.996 237.426C271.708 237.138 271.564 236.784 271.564 236.364C271.564 235.944 271.708 235.596 271.996 235.32C272.296 235.032 272.668 234.888 273.112 234.888C273.556 234.888 273.922 235.032 274.21 235.32C274.51 235.596 274.66 235.944 274.66 236.364C274.66 236.784 274.51 237.138 274.21 237.426C273.922 237.702 273.556 237.84 273.112 237.84ZM274.354 239.028V249H271.834V239.028H274.354ZM276.196 243.978C276.196 242.97 276.394 242.076 276.79 241.296C277.198 240.516 277.75 239.916 278.446 239.496C279.142 239.076 279.916 238.866 280.768 238.866C281.416 238.866 282.034 239.01 282.622 239.298C283.21 239.574 283.678 239.946 284.026 240.414V235.68H286.582V249H284.026V247.524C283.714 248.016 283.276 248.412 282.712 248.712C282.148 249.012 281.494 249.162 280.75 249.162C279.91 249.162 279.142 248.946 278.446 248.514C277.75 248.082 277.198 247.476 276.79 246.696C276.394 245.904 276.196 244.998 276.196 243.978ZM284.044 244.014C284.044 243.402 283.924 242.88 283.684 242.448C283.444 242.004 283.12 241.668 282.712 241.44C282.304 241.2 281.866 241.08 281.398 241.08C280.93 241.08 280.498 241.194 280.102 241.422C279.706 241.65 279.382 241.986 279.13 242.43C278.89 242.862 278.77 243.378 278.77 243.978C278.77 244.578 278.89 245.106 279.13 245.562C279.382 246.006 279.706 246.348 280.102 246.588C280.51 246.828 280.942 246.948 281.398 246.948C281.866 246.948 282.304 246.834 282.712 246.606C283.12 246.366 283.444 246.03 283.684 245.598C283.924 245.154 284.044 244.626 284.044 244.014ZM290.321 237.84C289.877 237.84 289.505 237.702 289.205 237.426C288.917 237.138 288.773 236.784 288.773 236.364C288.773 235.944 288.917 235.596 289.205 235.32C289.505 235.032 289.877 234.888 290.321 234.888C290.765 234.888 291.131 235.032 291.419 235.32C291.719 235.596 291.869 235.944 291.869 236.364C291.869 236.784 291.719 237.138 291.419 237.426C291.131 237.702 290.765 237.84 290.321 237.84ZM291.563 239.028V249H289.043V239.028H291.563ZM296.987 241.098V245.922C296.987 246.258 297.065 246.504 297.221 246.66C297.389 246.804 297.665 246.876 298.049 246.876H299.219V249H297.635C295.511 249 294.449 247.968 294.449 245.904V241.098H293.261V239.028H294.449V236.562H296.987V239.028H299.219V241.098H296.987ZM310.571 239.028L304.397 253.716H301.715L303.875 248.748L299.879 239.028H302.705L305.279 245.994L307.889 239.028H310.571Z" fill="white"/>
<path d="M240.28 264.096H236.068V266.319C236.25 266.094 236.51 265.912 236.848 265.773C237.186 265.626 237.545 265.552 237.927 265.552C238.62 265.552 239.188 265.704 239.63 266.007C240.072 266.31 240.392 266.7 240.592 267.177C240.791 267.645 240.891 268.148 240.891 268.685C240.891 269.682 240.605 270.483 240.033 271.09C239.469 271.697 238.663 272 237.615 272C236.627 272 235.838 271.753 235.249 271.259C234.659 270.765 234.326 270.119 234.248 269.322H236.016C236.094 269.669 236.267 269.946 236.536 270.154C236.813 270.362 237.164 270.466 237.589 270.466C238.1 270.466 238.486 270.306 238.746 269.985C239.006 269.664 239.136 269.24 239.136 268.711C239.136 268.174 239.001 267.766 238.733 267.489C238.473 267.203 238.087 267.06 237.576 267.06C237.212 267.06 236.908 267.151 236.666 267.333C236.423 267.515 236.25 267.758 236.146 268.061H234.404V262.497H240.28V264.096ZM242.068 264.85C242.068 264.191 242.259 263.676 242.64 263.303C243.03 262.93 243.528 262.744 244.135 262.744C244.742 262.744 245.236 262.93 245.617 263.303C246.007 263.676 246.202 264.191 246.202 264.85C246.202 265.517 246.007 266.037 245.617 266.41C245.236 266.783 244.742 266.969 244.135 266.969C243.528 266.969 243.03 266.783 242.64 266.41C242.259 266.037 242.068 265.517 242.068 264.85ZM250.414 262.9L245.305 272H243.537L248.633 262.9H250.414ZM244.122 263.836C243.645 263.836 243.407 264.174 243.407 264.85C243.407 265.535 243.645 265.877 244.122 265.877C244.356 265.877 244.538 265.795 244.668 265.63C244.798 265.457 244.863 265.197 244.863 264.85C244.863 264.174 244.616 263.836 244.122 263.836ZM247.775 270.037C247.775 269.37 247.966 268.854 248.347 268.49C248.737 268.117 249.235 267.931 249.842 267.931C250.449 267.931 250.938 268.117 251.311 268.49C251.692 268.854 251.883 269.37 251.883 270.037C251.883 270.704 251.692 271.224 251.311 271.597C250.938 271.97 250.449 272.156 249.842 272.156C249.227 272.156 248.728 271.97 248.347 271.597C247.966 271.224 247.775 270.704 247.775 270.037ZM249.829 269.023C249.335 269.023 249.088 269.361 249.088 270.037C249.088 270.722 249.335 271.064 249.829 271.064C250.314 271.064 250.557 270.722 250.557 270.037C250.557 269.361 250.314 269.023 249.829 269.023Z" fill="white" fill-opacity="0.8"/>
<rect x="0.220703" y="151" width="5" height="55" fill="#1ED9F3"/>
<path d="M449.625 84.324C449.625 84.996 449.463 85.626 449.139 86.214C448.827 86.802 448.329 87.276 447.645 87.636C446.973 87.996 446.121 88.176 445.089 88.176H442.983V93H440.463V80.436H445.089C446.061 80.436 446.889 80.604 447.573 80.94C448.257 81.276 448.767 81.738 449.103 82.326C449.451 82.914 449.625 83.58 449.625 84.324ZM444.981 86.142C445.677 86.142 446.193 85.986 446.529 85.674C446.865 85.35 447.033 84.9 447.033 84.324C447.033 83.1 446.349 82.488 444.981 82.488H442.983V86.142H444.981ZM453.934 84.576C454.258 84.048 454.678 83.634 455.194 83.334C455.722 83.034 456.322 82.884 456.994 82.884V85.53H456.328C455.536 85.53 454.936 85.716 454.528 86.088C454.132 86.46 453.934 87.108 453.934 88.032V93H451.414V83.028H453.934V84.576ZM459.969 81.84C459.525 81.84 459.153 81.702 458.853 81.426C458.565 81.138 458.421 80.784 458.421 80.364C458.421 79.944 458.565 79.596 458.853 79.32C459.153 79.032 459.525 78.888 459.969 78.888C460.413 78.888 460.779 79.032 461.067 79.32C461.367 79.596 461.517 79.944 461.517 80.364C461.517 80.784 461.367 81.138 461.067 81.426C460.779 81.702 460.413 81.84 459.969 81.84ZM461.211 83.028V93H458.691V83.028H461.211ZM467.859 90.678L470.379 83.028H473.061L469.371 93H466.311L462.639 83.028H465.339L467.859 90.678ZM473.828 87.978C473.828 86.97 474.026 86.076 474.422 85.296C474.83 84.516 475.376 83.916 476.06 83.496C476.756 83.076 477.53 82.866 478.382 82.866C479.126 82.866 479.774 83.016 480.326 83.316C480.89 83.616 481.34 83.994 481.676 84.45V83.028H484.214V93H481.676V91.542C481.352 92.01 480.902 92.4 480.326 92.712C479.762 93.012 479.108 93.162 478.364 93.162C477.524 93.162 476.756 92.946 476.06 92.514C475.376 92.082 474.83 91.476 474.422 90.696C474.026 89.904 473.828 88.998 473.828 87.978ZM481.676 88.014C481.676 87.402 481.556 86.88 481.316 86.448C481.076 86.004 480.752 85.668 480.344 85.44C479.936 85.2 479.498 85.08 479.03 85.08C478.562 85.08 478.13 85.194 477.734 85.422C477.338 85.65 477.014 85.986 476.762 86.43C476.522 86.862 476.402 87.378 476.402 87.978C476.402 88.578 476.522 89.106 476.762 89.562C477.014 90.006 477.338 90.348 477.734 90.588C478.142 90.828 478.574 90.948 479.03 90.948C479.498 90.948 479.936 90.834 480.344 90.606C480.752 90.366 481.076 90.03 481.316 89.598C481.556 89.154 481.676 88.626 481.676 88.014ZM489.61 85.098V89.922C489.61 90.258 489.688 90.504 489.844 90.66C490.012 90.804 490.288 90.876 490.672 90.876H491.842V93H490.258C488.134 93 487.072 91.968 487.072 89.904V85.098H485.884V83.028H487.072V80.562H489.61V83.028H491.842V85.098H489.61ZM502.924 87.798C502.924 88.158 502.9 88.482 502.852 88.77H495.562C495.622 89.49 495.874 90.054 496.318 90.462C496.762 90.87 497.308 91.074 497.956 91.074C498.892 91.074 499.558 90.672 499.954 89.868H502.672C502.384 90.828 501.832 91.62 501.016 92.244C500.2 92.856 499.198 93.162 498.01 93.162C497.05 93.162 496.186 92.952 495.418 92.532C494.662 92.1 494.068 91.494 493.636 90.714C493.216 89.934 493.006 89.034 493.006 88.014C493.006 86.982 493.216 86.076 493.636 85.296C494.056 84.516 494.644 83.916 495.4 83.496C496.156 83.076 497.026 82.866 498.01 82.866C498.958 82.866 499.804 83.07 500.548 83.478C501.304 83.886 501.886 84.468 502.294 85.224C502.714 85.968 502.924 86.826 502.924 87.798ZM500.314 87.078C500.302 86.43 500.068 85.914 499.612 85.53C499.156 85.134 498.598 84.936 497.938 84.936C497.314 84.936 496.786 85.128 496.354 85.512C495.934 85.884 495.676 86.406 495.58 87.078H500.314ZM513.391 93.126C512.515 93.126 511.723 92.976 511.015 92.676C510.319 92.376 509.767 91.944 509.359 91.38C508.951 90.816 508.741 90.15 508.729 89.382H511.429C511.465 89.898 511.645 90.306 511.969 90.606C512.305 90.906 512.761 91.056 513.337 91.056C513.925 91.056 514.387 90.918 514.723 90.642C515.059 90.354 515.227 89.982 515.227 89.526C515.227 89.154 515.113 88.848 514.885 88.608C514.657 88.368 514.369 88.182 514.021 88.05C513.685 87.906 513.217 87.75 512.617 87.582C511.801 87.342 511.135 87.108 510.619 86.88C510.115 86.64 509.677 86.286 509.305 85.818C508.945 85.338 508.765 84.702 508.765 83.91C508.765 83.166 508.951 82.518 509.323 81.966C509.695 81.414 510.217 80.994 510.889 80.706C511.561 80.406 512.329 80.256 513.193 80.256C514.489 80.256 515.539 80.574 516.343 81.21C517.159 81.834 517.609 82.71 517.693 83.838H514.921C514.897 83.406 514.711 83.052 514.363 82.776C514.027 82.488 513.577 82.344 513.013 82.344C512.521 82.344 512.125 82.47 511.825 82.722C511.537 82.974 511.393 83.34 511.393 83.82C511.393 84.156 511.501 84.438 511.717 84.666C511.945 84.882 512.221 85.062 512.545 85.206C512.881 85.338 513.349 85.494 513.949 85.674C514.765 85.914 515.431 86.154 515.947 86.394C516.463 86.634 516.907 86.994 517.279 87.474C517.651 87.954 517.837 88.584 517.837 89.364C517.837 90.036 517.663 90.66 517.315 91.236C516.967 91.812 516.457 92.274 515.785 92.622C515.113 92.958 514.315 93.126 513.391 93.126ZM519.373 87.978C519.373 86.97 519.571 86.076 519.967 85.296C520.375 84.516 520.921 83.916 521.605 83.496C522.301 83.076 523.075 82.866 523.927 82.866C524.671 82.866 525.319 83.016 525.871 83.316C526.435 83.616 526.885 83.994 527.221 84.45V83.028H529.759V93H527.221V91.542C526.897 92.01 526.447 92.4 525.871 92.712C525.307 93.012 524.653 93.162 523.909 93.162C523.069 93.162 522.301 92.946 521.605 92.514C520.921 92.082 520.375 91.476 519.967 90.696C519.571 89.904 519.373 88.998 519.373 87.978ZM527.221 88.014C527.221 87.402 527.101 86.88 526.861 86.448C526.621 86.004 526.297 85.668 525.889 85.44C525.481 85.2 525.043 85.08 524.575 85.08C524.107 85.08 523.675 85.194 523.279 85.422C522.883 85.65 522.559 85.986 522.307 86.43C522.067 86.862 521.947 87.378 521.947 87.978C521.947 88.578 522.067 89.106 522.307 89.562C522.559 90.006 522.883 90.348 523.279 90.588C523.687 90.828 524.119 90.948 524.575 90.948C525.043 90.948 525.481 90.834 525.889 90.606C526.297 90.366 526.621 90.03 526.861 89.598C527.101 89.154 527.221 88.626 527.221 88.014ZM534.741 79.68V93H532.221V79.68H534.741ZM546.5 87.798C546.5 88.158 546.476 88.482 546.428 88.77H539.138C539.198 89.49 539.45 90.054 539.894 90.462C540.338 90.87 540.884 91.074 541.532 91.074C542.468 91.074 543.134 90.672 543.53 89.868H546.248C545.96 90.828 545.408 91.62 544.592 92.244C543.776 92.856 542.774 93.162 541.586 93.162C540.626 93.162 539.762 92.952 538.994 92.532C538.238 92.1 537.644 91.494 537.212 90.714C536.792 89.934 536.582 89.034 536.582 88.014C536.582 86.982 536.792 86.076 537.212 85.296C537.632 84.516 538.22 83.916 538.976 83.496C539.732 83.076 540.602 82.866 541.586 82.866C542.534 82.866 543.38 83.07 544.124 83.478C544.88 83.886 545.462 84.468 545.87 85.224C546.29 85.968 546.5 86.826 546.5 87.798ZM543.89 87.078C543.878 86.43 543.644 85.914 543.188 85.53C542.732 85.134 542.174 84.936 541.514 84.936C540.89 84.936 540.362 85.128 539.93 85.512C539.51 85.884 539.252 86.406 539.156 87.078H543.89ZM559.757 86.556C560.465 86.688 561.047 87.042 561.503 87.618C561.959 88.194 562.187 88.854 562.187 89.598C562.187 90.27 562.019 90.864 561.683 91.38C561.359 91.884 560.885 92.28 560.261 92.568C559.637 92.856 558.899 93 558.047 93H552.629V80.436H557.813C558.665 80.436 559.397 80.574 560.009 80.85C560.633 81.126 561.101 81.51 561.413 82.002C561.737 82.494 561.899 83.052 561.899 83.676C561.899 84.408 561.701 85.02 561.305 85.512C560.921 86.004 560.405 86.352 559.757 86.556ZM555.149 85.62H557.453C558.053 85.62 558.515 85.488 558.839 85.224C559.163 84.948 559.325 84.558 559.325 84.054C559.325 83.55 559.163 83.16 558.839 82.884C558.515 82.608 558.053 82.47 557.453 82.47H555.149V85.62ZM557.687 90.948C558.299 90.948 558.773 90.804 559.109 90.516C559.457 90.228 559.631 89.82 559.631 89.292C559.631 88.752 559.451 88.332 559.091 88.032C558.731 87.72 558.245 87.564 557.633 87.564H555.149V90.948H557.687Z" fill="white"/>
<rect x="206.221" width="5" height="55" fill="#FFF1A7"/>
<rect x="206.221" y="73" width="5" height="55" fill="#E498FF"/>
<rect x="206.221" y="151" width="5" height="55" fill="#AF89FF"/>
<path d="M446.28 108.096H442.068V110.319C442.25 110.094 442.51 109.912 442.848 109.773C443.186 109.626 443.545 109.552 443.927 109.552C444.62 109.552 445.188 109.704 445.63 110.007C446.072 110.31 446.392 110.7 446.592 111.177C446.791 111.645 446.891 112.148 446.891 112.685C446.891 113.682 446.605 114.483 446.033 115.09C445.469 115.697 444.663 116 443.615 116C442.627 116 441.838 115.753 441.249 115.259C440.659 114.765 440.326 114.119 440.248 113.322H442.016C442.094 113.669 442.267 113.946 442.536 114.154C442.813 114.362 443.164 114.466 443.589 114.466C444.1 114.466 444.486 114.306 444.746 113.985C445.006 113.664 445.136 113.24 445.136 112.711C445.136 112.174 445.001 111.766 444.733 111.489C444.473 111.203 444.087 111.06 443.576 111.06C443.212 111.06 442.908 111.151 442.666 111.333C442.423 111.515 442.25 111.758 442.146 112.061H440.404V106.497H446.28V108.096ZM448.068 108.85C448.068 108.191 448.259 107.676 448.64 107.303C449.03 106.93 449.528 106.744 450.135 106.744C450.742 106.744 451.236 106.93 451.617 107.303C452.007 107.676 452.202 108.191 452.202 108.85C452.202 109.517 452.007 110.037 451.617 110.41C451.236 110.783 450.742 110.969 450.135 110.969C449.528 110.969 449.03 110.783 448.64 110.41C448.259 110.037 448.068 109.517 448.068 108.85ZM456.414 106.9L451.305 116H449.537L454.633 106.9H456.414ZM450.122 107.836C449.645 107.836 449.407 108.174 449.407 108.85C449.407 109.535 449.645 109.877 450.122 109.877C450.356 109.877 450.538 109.795 450.668 109.63C450.798 109.457 450.863 109.197 450.863 108.85C450.863 108.174 450.616 107.836 450.122 107.836ZM453.775 114.037C453.775 113.37 453.966 112.854 454.347 112.49C454.737 112.117 455.235 111.931 455.842 111.931C456.449 111.931 456.938 112.117 457.311 112.49C457.692 112.854 457.883 113.37 457.883 114.037C457.883 114.704 457.692 115.224 457.311 115.597C456.938 115.97 456.449 116.156 455.842 116.156C455.227 116.156 454.728 115.97 454.347 115.597C453.966 115.224 453.775 114.704 453.775 114.037ZM455.829 113.023C455.335 113.023 455.088 113.361 455.088 114.037C455.088 114.722 455.335 115.064 455.829 115.064C456.314 115.064 456.557 114.722 456.557 114.037C456.557 113.361 456.314 113.023 455.829 113.023Z" fill="white" fill-opacity="0.8"/>
<rect x="0.220703" y="229" width="5" height="55" fill="#3BFFDC"/>
<rect x="206.221" y="229" width="5" height="55" fill="#FAEBFF"/>
<path d="M449.625 162.324C449.625 162.996 449.463 163.626 449.139 164.214C448.827 164.802 448.329 165.276 447.645 165.636C446.973 165.996 446.121 166.176 445.089 166.176H442.983V171H440.463V158.436H445.089C446.061 158.436 446.889 158.604 447.573 158.94C448.257 159.276 448.767 159.738 449.103 160.326C449.451 160.914 449.625 161.58 449.625 162.324ZM444.981 164.142C445.677 164.142 446.193 163.986 446.529 163.674C446.865 163.35 447.033 162.9 447.033 162.324C447.033 161.1 446.349 160.488 444.981 160.488H442.983V164.142H444.981ZM453.934 162.576C454.258 162.048 454.678 161.634 455.194 161.334C455.722 161.034 456.322 160.884 456.994 160.884V163.53H456.328C455.536 163.53 454.936 163.716 454.528 164.088C454.132 164.46 453.934 165.108 453.934 166.032V171H451.414V161.028H453.934V162.576ZM459.969 159.84C459.525 159.84 459.153 159.702 458.853 159.426C458.565 159.138 458.421 158.784 458.421 158.364C458.421 157.944 458.565 157.596 458.853 157.32C459.153 157.032 459.525 156.888 459.969 156.888C460.413 156.888 460.779 157.032 461.067 157.32C461.367 157.596 461.517 157.944 461.517 158.364C461.517 158.784 461.367 159.138 461.067 159.426C460.779 159.702 460.413 159.84 459.969 159.84ZM461.211 161.028V171H458.691V161.028H461.211ZM467.859 168.678L470.379 161.028H473.061L469.371 171H466.311L462.639 161.028H465.339L467.859 168.678ZM473.828 165.978C473.828 164.97 474.026 164.076 474.422 163.296C474.83 162.516 475.376 161.916 476.06 161.496C476.756 161.076 477.53 160.866 478.382 160.866C479.126 160.866 479.774 161.016 480.326 161.316C480.89 161.616 481.34 161.994 481.676 162.45V161.028H484.214V171H481.676V169.542C481.352 170.01 480.902 170.4 480.326 170.712C479.762 171.012 479.108 171.162 478.364 171.162C477.524 171.162 476.756 170.946 476.06 170.514C475.376 170.082 474.83 169.476 474.422 168.696C474.026 167.904 473.828 166.998 473.828 165.978ZM481.676 166.014C481.676 165.402 481.556 164.88 481.316 164.448C481.076 164.004 480.752 163.668 480.344 163.44C479.936 163.2 479.498 163.08 479.03 163.08C478.562 163.08 478.13 163.194 477.734 163.422C477.338 163.65 477.014 163.986 476.762 164.43C476.522 164.862 476.402 165.378 476.402 165.978C476.402 166.578 476.522 167.106 476.762 167.562C477.014 168.006 477.338 168.348 477.734 168.588C478.142 168.828 478.574 168.948 479.03 168.948C479.498 168.948 479.936 168.834 480.344 168.606C480.752 168.366 481.076 168.03 481.316 167.598C481.556 167.154 481.676 166.626 481.676 166.014ZM489.61 163.098V167.922C489.61 168.258 489.688 168.504 489.844 168.66C490.012 168.804 490.288 168.876 490.672 168.876H491.842V171H490.258C488.134 171 487.072 169.968 487.072 167.904V163.098H485.884V161.028H487.072V158.562H489.61V161.028H491.842V163.098H489.61ZM502.924 165.798C502.924 166.158 502.9 166.482 502.852 166.77H495.562C495.622 167.49 495.874 168.054 496.318 168.462C496.762 168.87 497.308 169.074 497.956 169.074C498.892 169.074 499.558 168.672 499.954 167.868H502.672C502.384 168.828 501.832 169.62 501.016 170.244C500.2 170.856 499.198 171.162 498.01 171.162C497.05 171.162 496.186 170.952 495.418 170.532C494.662 170.1 494.068 169.494 493.636 168.714C493.216 167.934 493.006 167.034 493.006 166.014C493.006 164.982 493.216 164.076 493.636 163.296C494.056 162.516 494.644 161.916 495.4 161.496C496.156 161.076 497.026 160.866 498.01 160.866C498.958 160.866 499.804 161.07 500.548 161.478C501.304 161.886 501.886 162.468 502.294 163.224C502.714 163.968 502.924 164.826 502.924 165.798ZM500.314 165.078C500.302 164.43 500.068 163.914 499.612 163.53C499.156 163.134 498.598 162.936 497.938 162.936C497.314 162.936 496.786 163.128 496.354 163.512C495.934 163.884 495.676 164.406 495.58 165.078H500.314ZM513.391 171.126C512.515 171.126 511.723 170.976 511.015 170.676C510.319 170.376 509.767 169.944 509.359 169.38C508.951 168.816 508.741 168.15 508.729 167.382H511.429C511.465 167.898 511.645 168.306 511.969 168.606C512.305 168.906 512.761 169.056 513.337 169.056C513.925 169.056 514.387 168.918 514.723 168.642C515.059 168.354 515.227 167.982 515.227 167.526C515.227 167.154 515.113 166.848 514.885 166.608C514.657 166.368 514.369 166.182 514.021 166.05C513.685 165.906 513.217 165.75 512.617 165.582C511.801 165.342 511.135 165.108 510.619 164.88C510.115 164.64 509.677 164.286 509.305 163.818C508.945 163.338 508.765 162.702 508.765 161.91C508.765 161.166 508.951 160.518 509.323 159.966C509.695 159.414 510.217 158.994 510.889 158.706C511.561 158.406 512.329 158.256 513.193 158.256C514.489 158.256 515.539 158.574 516.343 159.21C517.159 159.834 517.609 160.71 517.693 161.838H514.921C514.897 161.406 514.711 161.052 514.363 160.776C514.027 160.488 513.577 160.344 513.013 160.344C512.521 160.344 512.125 160.47 511.825 160.722C511.537 160.974 511.393 161.34 511.393 161.82C511.393 162.156 511.501 162.438 511.717 162.666C511.945 162.882 512.221 163.062 512.545 163.206C512.881 163.338 513.349 163.494 513.949 163.674C514.765 163.914 515.431 164.154 515.947 164.394C516.463 164.634 516.907 164.994 517.279 165.474C517.651 165.954 517.837 166.584 517.837 167.364C517.837 168.036 517.663 168.66 517.315 169.236C516.967 169.812 516.457 170.274 515.785 170.622C515.113 170.958 514.315 171.126 513.391 171.126ZM519.373 165.978C519.373 164.97 519.571 164.076 519.967 163.296C520.375 162.516 520.921 161.916 521.605 161.496C522.301 161.076 523.075 160.866 523.927 160.866C524.671 160.866 525.319 161.016 525.871 161.316C526.435 161.616 526.885 161.994 527.221 162.45V161.028H529.759V171H527.221V169.542C526.897 170.01 526.447 170.4 525.871 170.712C525.307 171.012 524.653 171.162 523.909 171.162C523.069 171.162 522.301 170.946 521.605 170.514C520.921 170.082 520.375 169.476 519.967 168.696C519.571 167.904 519.373 166.998 519.373 165.978ZM527.221 166.014C527.221 165.402 527.101 164.88 526.861 164.448C526.621 164.004 526.297 163.668 525.889 163.44C525.481 163.2 525.043 163.08 524.575 163.08C524.107 163.08 523.675 163.194 523.279 163.422C522.883 163.65 522.559 163.986 522.307 164.43C522.067 164.862 521.947 165.378 521.947 165.978C521.947 166.578 522.067 167.106 522.307 167.562C522.559 168.006 522.883 168.348 523.279 168.588C523.687 168.828 524.119 168.948 524.575 168.948C525.043 168.948 525.481 168.834 525.889 168.606C526.297 168.366 526.621 168.03 526.861 167.598C527.101 167.154 527.221 166.626 527.221 166.014ZM534.741 157.68V171H532.221V157.68H534.741ZM546.5 165.798C546.5 166.158 546.476 166.482 546.428 166.77H539.138C539.198 167.49 539.45 168.054 539.894 168.462C540.338 168.87 540.884 169.074 541.532 169.074C542.468 169.074 543.134 168.672 543.53 167.868H546.248C545.96 168.828 545.408 169.62 544.592 170.244C543.776 170.856 542.774 171.162 541.586 171.162C540.626 171.162 539.762 170.952 538.994 170.532C538.238 170.1 537.644 169.494 537.212 168.714C536.792 167.934 536.582 167.034 536.582 166.014C536.582 164.982 536.792 164.076 537.212 163.296C537.632 162.516 538.22 161.916 538.976 161.496C539.732 161.076 540.602 160.866 541.586 160.866C542.534 160.866 543.38 161.07 544.124 161.478C544.88 161.886 545.462 162.468 545.87 163.224C546.29 163.968 546.5 164.826 546.5 165.798ZM543.89 165.078C543.878 164.43 543.644 163.914 543.188 163.53C542.732 163.134 542.174 162.936 541.514 162.936C540.89 162.936 540.362 163.128 539.93 163.512C539.51 163.884 539.252 164.406 539.156 165.078H543.89Z" fill="white"/>
<path d="M445.942 185.901L442.484 194H440.638L444.122 186.109H439.676V184.549H445.942V185.901ZM446.824 186.85C446.824 186.191 447.014 185.676 447.396 185.303C447.786 184.93 448.284 184.744 448.891 184.744C449.497 184.744 449.991 184.93 450.373 185.303C450.763 185.676 450.958 186.191 450.958 186.85C450.958 187.517 450.763 188.037 450.373 188.41C449.991 188.783 449.497 188.969 448.891 188.969C448.284 188.969 447.786 188.783 447.396 188.41C447.014 188.037 446.824 187.517 446.824 186.85ZM455.17 184.9L450.061 194H448.293L453.389 184.9H455.17ZM448.878 185.836C448.401 185.836 448.163 186.174 448.163 186.85C448.163 187.535 448.401 187.877 448.878 187.877C449.112 187.877 449.294 187.795 449.424 187.63C449.554 187.457 449.619 187.197 449.619 186.85C449.619 186.174 449.372 185.836 448.878 185.836ZM452.531 192.037C452.531 191.37 452.721 190.854 453.103 190.49C453.493 190.117 453.991 189.931 454.598 189.931C455.204 189.931 455.694 190.117 456.067 190.49C456.448 190.854 456.639 191.37 456.639 192.037C456.639 192.704 456.448 193.224 456.067 193.597C455.694 193.97 455.204 194.156 454.598 194.156C453.982 194.156 453.484 193.97 453.103 193.597C452.721 193.224 452.531 192.704 452.531 192.037ZM454.585 191.023C454.091 191.023 453.844 191.361 453.844 192.037C453.844 192.722 454.091 193.064 454.585 193.064C455.07 193.064 455.313 192.722 455.313 192.037C455.313 191.361 455.07 191.023 454.585 191.023Z" fill="white" fill-opacity="0.8"/>
<rect x="412.221" width="5" height="55" fill="white"/>
<rect x="412.221" y="73" width="5" height="55" fill="#FF6624"/>
<rect x="412.221" y="151" width="5" height="55" fill="#FFBC3A"/>
</svg>
